STARTFONT 2.1
COMMENT 
COMMENT  14x14 JIS X 0213-2000 Kanji Font, Version 1.00 (Mar 16, 2004)
COMMENT  This bdf font set was rescaled from
COMMENT  jikan16-2000-[12].bdf and merged with k14.bdf and KANOU-patch
COMMENT  by
COMMENT     Toshiyuki Imamura <imamura@mbd.sphere.ne.jp>
COMMENT 
FONT -Misc-Fixed-Medium-R-Normal--14-130-75-75-C-140-JISX0213.2000-2
SIZE 14 75 75
FONTBOUNDINGBOX 14 14 0 -2
STARTPROPERTIES 18
FONT_ASCENT 12
FONT_DESCENT 2
COPYRIGHT "Public Domain"
FONTNAME_REGISTRY ""
FOUNDRY "Misc"
FAMILY_NAME "Fixed"
WEIGHT_NAME "Medium"
SLANT "R"
SETWIDTH_NAME "Normal"
ADD_STYLE_NAME ""
PIXEL_SIZE 14
POINT_SIZE 130
RESOLUTION_X 75
RESOLUTION_Y 75
SPACING "C"
AVERAGE_WIDTH 140
CHARSET_REGISTRY "JISX0213.2000"
CHARSET_ENCODING "2"
ENDPROPERTIES
CHARS 2436
STARTCHAR 02-01-01
ENCODING 8481
SWIDTH 960 0
DWIDTH 14 0
BBX 14 14 0 -2
BITMAP
0000
0000
0400
0400
0400
0FF8
0800
1000
2000
0000
0000
0000
0000
0000
ENDCHAR
STARTCHAR 02-01-02
ENCODING 8482
SWIDTH 960 0
DWIDTH 14 0
BBX 14 14 0 -2
BITMAP
0000
7FFC
0200
0200
0400
07F0
0410
0810
0010
0010
0020
0020
01C0
0000
ENDCHAR
STARTCHAR 02-01-03
ENCODING 8483
SWIDTH 960 0
DWIDTH 14 0
BBX 14 14 0 -2
BITMAP
0000
7FFC
0100
1100
11F0
1110
1110
1FF0
1010
0010
0020
0020
01C0
0000
ENDCHAR
STARTCHAR 02-01-04
ENCODING 8484
SWIDTH 960 0
DWIDTH 14 0
BBX 14 14 0 -2
BITMAP
0000
3FF0
0110
0910
0610
0210
0610
0510
0910
1010
20E0
0000
7FFC
0000
ENDCHAR
STARTCHAR 02-01-05
ENCODING 8485
SWIDTH 960 0
DWIDTH 14 0
BBX 14 14 0 -2
BITMAP
0020
0020
0420
0420
0420
0420
0430
0460
05A0
0620
1820
0020
0020
0020
ENDCHAR
STARTCHAR 02-01-06
ENCODING 8486
SWIDTH 960 0
DWIDTH 14 0
BBX 14 14 0 -2
BITMAP
0000
1010
0820
0440
0280
0300
0100
0100
0100
0100
0100
0100
0100
0000
ENDCHAR
STARTCHAR 02-01-07
ENCODING 8487
SWIDTH 960 0
DWIDTH 14 0
BBX 14 14 0 -2
BITMAP
0000
3FE0
0020
0420
0420
0420
3FA0
0420
0410
3F90
0414
040C
040C
0404
ENDCHAR
STARTCHAR 02-01-08
ENCODING 8488
SWIDTH 960 0
DWIDTH 14 0
BBX 14 14 0 -2
BITMAP
0000
0400
0400
0A00
1200
1100
0100
0100
0080
0080
0040
0020
0010
000C
ENDCHAR
STARTCHAR 02-01-09
ENCODING 8489
SWIDTH 960 0
DWIDTH 14 0
BBX 14 14 0 -2
BITMAP
0020
00C0
1F00
0200
0200
0200
0200
7FFC
0200
0200
0200
0208
0208
01F8
ENDCHAR
STARTCHAR 02-01-10
ENCODING 8490
SWIDTH 960 0
DWIDTH 14 0
BBX 14 14 0 -2
BITMAP
0000
0200
0200
0400
0400
0880
1080
6100
0140
0220
0210
0470
3F88
0008
ENDCHAR
STARTCHAR 02-01-11
ENCODING 8491
SWIDTH 960 0
DWIDTH 14 0
BBX 14 14 0 -2
BITMAP
0040
0180
0E10
0860
0980
0F10
0990
09A0
09C0
1140
1120
1110
210C
4100
ENDCHAR
STARTCHAR 02-01-12
ENCODING 8492
SWIDTH 960 0
DWIDTH 14 0
BBX 14 14 0 -2
BITMAP
0020
00C0
0300
1D00
0108
0508
0990
31A0
01C0
0540
0920
1110
610C
0100
ENDCHAR
STARTCHAR 02-01-13
ENCODING 8493
SWIDTH 960 0
DWIDTH 14 0
BBX 14 14 0 -2
BITMAP
0060
0780
0400
07E0
0420
07E0
0420
07E0
0400
0FE0
0820
1020
2020
01C0
ENDCHAR
STARTCHAR 02-01-14
ENCODING 8494
SWIDTH 960 0
DWIDTH 14 0
BBX 14 14 0 -2
BITMAP
0100
0100
0200
0FE0
0820
0820
0FE0
0820
0800
0FF0
0810
0810
0FF0
0810
ENDCHAR
STARTCHAR 02-01-15
ENCODING 8495
SWIDTH 960 0
DWIDTH 14 0
BBX 14 14 0 -2
BITMAP
0800
0800
0800
0800
0800
0800
0800
0800
0800
0800
0810
0810
0410
03F0
ENDCHAR
STARTCHAR 02-01-16
ENCODING 8496
SWIDTH 960 0
DWIDTH 14 0
BBX 14 14 0 -2
BITMAP
0840
0840
0840
0FC0
0840
0840
0840
7F40
4140
4140
4140
4144
7F44
413C
ENDCHAR
STARTCHAR 02-01-17
ENCODING 8497
SWIDTH 960 0
DWIDTH 14 0
BBX 14 14 0 -2
BITMAP
0200
0240
0460
1F90
1020
2448
7AF4
0204
0000
1FF0
0000
0000
7FFC
0000
ENDCHAR
STARTCHAR 02-01-18
ENCODING 8498
SWIDTH 960 0
DWIDTH 14 0
BBX 14 14 0 -2
BITMAP
0100
0100
7FFC
0240
0420
1FD0
0010
0540
0540
0540
0540
0944
1144
603C
ENDCHAR
STARTCHAR 02-01-19
ENCODING 8499
SWIDTH 960 0
DWIDTH 14 0
BBX 14 14 0 -2
BITMAP
0100
7FFC
0820
1450
7FFC
0440
1FF0
0440
7FFC
0510
38A0
0BC0
0C60
3018
ENDCHAR
STARTCHAR 02-01-20
ENCODING 8500
SWIDTH 960 0
DWIDTH 14 0
BBX 14 14 0 -2
BITMAP
0100
7FFC
0000
37D8
3758
2548
3FFC
2008
4FE0
0820
0FE0
0FE0
0820
7FFC
ENDCHAR
STARTCHAR 02-01-21
ENCODING 8501
SWIDTH 960 0
DWIDTH 14 0
BBX 14 14 0 -2
BITMAP
0020
0020
0040
0040
0080
0180
0280
0480
0880
0080
0080
0080
0080
0080
ENDCHAR
STARTCHAR 02-01-22
ENCODING 8502
SWIDTH 960 0
DWIDTH 14 0
BBX 14 14 0 -2
BITMAP
0000
0000
0100
0100
0280
0280
0440
0820
1010
600C
0000
0000
0000
0000
ENDCHAR
STARTCHAR 02-01-23
ENCODING 8503
SWIDTH 960 0
DWIDTH 14 0
BBX 14 14 0 -2
BITMAP
0100
0100
0100
0100
0380
0280
0440
0440
0820
1010
600C
0000
7FFC
0000
ENDCHAR
STARTCHAR 02-01-24
ENCODING 8504
SWIDTH 960 0
DWIDTH 14 0
BBX 14 14 0 -2
BITMAP
0800
0BFC
0820
1020
1020
3020
5020
1020
1020
1020
1020
1020
1020
1060
ENDCHAR
STARTCHAR 02-01-25
ENCODING 8505
SWIDTH 960 0
DWIDTH 14 0
BBX 14 14 0 -2
BITMAP
0800
09E0
0820
1020
1120
3120
5120
1120
1110
1110
1110
1208
1208
1404
ENDCHAR
STARTCHAR 02-01-26
ENCODING 8506
SWIDTH 960 0
DWIDTH 14 0
BBX 14 14 0 -2
BITMAP
0100
0100
0280
0440
0820
1110
610C
0100
0100
7FFC
0100
0100
0100
0100
ENDCHAR
STARTCHAR 02-01-27
ENCODING 8507
SWIDTH 960 0
DWIDTH 14 0
BBX 14 14 0 -2
BITMAP
0880
0880
0900
1120
1220
3220
5440
1040
1080
10A0
1090
1130
13C8
1008
ENDCHAR
STARTCHAR 02-01-28
ENCODING 8508
SWIDTH 960 0
DWIDTH 14 0
BBX 14 14 0 -2
BITMAP
0100
0100
0280
0440
0820
1110
610C
0100
2108
2108
2108
3FF8
2008
2008
ENDCHAR
STARTCHAR 02-01-29
ENCODING 8509
SWIDTH 960 0
DWIDTH 14 0
BBX 14 14 0 -2
BITMAP
0840
0840
08A0
1110
1208
35E4
5000
1000
13F0
1010
1020
1020
1040
1040
ENDCHAR
STARTCHAR 02-01-30
ENCODING 8510
SWIDTH 960 0
DWIDTH 14 0
BBX 14 14 0 -2
BITMAP
0900
0900
09F8
1240
1240
3440
5040
17FC
1040
1040
1040
1040
1040
1040
ENDCHAR
STARTCHAR 02-01-31
ENCODING 8511
SWIDTH 960 0
DWIDTH 14 0
BBX 14 14 0 -2
BITMAP
0870
0910
0910
1110
1110
3208
5248
1444
1080
10A0
1090
1118
13E4
1004
ENDCHAR
STARTCHAR 02-01-32
ENCODING 8512
SWIDTH 960 0
DWIDTH 14 0
BBX 14 14 0 -2
BITMAP
0880
0880
0880
17FC
1080
3080
51F0
1110
1190
12A0
1240
14A0
1910
160C
ENDCHAR
STARTCHAR 02-01-33
ENCODING 8513
SWIDTH 960 0
DWIDTH 14 0
BBX 14 14 0 -2
BITMAP
0800
0FF8
0900
1100
11E0
3120
51A0
1160
1160
1120
1124
11D4
170C
1004
ENDCHAR
STARTCHAR 02-01-34
ENCODING 8514
SWIDTH 960 0
DWIDTH 14 0
BBX 14 14 0 -2
BITMAP
0840
0840
0840
1040
13F8
3248
5248
1248
13F8
1248
1248
1248
13F8
1208
ENDCHAR
STARTCHAR 02-01-35
ENCODING 8515
SWIDTH 960 0
DWIDTH 14 0
BBX 14 14 0 -2
BITMAP
0800
0FFC
0820
1020
1040
3060
50D0
1148
1644
1044
1040
1040
17FC
1000
ENDCHAR
STARTCHAR 02-01-36
ENCODING 8516
SWIDTH 960 0
DWIDTH 14 0
BBX 14 14 0 -2
BITMAP
0840
0840
0840
107C
1040
3040
5040
13F8
1208
1208
1208
1208
13F8
1208
ENDCHAR
STARTCHAR 02-01-37
ENCODING 8517
SWIDTH 960 0
DWIDTH 14 0
BBX 14 14 0 -2
BITMAP
0100
0100
0280
0440
1830
6FEC
0000
0000
3FF8
0920
0910
1108
2108
0300
ENDCHAR
STARTCHAR 02-01-38
ENCODING 8518
SWIDTH 960 0
DWIDTH 14 0
BBX 14 14 0 -2
BITMAP
0800
0FFC
0880
1080
17F8
3488
56A8
16A8
16A8
16A8
17E8
1628
1408
1418
ENDCHAR
STARTCHAR 02-01-39
ENCODING 8519
SWIDTH 960 0
DWIDTH 14 0
BBX 14 14 0 -2
BITMAP
0800
09F0
0910
1110
11F0
3110
5110
11F4
1144
1128
1130
1150
1188
1704
ENDCHAR
STARTCHAR 02-01-40
ENCODING 8520
SWIDTH 960 0
DWIDTH 14 0
BBX 14 14 0 -2
BITMAP
0808
0830
0BC0
1040
1040
37FC
5040
1040
13F8
1208
1208
1208
13F8
1208
ENDCHAR
STARTCHAR 02-01-41
ENCODING 8521
SWIDTH 960 0
DWIDTH 14 0
BBX 14 14 0 -2
BITMAP
09C0
0840
08A0
10A0
1110
3208
57FC
1040
1040
11F0
1040
1040
17FC
1000
ENDCHAR
STARTCHAR 02-01-42
ENCODING 8522
SWIDTH 960 0
DWIDTH 14 0
BBX 14 14 0 -2
BITMAP
0880
0880
0880
1080
16FC
30A8
5130
1020
1220
1250
1450
1490
1508
1204
ENDCHAR
STARTCHAR 02-01-43
ENCODING 8523
SWIDTH 960 0
DWIDTH 14 0
BBX 14 14 0 -2
BITMAP
0840
0840
0BFC
1200
1218
33E0
5240
1240
13FC
1240
1240
1444
1844
103C
ENDCHAR
STARTCHAR 02-01-44
ENCODING 8524
SWIDTH 960 0
DWIDTH 14 0
BBX 14 14 0 -2
BITMAP
0840
0840
0FFC
1040
1248
3190
50A0
1048
1090
1330
1060
1090
1108
1604
ENDCHAR
STARTCHAR 02-01-45
ENCODING 8525
SWIDTH 960 0
DWIDTH 14 0
BBX 14 14 0 -2
BITMAP
0840
0840
0BFC
1208
1440
3040
57FC
1090
1090
1190
1160
1030
10C8
1704
ENDCHAR
STARTCHAR 02-01-46
ENCODING 8526
SWIDTH 960 0
DWIDTH 14 0
BBX 14 14 0 -2
BITMAP
0900
0900
09F8
1208
15E8
3128
5128
11E8
1128
1128
11E8
1128
1008
1030
ENDCHAR
STARTCHAR 02-01-47
ENCODING 8527
SWIDTH 960 0
DWIDTH 14 0
BBX 14 14 0 -2
BITMAP
0840
0840
0BF8
1040
13F8
3080
57FC
1110
17FC
1210
1310
1490
1890
1030
ENDCHAR
STARTCHAR 02-01-48
ENCODING 8528
SWIDTH 960 0
DWIDTH 14 0
BBX 14 14 0 -2
BITMAP
0800
0BFC
0A00
1200
12F8
3200
53FC
12C8
12C8
12B0
14A0
1490
18C8
1304
ENDCHAR
STARTCHAR 02-01-49
ENCODING 8529
SWIDTH 960 0
DWIDTH 14 0
BBX 14 14 0 -2
BITMAP
0840
0848
0BF8
1048
1050
3FFC
5080
11F0
1220
1C40
17FC
1040
1040
10C0
ENDCHAR
STARTCHAR 02-01-50
ENCODING 8530
SWIDTH 960 0
DWIDTH 14 0
BBX 14 14 0 -2
BITMAP
0850
0848
1848
17FC
1040
3248
5168
1170
1050
10D0
1148
1644
1040
10C0
ENDCHAR
STARTCHAR 02-01-51
ENCODING 8531
SWIDTH 960 0
DWIDTH 14 0
BBX 14 14 0 -2
BITMAP
0800
09F0
0910
11F0
1000
33F8
5248
1248
13F8
1208
1200
1204
1204
11FC
ENDCHAR
STARTCHAR 02-01-52
ENCODING 8532
SWIDTH 960 0
DWIDTH 14 0
BBX 14 14 0 -2
BITMAP
0840
0950
0948
1244
1444
33F8
5208
13F8
1208
13F8
1208
1208
1208
1218
ENDCHAR
STARTCHAR 02-01-53
ENCODING 8533
SWIDTH 960 0
DWIDTH 14 0
BBX 14 14 0 -2
BITMAP
0840
0840
0BFC
1208
15F0
3000
5000
17FC
10A0
10A0
10A0
1124
1224
141C
ENDCHAR
STARTCHAR 02-01-54
ENCODING 8534
SWIDTH 960 0
DWIDTH 14 0
BBX 14 14 0 -2
BITMAP
0840
0840
0FFC
1110
10E0
31B0
571C
11F0
1110
11F0
1110
1110
1210
1410
ENDCHAR
STARTCHAR 02-01-55
ENCODING 8535
SWIDTH 960 0
DWIDTH 14 0
BBX 14 14 0 -2
BITMAP
1220
1220
1220
2FA0
2578
65A8
28A8
3528
2628
2228
2548
2548
2888
3130
ENDCHAR
STARTCHAR 02-01-56
ENCODING 8536
SWIDTH 960 0
DWIDTH 14 0
BBX 14 14 0 -2
BITMAP
0800
09F8
0900
11F0
1100
31F0
5100
17FC
1148
1150
1120
1150
1188
1604
ENDCHAR
STARTCHAR 02-01-57
ENCODING 8537
SWIDTH 960 0
DWIDTH 14 0
BBX 14 14 0 -2
BITMAP
0840
0840
0CF8
1510
16A0
34E0
571C
1440
1548
1548
16F0
14A0
1110
120C
ENDCHAR
STARTCHAR 02-01-58
ENCODING 8538
SWIDTH 960 0
DWIDTH 14 0
BBX 14 14 0 -2
BITMAP
0840
0848
0A48
12D0
14A0
3118
5644
1048
1248
12D0
14A0
1120
1210
140C
ENDCHAR
STARTCHAR 02-01-59
ENCODING 8539
SWIDTH 960 0
DWIDTH 14 0
BBX 14 14 0 -2
BITMAP
0800
0BF8
0A48
1248
13F8
3248
53F8
1248
13E8
1328
1328
15E8
1528
1818
ENDCHAR
STARTCHAR 02-01-60
ENCODING 8540
SWIDTH 960 0
DWIDTH 14 0
BBX 14 14 0 -2
BITMAP
0880
0880
0FFC
1000
13F0
3210
5210
13F0
1080
12A0
1290
1488
1888
1180
ENDCHAR
STARTCHAR 02-01-61
ENCODING 8541
SWIDTH 960 0
DWIDTH 14 0
BBX 14 14 0 -2
BITMAP
0840
0FFC
0840
13F8
1048
37FC
5048
13F8
1040
1178
1140
1340
14C0
183C
ENDCHAR
STARTCHAR 02-01-62
ENCODING 8542
SWIDTH 960 0
DWIDTH 14 0
BBX 14 14 0 -2
BITMAP
0800
0BF8
0A08
1208
13F8
3100
51F8
1240
1040
17FC
1060
1090
1308
1C04
ENDCHAR
STARTCHAR 02-01-63
ENCODING 8543
SWIDTH 960 0
DWIDTH 14 0
BBX 14 14 0 -2
BITMAP
0910
0890
08A0
17FC
1000
33A8
52A8
12A8
13A8
12A8
13A8
1288
1288
1398
ENDCHAR
STARTCHAR 02-01-64
ENCODING 8544
SWIDTH 960 0
DWIDTH 14 0
BBX 14 14 0 -2
BITMAP
0840
0840
0BF8
1040
11F0
30A0
57FC
1110
13F8
1514
11F0
1110
11F0
1110
ENDCHAR
STARTCHAR 02-01-65
ENCODING 8545
SWIDTH 960 0
DWIDTH 14 0
BBX 14 14 0 -2
BITMAP
0800
0BF8
0A48
13F8
1248
33F8
5000
17FC
1288
1250
1260
1290
1308
1E04
ENDCHAR
STARTCHAR 02-01-66
ENCODING 8546
SWIDTH 960 0
DWIDTH 14 0
BBX 14 14 0 -2
BITMAP
0800
0BF8
0A08
13F8
1200
33F8
5260
1290
13E8
1440
17F8
1840
17FC
1000
ENDCHAR
STARTCHAR 02-01-67
ENCODING 8547
SWIDTH 960 0
DWIDTH 14 0
BBX 14 14 0 -2
BITMAP
0840
0950
0A48
14D4
1020
30C0
57F8
1108
11F8
1108
11F8
1108
11F8
1108
ENDCHAR
STARTCHAR 02-01-68
ENCODING 8548
SWIDTH 960 0
DWIDTH 14 0
BBX 14 14 0 -2
BITMAP
0840
0840
0BF8
1110
10A0
37FC
5000
11F0
1110
11F0
1110
1110
11F0
1110
ENDCHAR
STARTCHAR 02-01-69
ENCODING 8549
SWIDTH 960 0
DWIDTH 14 0
BBX 14 14 0 -2
BITMAP
0800
0FFC
0888
12F0
1380
327C
5400
13F8
1208
13F8
1208
13F8
1208
1218
ENDCHAR
STARTCHAR 02-01-70
ENCODING 8550
SWIDTH 960 0
DWIDTH 14 0
BBX 14 14 0 -2
BITMAP
0800
0BF8
0800
11F0
1110
31F0
5000
13F8
1248
13F8
1248
1248
13F8
1208
ENDCHAR
STARTCHAR 02-01-71
ENCODING 8551
SWIDTH 960 0
DWIDTH 14 0
BBX 14 14 0 -2
BITMAP
0A00
0AF8
0BA8
1E28
13A8
3E28
53C8
1E58
1080
1FFC
1080
1140
1230
1C0C
ENDCHAR
STARTCHAR 02-01-72
ENCODING 8552
SWIDTH 960 0
DWIDTH 14 0
BBX 14 14 0 -2
BITMAP
0840
0840
0FFC
1040
13F8
30A0
57FC
1150
1248
1554
10E0
1150
164C
10C0
ENDCHAR
STARTCHAR 02-01-73
ENCODING 8553
SWIDTH 960 0
DWIDTH 14 0
BBX 14 14 0 -2
BITMAP
0800
0FFC
08A0
13F8
12A8
32A8
53F8
1040
17FC
10E0
1150
1248
1444
1040
ENDCHAR
STARTCHAR 02-01-74
ENCODING 8554
SWIDTH 960 0
DWIDTH 14 0
BBX 14 14 0 -2
BITMAP
0818
0BF0
0A88
1244
1454
3190
50A0
1050
13F8
1048
17FC
10A0
1110
160C
ENDCHAR
STARTCHAR 02-01-75
ENCODING 8555
SWIDTH 960 0
DWIDTH 14 0
BBX 14 14 0 -2
BITMAP
0818
0BE0
0A00
13F8
1208
33F8
5200
13FC
12CC
1374
14CC
1774
1844
10CC
ENDCHAR
STARTCHAR 02-01-76
ENCODING 8556
SWIDTH 960 0
DWIDTH 14 0
BBX 14 14 0 -2
BITMAP
0880
0880
0BFC
1288
1510
3120
53FC
1620
1BF8
1220
13F8
1220
13FC
1200
ENDCHAR
STARTCHAR 02-01-77
ENCODING 8557
SWIDTH 960 0
DWIDTH 14 0
BBX 14 14 0 -2
BITMAP
0840
0840
08A0
11F0
1208
35F4
5110
11F0
11F0
1200
13F8
1508
19F8
1108
ENDCHAR
STARTCHAR 02-01-78
ENCODING 8558
SWIDTH 960 0
DWIDTH 14 0
BBX 14 14 0 -2
BITMAP
0840
08F8
0948
16B0
10E0
3780
51F8
1240
17FC
1040
1248
1248
13F8
1208
ENDCHAR
STARTCHAR 02-01-79
ENCODING 8559
SWIDTH 960 0
DWIDTH 14 0
BBX 14 14 0 -2
BITMAP
0840
0890
0BF8
1110
1198
3264
57FC
10A0
1350
1DAC
1048
1190
1060
1380
ENDCHAR
STARTCHAR 02-01-80
ENCODING 8560
SWIDTH 960 0
DWIDTH 14 0
BBX 14 14 0 -2
BITMAP
0800
0BF8
0A48
13F8
1248
33F8
5150
17FC
1150
13F8
1040
17FC
1040
1040
ENDCHAR
STARTCHAR 02-01-81
ENCODING 8561
SWIDTH 960 0
DWIDTH 14 0
BBX 14 14 0 -2
BITMAP
0948
0948
0A48
12B4
1524
3110
5110
1250
165C
1250
1250
12B0
1290
130C
ENDCHAR
STARTCHAR 02-01-82
ENCODING 8562
SWIDTH 960 0
DWIDTH 14 0
BBX 14 14 0 -2
BITMAP
0900
09F8
0B48
12E8
12B0
3590
51F8
1604
17F8
1040
1150
1248
1448
10C0
ENDCHAR
STARTCHAR 02-01-83
ENCODING 8563
SWIDTH 960 0
DWIDTH 14 0
BBX 14 14 0 -2
BITMAP
0840
0BF8
0AA8
1248
13A8
33F8
5124
129C
14F0
1110
1320
14C0
11B0
1E0C
ENDCHAR
STARTCHAR 02-01-84
ENCODING 8564
SWIDTH 960 0
DWIDTH 14 0
BBX 14 14 0 -2
BITMAP
0800
0FFC
08A0
13F8
12A8
33F8
5000
13F8
1000
17FC
1150
1248
1448
10C0
ENDCHAR
STARTCHAR 02-01-85
ENCODING 8565
SWIDTH 960 0
DWIDTH 14 0
BBX 14 14 0 -2
BITMAP
0800
0BF8
08D8
1168
12D8
3168
5248
11B0
164C
11A0
1048
1190
1060
1380
ENDCHAR
STARTCHAR 02-01-86
ENCODING 8566
SWIDTH 960 0
DWIDTH 14 0
BBX 14 14 0 -2
BITMAP
0800
0FFC
08A0
13F8
12A8
32A8
53F8
1248
1150
17FC
10E0
1150
164C
1040
ENDCHAR
STARTCHAR 02-01-87
ENCODING 8567
SWIDTH 960 0
DWIDTH 14 0
BBX 14 14 0 -2
BITMAP
0800
0BF8
0B58
12D8
12E8
33F8
5040
13F8
1040
17FC
1000
1348
12A4
14A4
ENDCHAR
STARTCHAR 02-01-88
ENCODING 8568
SWIDTH 960 0
DWIDTH 14 0
BBX 14 14 0 -2
BITMAP
0800
0FF8
0CC8
17F8
1440
34C8
53B8
1120
17F8
1120
1FFC
1110
1208
1408
ENDCHAR
STARTCHAR 02-01-89
ENCODING 8569
SWIDTH 960 0
DWIDTH 14 0
BBX 14 14 0 -2
BITMAP
0920
0BFC
0A20
17F8
1620
3BF8
5220
13FC
1040
17FC
10E0
1150
164C
1040
ENDCHAR
STARTCHAR 02-01-90
ENCODING 8570
SWIDTH 960 0
DWIDTH 14 0
BBX 14 14 0 -2
BITMAP
0970
0910
0BF8
14A4
13F8
32B8
5318
13F8
13F8
1010
17FC
1110
1090
1030
ENDCHAR
STARTCHAR 02-01-91
ENCODING 8571
SWIDTH 960 0
DWIDTH 14 0
BBX 14 14 0 -2
BITMAP
0920
0920
0FFC
1120
11E0
37FC
53F8
1248
13F8
1248
13F8
1120
1110
1208
ENDCHAR
STARTCHAR 02-01-92
ENCODING 8572
SWIDTH 960 0
DWIDTH 14 0
BBX 14 14 0 -2
BITMAP
0840
0FFC
0840
13F8
1248
33F8
5248
13F8
1048
17FC
1040
1528
1514
18F4
ENDCHAR
STARTCHAR 02-01-93
ENCODING 8573
SWIDTH 960 0
DWIDTH 14 0
BBX 14 14 0 -2
BITMAP
0800
0F78
0D48
1778
1548
3778
5408
15E8
1528
15E8
1528
15E8
1528
1638
ENDCHAR
STARTCHAR 02-01-94
ENCODING 8574
SWIDTH 960 0
DWIDTH 14 0
BBX 14 14 0 -2
BITMAP
08A0
0AA8
09B0
17FC
10A0
33F8
5040
13F8
1040
17FC
10E0
1150
164C
1040
ENDCHAR
STARTCHAR 02-03-01
ENCODING 8993
SWIDTH 960 0
DWIDTH 14 0
BBX 14 14 0 -2
BITMAP
0840
08A0
09F0
160C
13F8
3358
52E8
13F8
11F0
1110
11F0
1110
11F0
1110
ENDCHAR
STARTCHAR 02-03-02
ENCODING 8994
SWIDTH 960 0
DWIDTH 14 0
BBX 14 14 0 -2
BITMAP
0800
0FFC
08A0
13F8
12A8
33F8
5000
13F8
12E8
1248
12E8
1258
12E8
13F8
ENDCHAR
STARTCHAR 02-03-03
ENCODING 8995
SWIDTH 960 0
DWIDTH 14 0
BBX 14 14 0 -2
BITMAP
1400
15FC
1628
1490
3390
347C
5798
1A50
1FDC
1250
1350
12F0
1490
190C
ENDCHAR
STARTCHAR 02-03-04
ENCODING 8996
SWIDTH 960 0
DWIDTH 14 0
BBX 14 14 0 -2
BITMAP
1100
1100
13F8
15D0
3FFC
31D0
53F8
1210
13FC
14B0
1AD0
117C
1210
1C10
ENDCHAR
STARTCHAR 02-03-05
ENCODING 8997
SWIDTH 960 0
DWIDTH 14 0
BBX 14 14 0 -2
BITMAP
1288
1150
17FC
1410
37D0
3490
57DC
1568
15C8
15E8
1950
1FD8
1068
1044
ENDCHAR
STARTCHAR 02-03-06
ENCODING 8998
SWIDTH 960 0
DWIDTH 14 0
BBX 14 14 0 -2
BITMAP
08A0
0920
0BA4
7AB8
0BA0
0AA0
3BA4
481C
0480
0480
0480
0884
1084
607C
ENDCHAR
STARTCHAR 02-03-07
ENCODING 8999
SWIDTH 960 0
DWIDTH 14 0
BBX 14 14 0 -2
BITMAP
0000
0100
0920
0910
1108
3FF8
0288
0440
7FFC
0820
1010
600C
0000
0000
ENDCHAR
STARTCHAR 02-03-08
ENCODING 9000
SWIDTH 960 0
DWIDTH 14 0
BBX 14 14 0 -2
BITMAP
0820
0420
0440
1FF0
0100
0100
0100
3FF8
0100
0280
0280
0440
0820
3018
ENDCHAR
STARTCHAR 02-03-09
ENCODING 9001
SWIDTH 960 0
DWIDTH 14 0
BBX 14 14 0 -2
BITMAP
0000
1FF0
1010
1010
1010
17D0
1010
1010
17D0
1010
1010
1010
1010
1030
ENDCHAR
STARTCHAR 02-03-10
ENCODING 9002
SWIDTH 960 0
DWIDTH 14 0
BBX 14 14 0 -2
BITMAP
0000
3FF8
2008
2008
27C8
2448
2448
2448
2448
27C8
2448
2008
2008
2018
ENDCHAR
STARTCHAR 02-03-11
ENCODING 9003
SWIDTH 960 0
DWIDTH 14 0
BBX 14 14 0 -2
BITMAP
0440
0440
7FFC
0440
07C0
0100
3FF8
2108
2D68
2528
2B58
3398
2108
2118
ENDCHAR
STARTCHAR 02-03-12
ENCODING 9004
SWIDTH 960 0
DWIDTH 14 0
BBX 14 14 0 -2
BITMAP
0100
0100
0100
0100
1FF8
1110
2100
0100
0180
0280
0280
0484
0884
307C
ENDCHAR
STARTCHAR 02-03-13
ENCODING 9005
SWIDTH 960 0
DWIDTH 14 0
BBX 14 14 0 -2
BITMAP
0000
3FFC
2008
4000
7FF8
1288
1E88
1248
1E50
1220
1260
1E90
6308
0204
ENDCHAR
STARTCHAR 02-03-14
ENCODING 9006
SWIDTH 960 0
DWIDTH 14 0
BBX 14 14 0 -2
BITMAP
0100
0100
0100
7FFC
0280
0440
0820
1010
630C
0080
0000
01C0
0600
0800
ENDCHAR
STARTCHAR 02-03-15
ENCODING 9007
SWIDTH 960 0
DWIDTH 14 0
BBX 14 14 0 -2
BITMAP
0008
0070
23C0
1040
1040
0040
07FC
1040
10E0
20A0
2110
4210
4408
0804
ENDCHAR
STARTCHAR 02-03-16
ENCODING 9008
SWIDTH 960 0
DWIDTH 14 0
BBX 14 14 0 -2
BITMAP
0040
0140
2140
11F8
1240
0440
07FC
10A0
10A0
2120
2120
4224
4424
081C
ENDCHAR
STARTCHAR 02-03-17
ENCODING 9009
SWIDTH 960 0
DWIDTH 14 0
BBX 14 14 0 -2
BITMAP
0120
0110
2208
1248
1440
00A0
0120
1210
17F8
2A14
2210
4210
43F0
0210
ENDCHAR
STARTCHAR 02-03-18
ENCODING 9010
SWIDTH 960 0
DWIDTH 14 0
BBX 14 14 0 -2
BITMAP
0000
1FF0
1010
1010
1010
1010
1010
1010
1010
1010
1014
200C
200C
4004
ENDCHAR
STARTCHAR 02-03-19
ENCODING 9011
SWIDTH 960 0
DWIDTH 14 0
BBX 14 14 0 -2
BITMAP
0E90
22A4
1448
1FF0
6FEC
0820
0FE0
0440
3FF8
0000
0FC0
0844
1044
203C
ENDCHAR
STARTCHAR 02-03-20
ENCODING 9012
SWIDTH 960 0
DWIDTH 14 0
BBX 14 14 0 -2
BITMAP
23F8
1240
13F0
03F0
1240
23FC
4004
46A4
095C
0000
0FC0
0844
1044
203C
ENDCHAR
STARTCHAR 02-03-21
ENCODING 9013
SWIDTH 960 0
DWIDTH 14 0
BBX 14 14 0 -2
BITMAP
0020
0420
0420
0420
0420
0420
0420
0420
0420
0420
0020
0020
0020
00E0
ENDCHAR
STARTCHAR 02-03-22
ENCODING 9014
SWIDTH 960 0
DWIDTH 14 0
BBX 14 14 0 -2
BITMAP
1408
1248
1248
1048
7FC8
1048
1248
0A48
0A48
0C48
0408
0A88
1188
6098
ENDCHAR
STARTCHAR 02-03-23
ENCODING 9015
SWIDTH 960 0
DWIDTH 14 0
BBX 14 14 0 -2
BITMAP
0008
1F48
1148
1148
1F48
1148
1148
1F48
1148
1148
1148
2108
2108
4318
ENDCHAR
STARTCHAR 02-03-24
ENCODING 9016
SWIDTH 960 0
DWIDTH 14 0
BBX 14 14 0 -2
BITMAP
0800
09F8
1448
1248
3E48
4948
3E48
2A48
2A48
3E48
1488
1288
2308
4230
ENDCHAR
STARTCHAR 02-03-25
ENCODING 9017
SWIDTH 960 0
DWIDTH 14 0
BBX 14 14 0 -2
BITMAP
0A08
0A48
0A48
7BC8
0A48
0A48
7BC8
0A48
0A48
7BC8
1248
1208
2208
4218
ENDCHAR
STARTCHAR 02-03-26
ENCODING 9018
SWIDTH 960 0
DWIDTH 14 0
BBX 14 14 0 -2
BITMAP
0408
0428
3FA8
2128
5028
1FA8
16A8
16A8
2EA8
2BA8
4A28
1248
2248
41D8
ENDCHAR
STARTCHAR 02-03-27
ENCODING 9019
SWIDTH 960 0
DWIDTH 14 0
BBX 14 14 0 -2
BITMAP
0808
4948
4948
7F48
0048
7F48
0848
7F48
5548
5548
5548
5508
5508
4318
ENDCHAR
STARTCHAR 02-03-28
ENCODING 9020
SWIDTH 960 0
DWIDTH 14 0
BBX 14 14 0 -2
BITMAP
0408
3FA8
0928
0628
1928
3FA8
2A28
2FA8
3228
2F28
2228
2208
4388
1C18
ENDCHAR
STARTCHAR 02-03-29
ENCODING 9021
SWIDTH 960 0
DWIDTH 14 0
BBX 14 14 0 -2
BITMAP
1108
1128
3FE8
3328
4CA8
0A28
0A28
1F28
60E8
1F28
1128
1108
1F08
1118
ENDCHAR
STARTCHAR 02-03-30
ENCODING 9022
SWIDTH 960 0
DWIDTH 14 0
BBX 14 14 0 -2
BITMAP
0008
3FE8
3328
2B28
2DE8
3FA8
29E8
3AA8
3AA8
3EA8
3AA8
4948
4948
5238
ENDCHAR
STARTCHAR 02-03-31
ENCODING 9023
SWIDTH 960 0
DWIDTH 14 0
BBX 14 14 0 -2
BITMAP
1008
6748
4548
5548
6B48
0048
7F48
1448
7748
4148
7748
1408
1F08
6018
ENDCHAR
STARTCHAR 02-03-32
ENCODING 9024
SWIDTH 960 0
DWIDTH 14 0
BBX 14 14 0 -2
BITMAP
0208
3FE8
2928
3FE8
3B68
3FE8
2DE8
2528
3DE8
2528
3DE8
4708
59C8
0918
ENDCHAR
STARTCHAR 02-03-33
ENCODING 9025
SWIDTH 960 0
DWIDTH 14 0
BBX 14 14 0 -2
BITMAP
0040
3E40
0040
01F8
0048
7F48
1448
1448
1488
1488
1530
2404
2404
43FC
ENDCHAR
STARTCHAR 02-03-34
ENCODING 9026
SWIDTH 960 0
DWIDTH 14 0
BBX 14 14 0 -2
BITMAP
0140
0240
1C40
1040
10F8
1F48
1448
1448
1448
1448
2488
2488
4508
0630
ENDCHAR
STARTCHAR 02-03-35
ENCODING 9027
SWIDTH 960 0
DWIDTH 14 0
BBX 14 14 0 -2
BITMAP
0100
0100
1FF0
0110
0210
0410
1860
1020
7EFC
1224
1224
2244
2244
4E9C
ENDCHAR
STARTCHAR 02-03-36
ENCODING 9028
SWIDTH 960 0
DWIDTH 14 0
BBX 14 14 0 -2
BITMAP
0040
7C40
1040
1040
13F8
3C48
2448
6448
2448
2448
3C88
2488
2108
0230
ENDCHAR
STARTCHAR 02-03-37
ENCODING 9029
SWIDTH 960 0
DWIDTH 14 0
BBX 14 14 0 -2
BITMAP
1040
1040
1440
2240
7DF8
2848
2848
3E48
2848
4848
7F88
0888
0908
0A30
ENDCHAR
STARTCHAR 02-03-38
ENCODING 9030
SWIDTH 960 0
DWIDTH 14 0
BBX 14 14 0 -2
BITMAP
0040
7F40
4040
7E40
49F8
4848
5C48
4848
4848
4848
7E88
4088
7F08
0230
ENDCHAR
STARTCHAR 02-03-39
ENCODING 9031
SWIDTH 960 0
DWIDTH 14 0
BBX 14 14 0 -2
BITMAP
0840
0840
7F40
0840
3FF8
2248
2248
3E48
3688
1488
1508
1630
2404
43FC
ENDCHAR
STARTCHAR 02-03-40
ENCODING 9032
SWIDTH 960 0
DWIDTH 14 0
BBX 14 14 0 -2
BITMAP
2840
2840
3FF0
4850
09D0
3E50
0870
0E94
710C
0100
3FF0
0210
0C10
3060
ENDCHAR
STARTCHAR 02-03-41
ENCODING 9033
SWIDTH 960 0
DWIDTH 14 0
BBX 14 14 0 -2
BITMAP
0840
0840
0840
7F40
2AF8
2A48
2A48
5D48
5D48
1C48
2A88
2A88
4908
0830
ENDCHAR
STARTCHAR 02-03-42
ENCODING 9034
SWIDTH 960 0
DWIDTH 14 0
BBX 14 14 0 -2
BITMAP
0440
3FC0
2A40
3FC0
2AF8
2E48
3FC8
3F48
3548
3F48
3548
3F88
4A88
5130
ENDCHAR
STARTCHAR 02-03-43
ENCODING 9035
SWIDTH 960 0
DWIDTH 14 0
BBX 14 14 0 -2
BITMAP
0840
7F40
7740
5540
77F8
1448
7F48
3E48
1448
7F48
1A88
6688
3B08
6130
ENDCHAR
STARTCHAR 02-03-44
ENCODING 9036
SWIDTH 960 0
DWIDTH 14 0
BBX 14 14 0 -2
BITMAP
0800
0800
1FF8
1008
2208
5248
0A48
0A88
3FE8
0708
0A88
1268
2208
0230
ENDCHAR
STARTCHAR 02-03-45
ENCODING 9037
SWIDTH 960 0
DWIDTH 14 0
BBX 14 14 0 -2
BITMAP
0800
0800
1FF8
1408
2408
4FC8
1208
3FE8
0208
1248
1248
1FC8
1048
0030
ENDCHAR
STARTCHAR 02-03-46
ENCODING 9038
SWIDTH 960 0
DWIDTH 14 0
BBX 14 14 0 -2
BITMAP
0000
3FF8
2000
2FE0
2100
2100
2FE0
2100
2140
2120
3FF0
2000
3FFC
2000
ENDCHAR
STARTCHAR 02-03-47
ENCODING 9039
SWIDTH 960 0
DWIDTH 14 0
BBX 14 14 0 -2
BITMAP
0000
3FF8
2100
2FF0
27E0
2FF0
2A90
2FF0
27E0
27E0
27E0
2E70
3FFC
2000
ENDCHAR
STARTCHAR 02-03-48
ENCODING 9040
SWIDTH 960 0
DWIDTH 14 0
BBX 14 14 0 -2
BITMAP
0000
7FFC
2060
2780
27E0
2420
27E0
2400
2FF0
2D50
37F0
2550
1FF8
0000
ENDCHAR
STARTCHAR 02-03-49
ENCODING 9041
SWIDTH 960 0
DWIDTH 14 0
BBX 14 14 0 -2
BITMAP
0000
7FE0
0020
0420
0420
0420
0420
7FE0
0420
0420
0414
0414
040C
0004
ENDCHAR
STARTCHAR 02-03-50
ENCODING 9042
SWIDTH 960 0
DWIDTH 14 0
BBX 14 14 0 -2
BITMAP
0040
0040
0440
0440
1F40
0440
0440
0078
07C0
3840
0040
0040
0040
0040
ENDCHAR
STARTCHAR 02-03-51
ENCODING 9043
SWIDTH 960 0
DWIDTH 14 0
BBX 14 14 0 -2
BITMAP
0100
0100
3FF8
0100
0FE0
0820
0FE0
0820
0FE0
0100
7FFC
0100
0100
0100
ENDCHAR
STARTCHAR 02-03-52
ENCODING 9044
SWIDTH 960 0
DWIDTH 14 0
BBX 14 14 0 -2
BITMAP
0040
7F40
4840
4840
7E60
4250
4248
4244
7E44
4840
4840
7F40
4040
0040
ENDCHAR
STARTCHAR 02-03-53
ENCODING 9045
SWIDTH 960 0
DWIDTH 14 0
BBX 14 14 0 -2
BITMAP
0100
0600
18F8
1088
1088
1088
1088
1088
1388
1C88
70B0
0080
0080
0080
ENDCHAR
STARTCHAR 02-03-54
ENCODING 9046
SWIDTH 960 0
DWIDTH 14 0
BBX 14 14 0 -2
BITMAP
0000
1FE0
0048
3D88
0550
1930
630C
1FF0
0000
1FE0
1020
11C0
1008
0FF8
ENDCHAR
STARTCHAR 02-03-55
ENCODING 9047
SWIDTH 960 0
DWIDTH 14 0
BBX 14 14 0 -2
BITMAP
0000
3FFC
2000
2318
3CE0
2420
3FFC
2420
2E70
2D70
35B0
5528
4424
0420
ENDCHAR
STARTCHAR 02-03-56
ENCODING 9048
SWIDTH 960 0
DWIDTH 14 0
BBX 14 14 0 -2
BITMAP
0000
1FFC
1928
1FFC
1F20
1F60
1F50
198C
17F0
1490
17F0
2490
27F0
4080
ENDCHAR
STARTCHAR 02-03-57
ENCODING 9049
SWIDTH 960 0
DWIDTH 14 0
BBX 14 14 0 -2
BITMAP
0000
0100
0100
0100
7FFC
0200
0200
0440
0420
08F0
3F08
0008
0000
0000
ENDCHAR
STARTCHAR 02-03-58
ENCODING 9050
SWIDTH 960 0
DWIDTH 14 0
BBX 14 14 0 -2
BITMAP
0200
0200
0200
7FFC
0400
0480
0880
0880
1100
2120
4210
0438
1FC4
0004
ENDCHAR
STARTCHAR 02-03-59
ENCODING 9051
SWIDTH 960 0
DWIDTH 14 0
BBX 14 14 0 -2
BITMAP
0100
0100
7FFC
0100
1FF0
1110
1FF0
1110
1FF0
0220
0210
0478
3F84
0004
ENDCHAR
STARTCHAR 02-03-60
ENCODING 9052
SWIDTH 960 0
DWIDTH 14 0
BBX 14 14 0 -2
BITMAP
0000
1FE0
1020
1020
10C0
1000
1FE0
1820
1440
1280
1180
1340
1C20
1018
ENDCHAR
STARTCHAR 02-03-61
ENCODING 9053
SWIDTH 960 0
DWIDTH 14 0
BBX 14 14 0 -2
BITMAP
0100
0100
7FFC
0100
0FE0
0820
0FE0
0800
3FF0
0420
0240
0180
0660
781C
ENDCHAR
STARTCHAR 02-03-62
ENCODING 9054
SWIDTH 960 0
DWIDTH 14 0
BBX 14 14 0 -2
BITMAP
0000
3FF8
2148
2148
3F48
2450
2450
3F50
3520
5520
5550
1750
1488
0504
ENDCHAR
STARTCHAR 02-03-63
ENCODING 9055
SWIDTH 960 0
DWIDTH 14 0
BBX 14 14 0 -2
BITMAP
0000
7FF8
2288
1450
1860
2CB0
430C
0000
7FF8
2288
1450
1860
2CB0
430C
ENDCHAR
STARTCHAR 02-03-64
ENCODING 9056
SWIDTH 960 0
DWIDTH 14 0
BBX 14 14 0 -2
BITMAP
0000
3EF8
2208
2208
3EF8
2208
2000
3DF8
2108
2090
3C50
2020
20D8
2304
ENDCHAR
STARTCHAR 02-03-65
ENCODING 9057
SWIDTH 960 0
DWIDTH 14 0
BBX 14 14 0 -2
BITMAP
07C0
0040
0840
0820
1020
1010
2008
4FE4
0820
0820
0820
0820
0FE0
0820
ENDCHAR
STARTCHAR 02-03-66
ENCODING 9058
SWIDTH 960 0
DWIDTH 14 0
BBX 14 14 0 -2
BITMAP
0200
0200
3FC0
0240
0440
0844
1044
603C
0FE0
0820
0820
0820
0FE0
0820
ENDCHAR
STARTCHAR 02-03-67
ENCODING 9059
SWIDTH 960 0
DWIDTH 14 0
BBX 14 14 0 -2
BITMAP
0000
3FF8
2000
2000
27E0
2420
2420
2420
27E0
2420
2000
2000
3FFC
2000
ENDCHAR
STARTCHAR 02-03-68
ENCODING 9060
SWIDTH 960 0
DWIDTH 14 0
BBX 14 14 0 -2
BITMAP
0000
01FC
7900
4908
4908
4950
4930
4910
4928
4948
7988
4900
41FC
0100
ENDCHAR
STARTCHAR 02-03-69
ENCODING 9061
SWIDTH 960 0
DWIDTH 14 0
BBX 14 14 0 -2
BITMAP
0040
0040
78A0
4910
4A08
4D14
4910
4910
4910
4910
7910
4A10
4210
0410
ENDCHAR
STARTCHAR 02-03-70
ENCODING 9062
SWIDTH 960 0
DWIDTH 14 0
BBX 14 14 0 -2
BITMAP
0040
004C
7870
4BC0
4848
4A48
4A48
4A48
4BF8
4A48
7840
4844
4044
003C
ENDCHAR
STARTCHAR 02-03-71
ENCODING 9063
SWIDTH 960 0
DWIDTH 14 0
BBX 14 14 0 -2
BITMAP
00A0
0090
7908
4A04
4D14
4910
4910
48A0
48A0
4840
7840
48A0
4110
060C
ENDCHAR
STARTCHAR 02-03-72
ENCODING 9064
SWIDTH 960 0
DWIDTH 14 0
BBX 14 14 0 -2
BITMAP
0000
03FC
7A00
4A00
4AF8
4A88
4A88
4A88
4A88
4AB0
7A80
4484
4484
087C
ENDCHAR
STARTCHAR 02-03-73
ENCODING 9065
SWIDTH 960 0
DWIDTH 14 0
BBX 14 14 0 -2
BITMAP
0000
03F8
7A08
4A08
4BF8
4A88
4A80
4A98
4AE0
4A80
7A80
4484
4484
087C
ENDCHAR
STARTCHAR 02-03-74
ENCODING 9066
SWIDTH 960 0
DWIDTH 14 0
BBX 14 14 0 -2
BITMAP
0220
0220
7220
54A0
54F8
5928
5528
5228
5328
54A8
75C8
4E48
1888
0110
ENDCHAR
STARTCHAR 02-03-75
ENCODING 9067
SWIDTH 960 0
DWIDTH 14 0
BBX 14 14 0 -2
BITMAP
0000
03F8
7AA8
4AA8
4AA8
4AA8
4AA8
4AA8
4B28
4B18
7A08
4A08
43F8
0208
ENDCHAR
STARTCHAR 02-03-76
ENCODING 9068
SWIDTH 960 0
DWIDTH 14 0
BBX 14 14 0 -2
BITMAP
0010
0060
7BC0
4840
4840
4FFC
4840
48E0
48E0
4950
7A48
4444
4840
0040
ENDCHAR
STARTCHAR 02-03-77
ENCODING 9069
SWIDTH 960 0
DWIDTH 14 0
BBX 14 14 0 -2
BITMAP
0080
0080
7880
48A0
4910
4938
4FC4
4800
4BF8
4A08
7A08
4A08
43F8
0208
ENDCHAR
STARTCHAR 02-03-78
ENCODING 9070
SWIDTH 960 0
DWIDTH 14 0
BBX 14 14 0 -2
BITMAP
0040
0040
7840
4FFC
4840
4840
4840
4BF8
4A08
4A08
7A08
4A08
43F8
0208
ENDCHAR
STARTCHAR 02-03-79
ENCODING 9071
SWIDTH 960 0
DWIDTH 14 0
BBX 14 14 0 -2
BITMAP
0000
0FE0
0820
0FE0
0000
7FFC
0820
0FE0
0820
0FE0
0838
0FE0
3020
0020
ENDCHAR
STARTCHAR 02-03-80
ENCODING 9072
SWIDTH 960 0
DWIDTH 14 0
BBX 14 14 0 -2
BITMAP
0040
0040
7FFC
4840
4BF8
4848
4BF8
4A40
4BFC
4A44
7858
48A0
4110
060C
ENDCHAR
STARTCHAR 02-03-81
ENCODING 9073
SWIDTH 960 0
DWIDTH 14 0
BBX 14 14 0 -2
BITMAP
0040
0040
7840
4FFC
4840
4840
4BF8
4800
49F0
4910
7910
4910
41F0
0110
ENDCHAR
STARTCHAR 02-03-82
ENCODING 9074
SWIDTH 960 0
DWIDTH 14 0
BBX 14 14 0 -2
BITMAP
0040
0140
7940
49F8
4A40
4C40
4FFC
48E0
48E0
4950
7A48
4C44
4040
0040
ENDCHAR
STARTCHAR 02-03-83
ENCODING 9075
SWIDTH 960 0
DWIDTH 14 0
BBX 14 14 0 -2
BITMAP
00A0
00A0
78A8
4EA8
49B0
49A0
48B0
49A8
4AA4
4CA4
7920
4924
4224
041C
ENDCHAR
STARTCHAR 02-03-84
ENCODING 9076
SWIDTH 960 0
DWIDTH 14 0
BBX 14 14 0 -2
BITMAP
0000
07FC
7800
49F0
4910
4910
49F0
4910
4910
49F0
7910
4000
47FC
0000
ENDCHAR
STARTCHAR 02-03-85
ENCODING 9077
SWIDTH 960 0
DWIDTH 14 0
BBX 14 14 0 -2
BITMAP
0100
01F8
7928
4A28
4BFC
4A28
4E28
4AF8
4A28
4A20
7A40
4A40
4280
0300
ENDCHAR
STARTCHAR 02-03-86
ENCODING 9078
SWIDTH 960 0
DWIDTH 14 0
BBX 14 14 0 -2
BITMAP
0000
03F8
7A08
4A08
4BF8
4A08
4AE8
4AA8
4AA8
4AE8
7AA8
4A08
4208
0218
ENDCHAR
STARTCHAR 02-03-87
ENCODING 9079
SWIDTH 960 0
DWIDTH 14 0
BBX 14 14 0 -2
BITMAP
0110
0110
7FFC
4910
4910
48A0
48A4
4928
4B30
4D20
7920
4924
4124
011C
ENDCHAR
STARTCHAR 02-03-88
ENCODING 9080
SWIDTH 960 0
DWIDTH 14 0
BBX 14 14 0 -2
BITMAP
0100
0100
79FC
4A08
4A08
4EE8
4AA8
4AA8
4AA8
4AE8
7A88
4A08
4208
0218
ENDCHAR
STARTCHAR 02-03-89
ENCODING 9081
SWIDTH 960 0
DWIDTH 14 0
BBX 14 14 0 -2
BITMAP
0000
01F8
7908
4908
49F8
4908
49F8
4908
49F8
48A0
78A0
4924
4224
0C1C
ENDCHAR
STARTCHAR 02-03-90
ENCODING 9082
SWIDTH 960 0
DWIDTH 14 0
BBX 14 14 0 -2
BITMAP
0040
0040
7FFC
4840
4BFC
4A08
4DF0
4820
4840
4FFC
7840
4840
4040
00C0
ENDCHAR
STARTCHAR 02-03-91
ENCODING 9083
SWIDTH 960 0
DWIDTH 14 0
BBX 14 14 0 -2
BITMAP
0208
0210
7A60
4FC0
4A7C
4A50
4A50
4BD0
4E50
4A50
7A90
4A90
4310
0610
ENDCHAR
STARTCHAR 02-03-92
ENCODING 9084
SWIDTH 960 0
DWIDTH 14 0
BBX 14 14 0 -2
BITMAP
0030
03C0
7840
4FFC
48E0
4950
4E4C
4BE0
48A0
48B8
7928
4908
4208
0C30
ENDCHAR
STARTCHAR 02-03-93
ENCODING 9085
SWIDTH 960 0
DWIDTH 14 0
BBX 14 14 0 -2
BITMAP
0000
01F0
7800
4FFC
4800
49F0
4800
49F0
4800
49F0
7910
4910
41F0
0110
ENDCHAR
STARTCHAR 02-03-94
ENCODING 9086
SWIDTH 960 0
DWIDTH 14 0
BBX 14 14 0 -2
BITMAP
0080
0090
7908
4FFC
4904
4900
4BF8
4C40
4840
4FFC
78C0
48A0
4310
0C0C
ENDCHAR
STARTCHAR 02-04-01
ENCODING 9249
SWIDTH 960 0
DWIDTH 14 0
BBX 14 14 0 -2
BITMAP
0040
0040
7BF8
4910
48A0
4FFC
4840
4FFC
4890
4890
79E0
4830
40C8
0708
ENDCHAR
STARTCHAR 02-04-02
ENCODING 9250
SWIDTH 960 0
DWIDTH 14 0
BBX 14 14 0 -2
BITMAP
0000
03F8
7A48
4A48
4AE8
4A48
4AE8
4A48
4AE8
4AA8
7AA8
4CE8
4488
0818
ENDCHAR
STARTCHAR 02-04-03
ENCODING 9251
SWIDTH 960 0
DWIDTH 14 0
BBX 14 14 0 -2
BITMAP
0040
0040
7FFC
4840
4BF8
4A48
4BF8
4A48
4BF8
48E0
7950
4A48
4444
0040
ENDCHAR
STARTCHAR 02-04-04
ENCODING 9252
SWIDTH 960 0
DWIDTH 14 0
BBX 14 14 0 -2
BITMAP
0100
0100
7FFC
0820
0440
3FF8
2108
3FF8
2108
27C8
2448
27C8
2448
2018
ENDCHAR
STARTCHAR 02-04-05
ENCODING 9253
SWIDTH 960 0
DWIDTH 14 0
BBX 14 14 0 -2
BITMAP
0000
07FC
7508
5508
5678
5658
5558
5558
5578
7558
4608
0408
0408
0418
ENDCHAR
STARTCHAR 02-04-06
ENCODING 9254
SWIDTH 960 0
DWIDTH 14 0
BBX 14 14 0 -2
BITMAP
0080
00F8
7910
4BF0
4820
4FFC
4A40
4964
4968
48D0
78D0
4948
4644
00C0
ENDCHAR
STARTCHAR 02-04-07
ENCODING 9255
SWIDTH 960 0
DWIDTH 14 0
BBX 14 14 0 -2
BITMAP
0318
1CE0
1080
1FFC
1490
1490
2510
4610
0000
0FE0
0820
0820
0FE0
0820
ENDCHAR
STARTCHAR 02-04-08
ENCODING 9256
SWIDTH 960 0
DWIDTH 14 0
BBX 14 14 0 -2
BITMAP
00A0
00A0
78A0
4FBC
48A0
48A0
4FBC
48A0
48A0
4BBC
7CA0
4920
4220
0420
ENDCHAR
STARTCHAR 02-04-09
ENCODING 9257
SWIDTH 960 0
DWIDTH 14 0
BBX 14 14 0 -2
BITMAP
0040
0080
7BF8
4A48
4BF8
4A48
4A48
4BF8
48A0
4920
7FFC
4820
4020
0020
ENDCHAR
STARTCHAR 02-04-10
ENCODING 9258
SWIDTH 960 0
DWIDTH 14 0
BBX 14 14 0 -2
BITMAP
0000
7FFC
0200
1FF0
1FF0
1010
1FF0
0280
0FE0
701C
0FE0
0820
0FE0
0820
ENDCHAR
STARTCHAR 02-04-11
ENCODING 9259
SWIDTH 960 0
DWIDTH 14 0
BBX 14 14 0 -2
BITMAP
0040
0040
78A0
49F0
4E0C
49F0
4910
49F0
4800
4910
7FFC
4910
4110
0210
ENDCHAR
STARTCHAR 02-04-12
ENCODING 9260
SWIDTH 960 0
DWIDTH 14 0
BBX 14 14 0 -2
BITMAP
0000
03F8
7A48
4BF8
4A48
4BF8
4800
4FFC
4A88
4A50
7A60
4AA0
4310
0E0C
ENDCHAR
STARTCHAR 02-04-13
ENCODING 9261
SWIDTH 960 0
DWIDTH 14 0
BBX 14 14 0 -2
BITMAP
0220
0224
7BB8
4A20
4A24
4BBC
4C40
4BF8
4A08
4BF8
7A08
4A08
43F8
0208
ENDCHAR
STARTCHAR 02-04-14
ENCODING 9262
SWIDTH 960 0
DWIDTH 14 0
BBX 14 14 0 -2
BITMAP
0040
0040
7BF8
4910
48A0
4FFC
4800
49F0
4910
49F0
7910
4910
41F0
0110
ENDCHAR
STARTCHAR 02-04-15
ENCODING 9263
SWIDTH 960 0
DWIDTH 14 0
BBX 14 14 0 -2
BITMAP
0000
0138
7928
4928
4FE8
4938
4928
4BA8
4AB8
4AA8
7BC8
4A48
4088
0118
ENDCHAR
STARTCHAR 02-04-16
ENCODING 9264
SWIDTH 960 0
DWIDTH 14 0
BBX 14 14 0 -2
BITMAP
0110
0110
7FFC
4910
4950
48A0
4B18
4DF4
4800
49F0
7910
4910
41F0
0110
ENDCHAR
STARTCHAR 02-04-17
ENCODING 9265
SWIDTH 960 0
DWIDTH 14 0
BBX 14 14 0 -2
BITMAP
0080
0378
7A28
4AA8
4AA8
4B48
4C58
4BF8
4A48
4BF8
7A48
4A48
43F8
0208
ENDCHAR
STARTCHAR 02-04-18
ENCODING 9266
SWIDTH 960 0
DWIDTH 14 0
BBX 14 14 0 -2
BITMAP
0000
07FC
7808
49C8
4948
49D8
4800
4FFC
4808
49C8
7948
49C8
4148
0018
ENDCHAR
STARTCHAR 02-04-19
ENCODING 9267
SWIDTH 960 0
DWIDTH 14 0
BBX 14 14 0 -2
BITMAP
0000
07C0
0440
07C0
0000
1EF0
1290
1EF0
0100
7FFC
0380
0D60
3118
0100
ENDCHAR
STARTCHAR 02-04-20
ENCODING 9268
SWIDTH 960 0
DWIDTH 14 0
BBX 14 14 0 -2
BITMAP
0040
03F8
7840
49F0
4840
4FFC
48A0
4B20
48C8
4FF4
7950
4948
4248
0040
ENDCHAR
STARTCHAR 02-04-21
ENCODING 9269
SWIDTH 960 0
DWIDTH 14 0
BBX 14 14 0 -2
BITMAP
01E0
0120
7A10
4FF8
4804
49E0
4920
4910
4BF8
4EAC
7AA8
42A8
47FC
0000
ENDCHAR
STARTCHAR 02-04-22
ENCODING 9270
SWIDTH 960 0
DWIDTH 14 0
BBX 14 14 0 -2
BITMAP
0040
0040
73F8
5040
57FC
5120
5110
57F8
5008
53F8
72A8
02A8
07FC
0000
ENDCHAR
STARTCHAR 02-04-23
ENCODING 9271
SWIDTH 960 0
DWIDTH 14 0
BBX 14 14 0 -2
BITMAP
0000
03F8
7800
49F0
4910
49F0
4800
4BF8
4AA8
4B38
7AF8
4A48
4248
0258
ENDCHAR
STARTCHAR 02-04-24
ENCODING 9272
SWIDTH 960 0
DWIDTH 14 0
BBX 14 14 0 -2
BITMAP
0000
07FC
78A0
4BF8
4AA8
4AA8
4BF8
4840
4FFC
48E0
7950
4A48
4444
0040
ENDCHAR
STARTCHAR 02-04-25
ENCODING 9273
SWIDTH 960 0
DWIDTH 14 0
BBX 14 14 0 -2
BITMAP
0000
03F8
7A48
4A48
4AA8
4B18
4BF8
4800
4BF8
4AA8
7AA8
4AA8
47FC
0000
ENDCHAR
STARTCHAR 02-04-26
ENCODING 9274
SWIDTH 960 0
DWIDTH 14 0
BBX 14 14 0 -2
BITMAP
0040
0040
7BF8
4840
4FFC
4840
4BF8
4840
4FFC
4840
7AA8
4A84
4494
0070
ENDCHAR
STARTCHAR 02-04-27
ENCODING 9275
SWIDTH 960 0
DWIDTH 14 0
BBX 14 14 0 -2
BITMAP
0040
0150
7948
4A44
4FFC
4A08
4BF8
4A08
4BF8
4A08
7BF8
48B0
4308
0C04
ENDCHAR
STARTCHAR 02-04-28
ENCODING 9276
SWIDTH 960 0
DWIDTH 14 0
BBX 14 14 0 -2
BITMAP
0040
03F8
7848
4FFC
4848
4BF8
4A48
4B58
4AE8
4BF8
7AE8
4B58
4258
0448
ENDCHAR
STARTCHAR 02-04-29
ENCODING 9277
SWIDTH 960 0
DWIDTH 14 0
BBX 14 14 0 -2
BITMAP
0390
0090
7AE4
4928
4950
4A48
4FFC
4A48
4A48
4BF8
7A50
4848
407C
0384
ENDCHAR
STARTCHAR 02-04-30
ENCODING 9278
SWIDTH 960 0
DWIDTH 14 0
BBX 14 14 0 -2
BITMAP
0040
0090
7BF8
4910
4998
4A64
4FFC
48A0
4B50
4DAC
7848
4990
4060
0380
ENDCHAR
STARTCHAR 02-04-31
ENCODING 9279
SWIDTH 960 0
DWIDTH 14 0
BBX 14 14 0 -2
BITMAP
0000
07F8
7998
4AA8
4DD8
4AA8
4CC8
49B0
4E4C
49A0
7848
4990
4060
0380
ENDCHAR
STARTCHAR 02-04-32
ENCODING 9280
SWIDTH 960 0
DWIDTH 14 0
BBX 14 14 0 -2
BITMAP
0148
0148
7EF4
4AD4
4948
4AD4
4FFC
4850
4BFC
4A28
7B28
4490
443C
08C4
ENDCHAR
STARTCHAR 02-04-33
ENCODING 9281
SWIDTH 960 0
DWIDTH 14 0
BBX 14 14 0 -2
BITMAP
0040
01F0
7910
49F0
49F0
4910
49F0
4B58
4840
4B58
7840
47FC
4040
0040
ENDCHAR
STARTCHAR 02-04-34
ENCODING 9282
SWIDTH 960 0
DWIDTH 14 0
BBX 14 14 0 -2
BITMAP
0000
07BC
74A4
57BC
54A4
57BC
5404
55F4
5514
75F4
5514
45F4
0514
040C
ENDCHAR
STARTCHAR 02-04-35
ENCODING 9283
SWIDTH 960 0
DWIDTH 14 0
BBX 14 14 0 -2
BITMAP
0000
03B8
7AA8
4BB8
4800
4BF8
4A48
4BF8
4A48
4BF8
7840
47FC
4040
0040
ENDCHAR
STARTCHAR 02-04-36
ENCODING 9284
SWIDTH 960 0
DWIDTH 14 0
BBX 14 14 0 -2
BITMAP
0000
03F8
7B58
4AD8
4AE8
4BF8
4840
4BF8
4840
4FFC
7800
4B48
42A4
04A4
ENDCHAR
STARTCHAR 02-04-37
ENCODING 9285
SWIDTH 960 0
DWIDTH 14 0
BBX 14 14 0 -2
BITMAP
0000
07F8
7CC8
4FF8
4C40
4CC8
4BB8
4920
4BF8
4920
7FFC
4910
4208
0408
ENDCHAR
STARTCHAR 02-04-38
ENCODING 9286
SWIDTH 960 0
DWIDTH 14 0
BBX 14 14 0 -2
BITMAP
0040
03F8
7910
4FFC
4BF8
4A48
4BF8
4A48
4BF8
4840
7BF8
4840
47FC
0000
ENDCHAR
STARTCHAR 02-04-39
ENCODING 9287
SWIDTH 960 0
DWIDTH 14 0
BBX 14 14 0 -2
BITMAP
0040
0040
78A0
4910
4BF8
4C04
4BB8
4AA8
4AA8
4BB8
7910
4998
4264
0444
ENDCHAR
STARTCHAR 02-04-40
ENCODING 9288
SWIDTH 960 0
DWIDTH 14 0
BBX 14 14 0 -2
BITMAP
0420
02F8
7A20
49FC
4C88
4A50
4BFC
4820
4EF8
4A20
7BFC
4220
4520
08FC
ENDCHAR
STARTCHAR 02-04-41
ENCODING 9289
SWIDTH 960 0
DWIDTH 14 0
BBX 14 14 0 -2
BITMAP
0120
0220
77A0
54A0
57FC
54C8
57A8
5228
5FE8
7390
4490
04A8
0B48
1084
ENDCHAR
STARTCHAR 02-04-42
ENCODING 9290
SWIDTH 960 0
DWIDTH 14 0
BBX 14 14 0 -2
BITMAP
0480
049C
7940
5120
53FC
5488
5FE8
5488
56A8
75C8
4588
04E8
0708
0418
ENDCHAR
STARTCHAR 02-04-43
ENCODING 9291
SWIDTH 960 0
DWIDTH 14 0
BBX 14 14 0 -2
BITMAP
0000
07FC
7400
5798
5794
56FC
5790
5410
5790
7690
47A8
0BA8
0AA8
13C4
ENDCHAR
STARTCHAR 02-04-44
ENCODING 9292
SWIDTH 960 0
DWIDTH 14 0
BBX 14 14 0 -2
BITMAP
0040
0040
7FFC
4CA4
4BF8
4AE8
4BF8
4C44
4908
49F8
7908
49F8
4208
0408
ENDCHAR
STARTCHAR 02-04-45
ENCODING 9293
SWIDTH 960 0
DWIDTH 14 0
BBX 14 14 0 -2
BITMAP
0040
00F0
7B20
49F8
4948
49F8
49F8
49A8
4E54
49F8
79F8
4908
41F8
0108
ENDCHAR
STARTCHAR 02-04-46
ENCODING 9294
SWIDTH 960 0
DWIDTH 14 0
BBX 14 14 0 -2
BITMAP
0000
3EF8
2288
3EF8
3FF8
2100
3FF0
2010
3FF0
2100
3FF8
3EF8
2288
3EF8
ENDCHAR
STARTCHAR 02-04-47
ENCODING 9295
SWIDTH 960 0
DWIDTH 14 0
BBX 14 14 0 -2
BITMAP
0020
03FC
7A50
4BFC
4A50
4A70
4BFC
4AF8
4AA8
4AF8
7AA8
44F8
44D0
0B0C
ENDCHAR
STARTCHAR 02-04-48
ENCODING 9296
SWIDTH 960 0
DWIDTH 14 0
BBX 14 14 0 -2
BITMAP
0240
0278
7FC0
5578
5508
5FF8
5040
5F78
5940
7F78
4940
0F78
0944
0B3C
ENDCHAR
STARTCHAR 02-04-49
ENCODING 9297
SWIDTH 960 0
DWIDTH 14 0
BBX 14 14 0 -2
BITMAP
0800
7FFC
0820
3E70
3E68
22A4
3F24
1420
7FF8
0088
3E88
2288
3EF8
2288
ENDCHAR
STARTCHAR 02-04-50
ENCODING 9298
SWIDTH 960 0
DWIDTH 14 0
BBX 14 14 0 -2
BITMAP
0800
09DC
7F54
01DC
3E00
22F8
3EA8
00F8
3EA8
04F8
0E20
79FC
0820
1820
ENDCHAR
STARTCHAR 02-04-51
ENCODING 9299
SWIDTH 960 0
DWIDTH 14 0
BBX 14 14 0 -2
BITMAP
0000
7FF8
5B08
7FF8
0150
3F50
2BF8
3F50
2B50
3FFC
0968
7F50
0968
0AC4
ENDCHAR
STARTCHAR 02-04-52
ENCODING 9300
SWIDTH 960 0
DWIDTH 14 0
BBX 14 14 0 -2
BITMAP
0820
7FFC
0820
3EF8
3EF8
2288
3EF8
1450
7FFC
0000
3EF8
2288
3EF8
2288
ENDCHAR
STARTCHAR 02-04-53
ENCODING 9301
SWIDTH 960 0
DWIDTH 14 0
BBX 14 14 0 -2
BITMAP
0100
0100
0200
1FF8
1028
1428
1248
1148
1188
1248
1C28
1008
1FF8
0000
ENDCHAR
STARTCHAR 02-04-54
ENCODING 9302
SWIDTH 960 0
DWIDTH 14 0
BBX 14 14 0 -2
BITMAP
0000
3FF8
2008
3FF8
2108
2308
23C8
2528
3918
2108
2108
2008
3FF8
2008
ENDCHAR
STARTCHAR 02-04-55
ENCODING 9303
SWIDTH 960 0
DWIDTH 14 0
BBX 14 14 0 -2
BITMAP
0000
3FF8
2108
2108
2288
2448
3938
2108
2FE8
2108
3FF8
2008
3FF8
2008
ENDCHAR
STARTCHAR 02-04-56
ENCODING 9304
SWIDTH 960 0
DWIDTH 14 0
BBX 14 14 0 -2
BITMAP
0000
3FF8
2008
20C8
2F08
2108
3FF8
2388
2548
2928
3118
2108
3FF8
2008
ENDCHAR
STARTCHAR 02-04-57
ENCODING 9305
SWIDTH 960 0
DWIDTH 14 0
BBX 14 14 0 -2
BITMAP
0000
3FF8
2108
27C8
27C8
2448
27C8
2FE8
27C8
2108
3FF8
2008
3FF8
2008
ENDCHAR
STARTCHAR 02-04-58
ENCODING 9306
SWIDTH 960 0
DWIDTH 14 0
BBX 14 14 0 -2
BITMAP
0000
3FF8
2108
2FE8
3FF8
2FE8
2108
2FE8
3FF8
27C8
27C8
2448
3FF8
2008
ENDCHAR
STARTCHAR 02-04-59
ENCODING 9307
SWIDTH 960 0
DWIDTH 14 0
BBX 14 14 0 -2
BITMAP
0000
1FF0
0820
0440
0380
0540
1930
610C
1FF0
0100
0100
0100
3FF8
0000
ENDCHAR
STARTCHAR 02-04-60
ENCODING 9308
SWIDTH 960 0
DWIDTH 14 0
BBX 14 14 0 -2
BITMAP
0080
1080
1080
13F0
7C90
1290
1190
1090
14D0
1950
6110
0114
0214
040C
ENDCHAR
STARTCHAR 02-04-61
ENCODING 9309
SWIDTH 960 0
DWIDTH 14 0
BBX 14 14 0 -2
BITMAP
0000
13F8
1040
1040
7C40
1040
17FC
1040
1440
1840
6040
0040
0040
01C0
ENDCHAR
STARTCHAR 02-04-62
ENCODING 9310
SWIDTH 960 0
DWIDTH 14 0
BBX 14 14 0 -2
BITMAP
0040
1040
13F0
1050
7C54
1094
134C
1040
1440
1BFC
6040
0040
0040
0040
ENDCHAR
STARTCHAR 02-04-63
ENCODING 9311
SWIDTH 960 0
DWIDTH 14 0
BBX 14 14 0 -2
BITMAP
0040
1040
1060
10A0
7C90
1108
12F4
1000
15F8
1810
6020
0020
0040
0040
ENDCHAR
STARTCHAR 02-04-64
ENCODING 9312
SWIDTH 960 0
DWIDTH 14 0
BBX 14 14 0 -2
BITMAP
0080
1080
1080
10FC
7D10
1190
1290
1050
1460
1820
6060
0090
0308
0C04
ENDCHAR
STARTCHAR 02-04-65
ENCODING 9313
SWIDTH 960 0
DWIDTH 14 0
BBX 14 14 0 -2
BITMAP
07C0
0840
1030
3FE8
4224
0220
0420
08C0
3100
0100
1FF0
0100
0100
7FFC
ENDCHAR
STARTCHAR 02-04-66
ENCODING 9314
SWIDTH 960 0
DWIDTH 14 0
BBX 14 14 0 -2
BITMAP
0000
11F0
1110
1190
7D50
1150
1110
17FC
1510
1910
6110
0210
0210
0430
ENDCHAR
STARTCHAR 02-04-67
ENCODING 9315
SWIDTH 960 0
DWIDTH 14 0
BBX 14 14 0 -2
BITMAP
000C
11F0
1100
11F8
7D08
1108
1108
11F8
1508
1900
6100
0200
0200
0400
ENDCHAR
STARTCHAR 02-04-68
ENCODING 9316
SWIDTH 960 0
DWIDTH 14 0
BBX 14 14 0 -2
BITMAP
0020
1020
11FC
1108
7E80
1080
1088
1090
14E0
1880
6080
0084
0084
007C
ENDCHAR
STARTCHAR 02-04-69
ENCODING 9317
SWIDTH 960 0
DWIDTH 14 0
BBX 14 14 0 -2
BITMAP
0000
13FC
1020
1020
7C40
1060
10D0
1148
1644
1844
6040
0040
03FC
0000
ENDCHAR
STARTCHAR 02-04-70
ENCODING 9318
SWIDTH 960 0
DWIDTH 14 0
BBX 14 14 0 -2
BITMAP
0220
1220
1220
14A0
7CF8
1528
1528
1228
1328
1CA8
65C8
0648
0888
0110
ENDCHAR
STARTCHAR 02-04-71
ENCODING 9319
SWIDTH 960 0
DWIDTH 14 0
BBX 14 14 0 -2
BITMAP
0100
0100
1FF0
0100
3FF8
0240
0448
3938
0100
1FF0
0100
0100
7FFC
0000
ENDCHAR
STARTCHAR 02-04-72
ENCODING 9320
SWIDTH 960 0
DWIDTH 14 0
BBX 14 14 0 -2
BITMAP
0010
1020
11C0
1100
7D00
11F8
1120
1120
1520
1920
6120
0120
07FC
0000
ENDCHAR
STARTCHAR 02-04-73
ENCODING 9321
SWIDTH 960 0
DWIDTH 14 0
BBX 14 14 0 -2
BITMAP
0018
11E0
1120
1120
7D20
11FC
1120
1120
1520
19D0
6614
000C
07FC
0004
ENDCHAR
STARTCHAR 02-04-74
ENCODING 9322
SWIDTH 960 0
DWIDTH 14 0
BBX 14 14 0 -2
BITMAP
0000
11F8
1108
1108
7DF8
1128
1120
1210
12C8
1C24
6000
0380
0060
0010
ENDCHAR
STARTCHAR 02-04-75
ENCODING 9323
SWIDTH 960 0
DWIDTH 14 0
BBX 14 14 0 -2
BITMAP
0040
1040
10A0
1090
7D08
12F4
1000
1000
13FC
1CA0
6090
0130
03C8
0008
ENDCHAR
STARTCHAR 02-04-76
ENCODING 9324
SWIDTH 960 0
DWIDTH 14 0
BBX 14 14 0 -2
BITMAP
0120
1120
1120
13F8
7D20
1120
1120
1120
17FC
1800
6120
0110
0208
0408
ENDCHAR
STARTCHAR 02-04-77
ENCODING 9325
SWIDTH 960 0
DWIDTH 14 0
BBX 14 14 0 -2
BITMAP
0100
0100
1FF0
0100
0100
3FF8
0000
0820
0820
3EF8
0820
0E20
71FC
0000
ENDCHAR
STARTCHAR 02-04-78
ENCODING 9326
SWIDTH 960 0
DWIDTH 14 0
BBX 14 14 0 -2
BITMAP
0080
10F8
1110
1220
7FFC
1200
12F8
1288
1688
1A88
62B0
0484
0484
087C
ENDCHAR
STARTCHAR 02-04-79
ENCODING 9327
SWIDTH 960 0
DWIDTH 14 0
BBX 14 14 0 -2
BITMAP
0040
1040
13FC
1208
7C30
13C0
1080
1080
14FC
1B80
6080
0084
0084
007C
ENDCHAR
STARTCHAR 02-04-80
ENCODING 9328
SWIDTH 960 0
DWIDTH 14 0
BBX 14 14 0 -2
BITMAP
0040
1040
13FC
1208
7C10
1010
13FC
1010
1510
1890
6090
0010
0010
0030
ENDCHAR
STARTCHAR 02-04-81
ENCODING 9329
SWIDTH 960 0
DWIDTH 14 0
BBX 14 14 0 -2
BITMAP
0040
1040
1178
1140
7D40
13FC
1040
1148
1150
1AD0
6420
0040
0180
0600
ENDCHAR
STARTCHAR 02-04-82
ENCODING 9330
SWIDTH 960 0
DWIDTH 14 0
BBX 14 14 0 -2
BITMAP
0040
1040
13F8
1040
7C40
13FC
10A0
12A8
12A8
1AA4
64A4
0120
0120
0260
ENDCHAR
STARTCHAR 02-04-83
ENCODING 9331
SWIDTH 960 0
DWIDTH 14 0
BBX 14 14 0 -2
BITMAP
0040
1040
11F8
1108
7DF8
1108
1108
11F8
1524
1924
6118
0150
0188
0604
ENDCHAR
STARTCHAR 02-04-84
ENCODING 9332
SWIDTH 960 0
DWIDTH 14 0
BBX 14 14 0 -2
BITMAP
0110
1090
10A0
17FC
7CA0
10A0
14A8
12A8
12A8
1AB0
60A0
00A0
07FC
0000
ENDCHAR
STARTCHAR 02-04-85
ENCODING 9333
SWIDTH 960 0
DWIDTH 14 0
BBX 14 14 0 -2
BITMAP
0000
11F8
1108
1108
7DF8
1128
1120
11FC
1520
19F8
6288
0288
04F8
0888
ENDCHAR
STARTCHAR 02-04-86
ENCODING 9334
SWIDTH 960 0
DWIDTH 14 0
BBX 14 14 0 -2
BITMAP
0040
1040
13FC
1208
7C00
13FC
1040
1140
1578
1940
6140
0340
04C0
083C
ENDCHAR
STARTCHAR 02-04-87
ENCODING 9335
SWIDTH 960 0
DWIDTH 14 0
BBX 14 14 0 -2
BITMAP
0040
1040
13FC
1208
7D00
11F8
1168
1168
12E8
1AB8
60A0
0124
0224
041C
ENDCHAR
STARTCHAR 02-04-88
ENCODING 9336
SWIDTH 960 0
DWIDTH 14 0
BBX 14 14 0 -2
BITMAP
0008
1030
13C8
1124
7D24
1240
1040
17FC
14E0
18E0
6150
0248
0444
0040
ENDCHAR
STARTCHAR 02-04-89
ENCODING 9337
SWIDTH 960 0
DWIDTH 14 0
BBX 14 14 0 -2
BITMAP
0000
11F8
1100
11F0
7D00
11F0
1100
17FC
1548
1950
6120
0150
0188
0604
ENDCHAR
STARTCHAR 02-04-90
ENCODING 9338
SWIDTH 960 0
DWIDTH 14 0
BBX 14 14 0 -2
BITMAP
0000
11F8
1108
11F8
7D08
11F8
1080
11FC
1554
1A54
6094
0124
0044
0018
ENDCHAR
STARTCHAR 02-04-91
ENCODING 9339
SWIDTH 960 0
DWIDTH 14 0
BBX 14 14 0 -2
BITMAP
0040
17FC
1000
11F0
7D10
11F0
1000
13F8
1010
1860
67FC
0040
0040
00C0
ENDCHAR
STARTCHAR 02-04-92
ENCODING 9340
SWIDTH 960 0
DWIDTH 14 0
BBX 14 14 0 -2
BITMAP
0000
11F0
1010
13FC
7C10
11F0
1000
13FC
1448
1BF8
6248
0248
0270
0040
ENDCHAR
STARTCHAR 02-04-93
ENCODING 9341
SWIDTH 960 0
DWIDTH 14 0
BBX 14 14 0 -2
BITMAP
0080
1338
1208
1208
7FB8
1208
1208
13F8
16A8
18A0
6120
0124
0224
041C
ENDCHAR
STARTCHAR 02-04-94
ENCODING 9342
SWIDTH 960 0
DWIDTH 14 0
BBX 14 14 0 -2
BITMAP
0150
1150
13FC
1150
7D50
1170
1100
11F8
1040
1FFC
60E0
0150
064C
0040
ENDCHAR
STARTCHAR 02-05-01
ENCODING 9505
SWIDTH 960 0
DWIDTH 14 0
BBX 14 14 0 -2
BITMAP
0100
11F0
1110
13FC
7E40
1240
12FC
12A0
1720
1BFC
6220
0250
0288
0304
ENDCHAR
STARTCHAR 02-05-02
ENCODING 9506
SWIDTH 960 0
DWIDTH 14 0
BBX 14 14 0 -2
BITMAP
0000
17FC
1040
13F8
7EA8
12A8
12A8
1218
1440
1840
67FC
00A0
0110
060C
ENDCHAR
STARTCHAR 02-05-03
ENCODING 9507
SWIDTH 960 0
DWIDTH 14 0
BBX 14 14 0 -2
BITMAP
0800
3EF8
2288
3E88
3E88
2688
3888
22B0
1E80
0100
1FF0
0100
7FFC
0000
ENDCHAR
STARTCHAR 02-05-04
ENCODING 9508
SWIDTH 960 0
DWIDTH 14 0
BBX 14 14 0 -2
BITMAP
0030
11C0
17FC
1040
7DF8
1148
11F8
1148
15F8
1840
61F8
0040
07FC
0000
ENDCHAR
STARTCHAR 02-05-05
ENCODING 9509
SWIDTH 960 0
DWIDTH 14 0
BBX 14 14 0 -2
BITMAP
0000
3CF0
0090
7EF0
0890
2AF0
2A90
2A90
4BFC
0100
1FF8
0100
7FFC
0000
ENDCHAR
STARTCHAR 02-05-06
ENCODING 9510
SWIDTH 960 0
DWIDTH 14 0
BBX 14 14 0 -2
BITMAP
0040
1358
1040
1358
7CA0
1110
13F8
1514
15F0
1910
61F0
0110
0110
0130
ENDCHAR
STARTCHAR 02-05-07
ENCODING 9511
SWIDTH 960 0
DWIDTH 14 0
BBX 14 14 0 -2
BITMAP
0000
11F0
1110
11F0
7D10
11F0
1000
13F8
1598
1AA8
61D8
02A8
04C8
0198
ENDCHAR
STARTCHAR 02-05-08
ENCODING 9512
SWIDTH 960 0
DWIDTH 14 0
BBX 14 14 0 -2
BITMAP
01E0
1120
1210
13F8
7C04
11E0
1120
1110
13F8
1EAC
62A8
02A8
07FC
0000
ENDCHAR
STARTCHAR 02-05-09
ENCODING 9513
SWIDTH 960 0
DWIDTH 14 0
BBX 14 14 0 -2
BITMAP
0840
3E40
09F0
7E50
24D0
7E50
08B4
3E94
090C
0100
1FF0
0100
7FFC
0000
ENDCHAR
STARTCHAR 02-05-10
ENCODING 9514
SWIDTH 960 0
DWIDTH 14 0
BBX 14 14 0 -2
BITMAP
0040
1090
13F8
1110
7D98
1264
17FC
10A0
1750
19AC
6048
0190
0060
0380
ENDCHAR
STARTCHAR 02-05-11
ENCODING 9515
SWIDTH 960 0
DWIDTH 14 0
BBX 14 14 0 -2
BITMAP
0800
3EFC
2250
3E50
3EFC
2630
3850
2254
1E8C
0100
1FF0
0100
7FFC
0000
ENDCHAR
STARTCHAR 02-05-12
ENCODING 9516
SWIDTH 960 0
DWIDTH 14 0
BBX 14 14 0 -2
BITMAP
2420
2478
3FC8
0570
7FD0
17FC
1510
2490
4430
0100
1FF8
0100
7FFC
0000
ENDCHAR
STARTCHAR 02-05-13
ENCODING 9517
SWIDTH 960 0
DWIDTH 14 0
BBX 14 14 0 -2
BITMAP
0120
17FC
1120
11E0
7FF8
1248
13F8
1040
17F8
1840
63F8
0040
07FC
0000
ENDCHAR
STARTCHAR 02-05-14
ENCODING 9518
SWIDTH 960 0
DWIDTH 14 0
BBX 14 14 0 -2
BITMAP
0040
1248
1248
13F8
7E98
1120
13FC
1220
17F8
1A20
63F8
0220
03FC
0200
ENDCHAR
STARTCHAR 02-05-15
ENCODING 9519
SWIDTH 960 0
DWIDTH 14 0
BBX 14 14 0 -2
BITMAP
0040
13F8
1040
13FC
7D10
13B8
1110
11FC
1600
1BFC
60A0
00A4
0124
061C
ENDCHAR
STARTCHAR 02-05-16
ENCODING 9520
SWIDTH 960 0
DWIDTH 14 0
BBX 14 14 0 -2
BITMAP
0840
0840
7F40
3EFC
3E88
3F48
0450
7E20
0850
198C
0100
1FF0
0100
7FFC
ENDCHAR
STARTCHAR 02-05-17
ENCODING 9521
SWIDTH 960 0
DWIDTH 14 0
BBX 14 14 0 -2
BITMAP
01A0
10A8
1290
1114
7FF8
1208
15F4
1110
1510
19F0
6110
00A0
03FC
0000
ENDCHAR
STARTCHAR 02-05-18
ENCODING 9522
SWIDTH 960 0
DWIDTH 14 0
BBX 14 14 0 -2
BITMAP
0040
10A0
1110
17FC
7FF8
1248
1358
1358
13F8
1800
71F0
01F0
0110
01F0
ENDCHAR
STARTCHAR 02-05-19
ENCODING 9523
SWIDTH 960 0
DWIDTH 14 0
BBX 14 14 0 -2
BITMAP
0000
17FC
1000
11F0
7DF0
1150
17FC
1000
11F0
1950
61F0
01F0
0000
07FC
ENDCHAR
STARTCHAR 02-05-20
ENCODING 9524
SWIDTH 960 0
DWIDTH 14 0
BBX 14 14 0 -2
BITMAP
2204
1FD8
4220
2FBC
2FA8
0AA8
1FA8
2228
3FA8
4248
1FF0
0100
7FFC
0000
ENDCHAR
STARTCHAR 02-05-21
ENCODING 9525
SWIDTH 960 0
DWIDTH 14 0
BBX 14 14 0 -2
BITMAP
0000
17FC
15F8
1490
7FFC
15F0
16D8
1494
1440
1D78
6540
0940
0FFC
0000
ENDCHAR
STARTCHAR 02-05-22
ENCODING 9526
SWIDTH 960 0
DWIDTH 14 0
BBX 14 14 0 -2
BITMAP
0100
0100
7FFC
0100
1FF0
0000
3FFC
2008
5FF0
0000
07C0
0448
0848
3038
ENDCHAR
STARTCHAR 02-05-23
ENCODING 9527
SWIDTH 960 0
DWIDTH 14 0
BBX 14 14 0 -2
BITMAP
0100
0100
7FFC
0100
1FF0
0000
1FF0
1010
1FF0
0820
0420
0440
7FFC
0000
ENDCHAR
STARTCHAR 02-05-24
ENCODING 9528
SWIDTH 960 0
DWIDTH 14 0
BBX 14 14 0 -2
BITMAP
0200
0200
07E0
0C40
3480
0380
0D60
711C
0FE0
0900
0900
3FF8
0100
0100
ENDCHAR
STARTCHAR 02-05-25
ENCODING 9529
SWIDTH 960 0
DWIDTH 14 0
BBX 14 14 0 -2
BITMAP
0200
0200
07E0
0C40
3480
0380
0D60
77DC
0100
0FE0
0100
3FF8
0100
0100
ENDCHAR
STARTCHAR 02-05-26
ENCODING 9530
SWIDTH 960 0
DWIDTH 14 0
BBX 14 14 0 -2
BITMAP
0200
0240
0470
1F88
0440
0448
0A38
33E0
0420
0640
1980
0180
0660
3818
ENDCHAR
STARTCHAR 02-05-27
ENCODING 9531
SWIDTH 960 0
DWIDTH 14 0
BBX 14 14 0 -2
BITMAP
0800
0800
0FF8
17E0
2420
07E0
0420
07E0
0200
07E0
1A40
0180
06C0
3838
ENDCHAR
STARTCHAR 02-05-28
ENCODING 9532
SWIDTH 960 0
DWIDTH 14 0
BBX 14 14 0 -2
BITMAP
0820
0440
7FFC
0938
2FE8
2BF8
2FE4
73DC
0C48
3238
0FE0
3440
0380
7C7C
ENDCHAR
STARTCHAR 02-05-29
ENCODING 9533
SWIDTH 960 0
DWIDTH 14 0
BBX 14 14 0 -2
BITMAP
01F0
0610
1960
0380
3FFC
2008
5FF0
0100
1FF0
1110
1FF0
1FF0
0640
3838
ENDCHAR
STARTCHAR 02-05-30
ENCODING 9534
SWIDTH 960 0
DWIDTH 14 0
BBX 14 14 0 -2
BITMAP
0000
0100
0100
3FF8
0100
1FF0
0280
7FFC
0440
1830
600C
0000
0000
0000
ENDCHAR
STARTCHAR 02-05-31
ENCODING 9535
SWIDTH 960 0
DWIDTH 14 0
BBX 14 14 0 -2
BITMAP
0000
1FF0
0010
7FFC
0010
0010
1FF0
0100
0100
7FFC
0280
0440
1830
600C
ENDCHAR
STARTCHAR 02-05-32
ENCODING 9536
SWIDTH 960 0
DWIDTH 14 0
BBX 14 14 0 -2
BITMAP
0100
0100
7FFC
0280
0440
1830
67CC
0000
0000
3FF8
0440
08F0
3F08
0008
ENDCHAR
STARTCHAR 02-05-33
ENCODING 9537
SWIDTH 960 0
DWIDTH 14 0
BBX 14 14 0 -2
BITMAP
1000
10F8
7E88
1288
1288
22F8
4C88
0100
0100
7FFC
0280
0440
1830
600C
ENDCHAR
STARTCHAR 02-05-34
ENCODING 9538
SWIDTH 960 0
DWIDTH 14 0
BBX 14 14 0 -2
BITMAP
0100
0100
7FFC
0280
0440
1830
7FCC
1000
1FF0
1010
1FF0
1000
1000
3FF8
ENDCHAR
STARTCHAR 02-05-35
ENCODING 9539
SWIDTH 960 0
DWIDTH 14 0
BBX 14 14 0 -2
BITMAP
0100
0200
0FE0
0820
0FE0
0820
0820
0FE0
0100
7FFC
0280
0440
1830
600C
ENDCHAR
STARTCHAR 02-05-36
ENCODING 9540
SWIDTH 960 0
DWIDTH 14 0
BBX 14 14 0 -2
BITMAP
0440
0440
3FF8
0440
1FF0
1110
1FF0
0100
1FF0
0100
3FF8
0280
0C60
3018
ENDCHAR
STARTCHAR 02-05-37
ENCODING 9541
SWIDTH 960 0
DWIDTH 14 0
BBX 14 14 0 -2
BITMAP
0100
0100
7FFC
0280
0C60
701C
3CF8
2488
3CF8
2488
24F8
3D08
2508
0218
ENDCHAR
STARTCHAR 02-05-38
ENCODING 9542
SWIDTH 960 0
DWIDTH 14 0
BBX 14 14 0 -2
BITMAP
0100
0100
7FFC
0280
0C60
701C
1E78
1248
1A68
1658
1A68
2698
2288
4718
ENDCHAR
STARTCHAR 02-05-39
ENCODING 9543
SWIDTH 960 0
DWIDTH 14 0
BBX 14 14 0 -2
BITMAP
0240
3C40
0840
7FF8
2A48
2A48
7F48
2BFC
2A60
7FA0
0890
0890
0F08
7204
ENDCHAR
STARTCHAR 02-05-40
ENCODING 9544
SWIDTH 960 0
DWIDTH 14 0
BBX 14 14 0 -2
BITMAP
0800
0800
0BFC
0820
7E20
1220
1220
1220
3E20
2420
0620
0A20
1020
2060
ENDCHAR
STARTCHAR 02-05-41
ENCODING 9545
SWIDTH 960 0
DWIDTH 14 0
BBX 14 14 0 -2
BITMAP
0800
0BE0
08A0
08A0
7EA0
12A0
12B8
12A8
3E88
2488
0688
0B08
1108
2230
ENDCHAR
STARTCHAR 02-05-42
ENCODING 9546
SWIDTH 960 0
DWIDTH 14 0
BBX 14 14 0 -2
BITMAP
0808
0830
09C0
0840
7E40
1240
127C
13C0
3E40
2440
0640
0A44
1044
203C
ENDCHAR
STARTCHAR 02-05-43
ENCODING 9547
SWIDTH 960 0
DWIDTH 14 0
BBX 14 14 0 -2
BITMAP
0000
1FF0
1010
1FF0
1010
1010
1FF0
1210
0200
7FFC
0440
0F80
0360
3C10
ENDCHAR
STARTCHAR 02-05-44
ENCODING 9548
SWIDTH 960 0
DWIDTH 14 0
BBX 14 14 0 -2
BITMAP
1000
11F8
1108
1108
7DF8
2508
2540
2548
7950
4960
0D40
1644
2244
443C
ENDCHAR
STARTCHAR 02-05-45
ENCODING 9549
SWIDTH 960 0
DWIDTH 14 0
BBX 14 14 0 -2
BITMAP
0820
0810
0850
0848
7E48
12C8
12D8
12D4
3F54
2564
0660
0A48
10C8
2138
ENDCHAR
STARTCHAR 02-05-46
ENCODING 9550
SWIDTH 960 0
DWIDTH 14 0
BBX 14 14 0 -2
BITMAP
0840
0840
08A0
08A0
7F10
13F8
1204
13F8
3E48
2448
0648
0A70
1040
2040
ENDCHAR
STARTCHAR 02-05-47
ENCODING 9551
SWIDTH 960 0
DWIDTH 14 0
BBX 14 14 0 -2
BITMAP
1000
13F8
12A8
12A8
7EA8
26A8
27FC
26A8
7AA8
4AA8
0EA8
16A8
22A8
4218
ENDCHAR
STARTCHAR 02-05-48
ENCODING 9552
SWIDTH 960 0
DWIDTH 14 0
BBX 14 14 0 -2
BITMAP
0820
0820
0820
09FC
7E20
1220
12F8
1200
3EF8
2488
0688
0A88
10F8
2088
ENDCHAR
STARTCHAR 02-05-49
ENCODING 9553
SWIDTH 960 0
DWIDTH 14 0
BBX 14 14 0 -2
BITMAP
0840
0840
0BFC
0890
7E88
1314
1294
12A0
3E60
2440
06A0
0A90
1108
2204
ENDCHAR
STARTCHAR 02-05-50
ENCODING 9554
SWIDTH 960 0
DWIDTH 14 0
BBX 14 14 0 -2
BITMAP
1018
11E0
1100
1100
7DFC
2500
2500
2578
7948
4948
0D48
1648
2278
4448
ENDCHAR
STARTCHAR 02-05-51
ENCODING 9555
SWIDTH 960 0
DWIDTH 14 0
BBX 14 14 0 -2
BITMAP
0800
09FC
7F20
1220
1220
3C20
0BFC
3920
7F20
1220
1220
3C20
0B20
70A0
ENDCHAR
STARTCHAR 02-05-52
ENCODING 9556
SWIDTH 960 0
DWIDTH 14 0
BBX 14 14 0 -2
BITMAP
0800
0BFC
0800
08F0
7E90
1290
12F0
1290
3E90
24F0
0690
0A00
13FC
2000
ENDCHAR
STARTCHAR 02-05-53
ENCODING 9557
SWIDTH 960 0
DWIDTH 14 0
BBX 14 14 0 -2
BITMAP
0800
09F8
0888
0888
7F30
1200
13F8
1348
3F48
25F8
0708
0B04
1104
20FC
ENDCHAR
STARTCHAR 02-05-54
ENCODING 9558
SWIDTH 960 0
DWIDTH 14 0
BBX 14 14 0 -2
BITMAP
1290
1290
1290
1290
7FFC
2490
2490
2790
7A90
4A90
0E90
1690
22FC
4480
ENDCHAR
STARTCHAR 02-05-55
ENCODING 9559
SWIDTH 960 0
DWIDTH 14 0
BBX 14 14 0 -2
BITMAP
0850
0848
0848
09FC
7E40
1348
12E8
12F0
3E50
24D0
0748
0A44
1040
20C0
ENDCHAR
STARTCHAR 02-05-56
ENCODING 9560
SWIDTH 960 0
DWIDTH 14 0
BBX 14 14 0 -2
BITMAP
0800
09F8
0948
0948
7FF8
1348
1348
13F8
3E40
25F8
0640
0A40
13FC
2000
ENDCHAR
STARTCHAR 02-05-57
ENCODING 9561
SWIDTH 960 0
DWIDTH 14 0
BBX 14 14 0 -2
BITMAP
1020
1028
1024
11FC
7D20
2528
25E8
2568
7950
4950
0D54
16EC
224C
4484
ENDCHAR
STARTCHAR 02-05-58
ENCODING 9562
SWIDTH 960 0
DWIDTH 14 0
BBX 14 14 0 -2
BITMAP
1000
178C
10F0
1110
7D10
2790
24FC
2690
7A90
4910
0D7C
1680
2260
441C
ENDCHAR
STARTCHAR 02-05-59
ENCODING 9563
SWIDTH 960 0
DWIDTH 14 0
BBX 14 14 0 -2
BITMAP
0870
0890
0888
0904
7EF8
1288
1288
1288
3EF8
2450
0650
0A94
1114
220C
ENDCHAR
STARTCHAR 02-05-60
ENCODING 9564
SWIDTH 960 0
DWIDTH 14 0
BBX 14 14 0 -2
BITMAP
0840
0840
0850
0888
7FF4
1280
1280
12F8
3F20
25FC
0620
0A50
1088
2104
ENDCHAR
STARTCHAR 02-05-61
ENCODING 9565
SWIDTH 960 0
DWIDTH 14 0
BBX 14 14 0 -2
BITMAP
1040
13FC
1040
11F8
7C48
27FC
2448
25F8
7840
4978
0D40
1540
22C0
443C
ENDCHAR
STARTCHAR 02-05-62
ENCODING 9566
SWIDTH 960 0
DWIDTH 14 0
BBX 14 14 0 -2
BITMAP
0820
0820
083C
0820
7EF8
1288
12F8
1288
3EF8
2420
07FC
0A20
1020
2020
ENDCHAR
STARTCHAR 02-05-63
ENCODING 9567
SWIDTH 960 0
DWIDTH 14 0
BBX 14 14 0 -2
BITMAP
0040
3E7C
14D0
7F70
1BAC
2CF8
4848
1998
0200
7FFC
0440
0F80
0360
3C10
ENDCHAR
STARTCHAR 02-05-64
ENCODING 9568
SWIDTH 960 0
DWIDTH 14 0
BBX 14 14 0 -2
BITMAP
1040
1040
13F8
1040
7DF0
24A0
27FC
2510
79F8
4B14
0DF0
1510
21F0
4110
ENDCHAR
STARTCHAR 02-05-65
ENCODING 9569
SWIDTH 960 0
DWIDTH 14 0
BBX 14 14 0 -2
BITMAP
0840
0840
087C
0840
7EF8
1288
12F8
1288
3EF8
2488
06F8
0A50
1088
2108
ENDCHAR
STARTCHAR 02-05-66
ENCODING 9570
SWIDTH 960 0
DWIDTH 14 0
BBX 14 14 0 -2
BITMAP
08A8
08A8
0BFC
08A8
7EA8
12B8
1280
12FC
3E20
25FC
0670
0AA8
1124
2020
ENDCHAR
STARTCHAR 02-05-67
ENCODING 9571
SWIDTH 960 0
DWIDTH 14 0
BBX 14 14 0 -2
BITMAP
0840
0BFC
0840
08F8
7E90
13FC
1200
12F8
3E88
24F8
0688
0AF8
1088
2098
ENDCHAR
STARTCHAR 02-05-68
ENCODING 9572
SWIDTH 960 0
DWIDTH 14 0
BBX 14 14 0 -2
BITMAP
0800
09FC
0904
0974
7F04
1374
12F8
1288
3EF8
2488
06F8
0A88
10F8
2088
ENDCHAR
STARTCHAR 02-05-69
ENCODING 9573
SWIDTH 960 0
DWIDTH 14 0
BBX 14 14 0 -2
BITMAP
0840
0878
08C8
0930
7EA0
12C0
1300
13F8
3E40
25FC
0748
0B48
11F8
2108
ENDCHAR
STARTCHAR 02-05-70
ENCODING 9574
SWIDTH 960 0
DWIDTH 14 0
BBX 14 14 0 -2
BITMAP
0820
0840
08F8
0888
7EF8
1288
12F8
1288
3EF8
2440
06A8
0BA4
1194
2270
ENDCHAR
STARTCHAR 02-05-71
ENCODING 9575
SWIDTH 960 0
DWIDTH 14 0
BBX 14 14 0 -2
BITMAP
0040
3D50
2648
27F8
2440
3FFC
24A0
2550
3E48
27F4
2490
25E0
2450
4F88
ENDCHAR
STARTCHAR 02-05-72
ENCODING 9576
SWIDTH 960 0
DWIDTH 14 0
BBX 14 14 0 -2
BITMAP
1220
16A0
16A0
16A0
7FFC
2848
28C8
2FE8
2B28
7330
1590
1530
29C8
4004
ENDCHAR
STARTCHAR 02-05-73
ENCODING 9577
SWIDTH 960 0
DWIDTH 14 0
BBX 14 14 0 -2
BITMAP
0840
0880
09F8
0948
7FF8
1348
13F8
1368
3E70
24B0
06A8
0ABC
1124
221C
ENDCHAR
STARTCHAR 02-05-74
ENCODING 9578
SWIDTH 960 0
DWIDTH 14 0
BBX 14 14 0 -2
BITMAP
0800
08F8
0888
08F8
7E88
12F8
13FC
1354
3DFC
24F8
0650
0A20
1070
218C
ENDCHAR
STARTCHAR 02-05-75
ENCODING 9579
SWIDTH 960 0
DWIDTH 14 0
BBX 14 14 0 -2
BITMAP
0820
09FC
0850
09FC
7E00
12F8
1288
12F8
3E88
24F8
0620
0BFC
1020
2020
ENDCHAR
STARTCHAR 02-05-76
ENCODING 9580
SWIDTH 960 0
DWIDTH 14 0
BBX 14 14 0 -2
BITMAP
0840
3E7C
7FD0
1C20
2A50
498C
1FFC
1100
1FFC
1220
2220
27C0
41B0
1E08
ENDCHAR
STARTCHAR 02-05-77
ENCODING 9581
SWIDTH 960 0
DWIDTH 14 0
BBX 14 14 0 -2
BITMAP
0820
09FC
0820
08F8
7EF8
12A8
12F8
12A8
3FFC
2414
07FC
0A90
1050
2030
ENDCHAR
STARTCHAR 02-05-78
ENCODING 9582
SWIDTH 960 0
DWIDTH 14 0
BBX 14 14 0 -2
BITMAP
1220
1220
1FE0
1220
7FFC
2ED4
2E98
2E90
2F90
7730
16A8
1AA8
2A44
4284
ENDCHAR
STARTCHAR 02-05-79
ENCODING 9583
SWIDTH 960 0
DWIDTH 14 0
BBX 14 14 0 -2
BITMAP
1000
11F8
1040
13FC
7F58
2550
25F8
2400
7BFC
4840
0CF8
1508
2008
4030
ENDCHAR
STARTCHAR 02-05-80
ENCODING 9584
SWIDTH 960 0
DWIDTH 14 0
BBX 14 14 0 -2
BITMAP
1080
1080
1080
11FC
7F58
2558
27FC
2558
7958
4BFC
0C00
16A8
2254
4454
ENDCHAR
STARTCHAR 02-05-81
ENCODING 9585
SWIDTH 960 0
DWIDTH 14 0
BBX 14 14 0 -2
BITMAP
1018
11F0
1148
1228
7DF0
2490
2490
25F8
7908
4BFC
0D54
16AC
2204
4018
ENDCHAR
STARTCHAR 02-05-82
ENCODING 9586
SWIDTH 960 0
DWIDTH 14 0
BBX 14 14 0 -2
BITMAP
1040
11F8
1040
13FC
7D10
27BC
2510
25BC
7B00
4BFC
0CA0
14A0
2124
421C
ENDCHAR
STARTCHAR 02-05-83
ENCODING 9587
SWIDTH 960 0
DWIDTH 14 0
BBX 14 14 0 -2
BITMAP
1040
17FC
13F8
12E8
7EA8
26E8
27F8
25F0
7910
49F0
0D10
15F0
2000
47FC
ENDCHAR
STARTCHAR 02-05-84
ENCODING 9588
SWIDTH 960 0
DWIDTH 14 0
BBX 14 14 0 -2
BITMAP
0100
3FFC
2000
1FF0
1FF0
1010
1FF0
3978
2928
3FE8
2AB8
3BAC
294C
5A84
ENDCHAR
STARTCHAR 02-05-85
ENCODING 9589
SWIDTH 960 0
DWIDTH 14 0
BBX 14 14 0 -2
BITMAP
1000
17FC
1150
124C
7FF8
26D8
27F8
26D8
7B68
4AD8
0FF8
16D8
2368
4258
ENDCHAR
STARTCHAR 02-05-86
ENCODING 9590
SWIDTH 960 0
DWIDTH 14 0
BBX 14 14 0 -2
BITMAP
1108
27D0
73B8
2B94
783C
1390
5AB4
5BB4
1210
7FFC
0440
0F80
0360
3C10
ENDCHAR
STARTCHAR 02-05-87
ENCODING 9591
SWIDTH 960 0
DWIDTH 14 0
BBX 14 14 0 -2
BITMAP
0000
3FF0
0020
0040
0080
0100
0100
01FC
0100
0100
0100
0100
0100
0300
ENDCHAR
STARTCHAR 02-05-88
ENCODING 9592
SWIDTH 960 0
DWIDTH 14 0
BBX 14 14 0 -2
BITMAP
0000
0FE0
00C0
3FF8
0100
0100
0300
3EF8
0410
0820
7FFC
0820
0820
1860
ENDCHAR
STARTCHAR 02-05-89
ENCODING 9593
SWIDTH 960 0
DWIDTH 14 0
BBX 14 14 0 -2
BITMAP
0000
3FF8
2848
3E50
3E20
28D0
3F0C
0FE0
00C0
0100
7FFC
0100
0100
0700
ENDCHAR
STARTCHAR 02-05-90
ENCODING 9594
SWIDTH 960 0
DWIDTH 14 0
BBX 14 14 0 -2
BITMAP
1020
5220
7EF8
3E50
7FFC
2020
3EF8
2220
3E20
0FE0
0080
7FFC
0100
0300
ENDCHAR
STARTCHAR 02-05-91
ENCODING 9595
SWIDTH 960 0
DWIDTH 14 0
BBX 14 14 0 -2
BITMAP
1108
27D0
7038
2B94
7BBC
1390
5AB4
5BB4
1010
0FE0
0080
7FFC
0100
0300
ENDCHAR
STARTCHAR 02-05-92
ENCODING 9596
SWIDTH 960 0
DWIDTH 14 0
BBX 14 14 0 -2
BITMAP
0100
0100
3FFC
2008
4000
0000
3FF8
0100
0100
0100
0100
0100
0100
0300
ENDCHAR
STARTCHAR 02-05-93
ENCODING 9597
SWIDTH 960 0
DWIDTH 14 0
BBX 14 14 0 -2
BITMAP
0100
0100
3FFC
2008
4100
0100
0100
3FC0
0240
0240
0440
0444
0844
303C
ENDCHAR
STARTCHAR 02-05-94
ENCODING 9598
SWIDTH 960 0
DWIDTH 14 0
BBX 14 14 0 -2
BITMAP
0100
0100
3FFC
2008
4000
1FF0
0000
0000
7FFC
0100
0100
0100
0100
0300
ENDCHAR
STARTCHAR 02-08-01
ENCODING 10273
SWIDTH 960 0
DWIDTH 14 0
BBX 14 14 0 -2
BITMAP
0100
0100
3FFC
2008
5E40
0240
1E40
1240
1080
1EA0
1290
02B0
05C8
1808
ENDCHAR
STARTCHAR 02-08-02
ENCODING 10274
SWIDTH 960 0
DWIDTH 14 0
BBX 14 14 0 -2
BITMAP
0100
0100
3FFC
20A8
4090
1FFC
1080
1090
1E50
1260
1224
2254
2C8C
4004
ENDCHAR
STARTCHAR 02-08-03
ENCODING 10275
SWIDTH 960 0
DWIDTH 14 0
BBX 14 14 0 -2
BITMAP
0100
0100
3FFC
2008
7F00
12F8
1E88
1288
1E50
1250
1220
1E70
6388
0204
ENDCHAR
STARTCHAR 02-08-04
ENCODING 10276
SWIDTH 960 0
DWIDTH 14 0
BBX 14 14 0 -2
BITMAP
0100
0100
3FFC
20E8
4F20
0910
1090
0100
3FF8
0380
0540
0920
3118
0100
ENDCHAR
STARTCHAR 02-08-05
ENCODING 10277
SWIDTH 960 0
DWIDTH 14 0
BBX 14 14 0 -2
BITMAP
0100
0100
3FFC
20E8
5F00
0FE0
0920
0FE0
3FF8
2148
2128
2FD8
2008
2018
ENDCHAR
STARTCHAR 02-08-06
ENCODING 10278
SWIDTH 960 0
DWIDTH 14 0
BBX 14 14 0 -2
BITMAP
0100
0100
3FFC
2408
65F8
2440
3C40
25F8
0548
7D68
15D8
1508
2508
4518
ENDCHAR
STARTCHAR 02-08-07
ENCODING 10279
SWIDTH 960 0
DWIDTH 14 0
BBX 14 14 0 -2
BITMAP
0100
0100
3FFC
21F8
5010
0BFC
49F0
23FC
2208
05F0
1090
2060
20F0
470C
ENDCHAR
STARTCHAR 02-08-08
ENCODING 10280
SWIDTH 960 0
DWIDTH 14 0
BBX 14 14 0 -2
BITMAP
0820
7F20
4920
4FF8
3820
0820
3E20
09FC
7E20
0850
3E50
2288
3E88
2304
ENDCHAR
STARTCHAR 02-08-09
ENCODING 10281
SWIDTH 960 0
DWIDTH 14 0
BBX 14 14 0 -2
BITMAP
0100
0100
3FFC
2088
79F0
2B20
28C0
3330
2DEC
2A40
2BF8
35F0
2040
27F8
ENDCHAR
STARTCHAR 02-08-10
ENCODING 10282
SWIDTH 960 0
DWIDTH 14 0
BBX 14 14 0 -2
BITMAP
0100
3FFC
2448
65F0
2510
3DF0
25F0
0510
7DF0
1440
17F8
14E0
2550
4648
ENDCHAR
STARTCHAR 02-08-11
ENCODING 10283
SWIDTH 960 0
DWIDTH 14 0
BBX 14 14 0 -2
BITMAP
0020
00C0
0F40
1220
1110
2110
0040
3FF8
0040
0840
0440
0440
0040
00C0
ENDCHAR
STARTCHAR 02-08-12
ENCODING 10284
SWIDTH 960 0
DWIDTH 14 0
BBX 14 14 0 -2
BITMAP
0000
1FF0
1010
1FF0
1010
1FF0
0000
3FF8
0040
7FFC
0840
0440
0440
00C0
ENDCHAR
STARTCHAR 02-08-13
ENCODING 10285
SWIDTH 960 0
DWIDTH 14 0
BBX 14 14 0 -2
BITMAP
0120
0110
7FFC
1FF0
1110
1FF0
1110
1FF0
1110
0020
7FFC
0820
0420
0060
ENDCHAR
STARTCHAR 02-08-14
ENCODING 10286
SWIDTH 960 0
DWIDTH 14 0
BBX 14 14 0 -2
BITMAP
1400
1400
2200
23F8
4140
1440
14F0
1440
1440
1440
15F8
2404
2404
43FC
ENDCHAR
STARTCHAR 02-08-15
ENCODING 10287
SWIDTH 960 0
DWIDTH 14 0
BBX 14 14 0 -2
BITMAP
1010
11E0
1040
7FFC
11F8
1148
11F8
1948
19F8
1840
19F8
2BFC
2804
47FC
ENDCHAR
STARTCHAR 02-08-16
ENCODING 10288
SWIDTH 960 0
DWIDTH 14 0
BBX 14 14 0 -2
BITMAP
0000
1FF8
1008
1FF8
1288
1280
17F0
1880
1FFC
11C0
12A0
2490
288C
4080
ENDCHAR
STARTCHAR 02-08-17
ENCODING 10289
SWIDTH 960 0
DWIDTH 14 0
BBX 14 14 0 -2
BITMAP
0000
1FF8
1008
1FF8
1528
1FF8
1520
15E0
17F0
1080
1FF8
22A0
2490
4888
ENDCHAR
STARTCHAR 02-08-18
ENCODING 10290
SWIDTH 960 0
DWIDTH 14 0
BBX 14 14 0 -2
BITMAP
0000
1FF8
1008
1FF8
1228
12A0
14B8
1AA0
13FC
1420
1CB8
24A0
2560
461C
ENDCHAR
STARTCHAR 02-08-19
ENCODING 10291
SWIDTH 960 0
DWIDTH 14 0
BBX 14 14 0 -2
BITMAP
0000
1FF8
1008
1FF8
12B8
13F8
14B0
1AB0
12F8
1420
1FFC
2470
24A8
4524
ENDCHAR
STARTCHAR 02-08-20
ENCODING 10292
SWIDTH 960 0
DWIDTH 14 0
BBX 14 14 0 -2
BITMAP
0000
1FF8
1008
1FF8
12A8
13FC
14A8
1AF8
1220
14F8
1DFC
24D0
2470
45DC
ENDCHAR
STARTCHAR 02-08-21
ENCODING 10293
SWIDTH 960 0
DWIDTH 14 0
BBX 14 14 0 -2
BITMAP
0000
1FF8
1008
1FF8
12F0
13F8
14E0
1BB0
12E8
15FC
1DE8
25A8
25E8
4518
ENDCHAR
STARTCHAR 02-08-22
ENCODING 10294
SWIDTH 960 0
DWIDTH 14 0
BBX 14 14 0 -2
BITMAP
0820
0420
0440
3FF8
0100
1110
1110
1110
1FF0
1110
0200
0200
0400
1800
ENDCHAR
STARTCHAR 02-08-23
ENCODING 10295
SWIDTH 960 0
DWIDTH 14 0
BBX 14 14 0 -2
BITMAP
1000
11F0
1020
5420
5440
5440
5480
5480
5480
5508
7D08
4508
40F8
0000
ENDCHAR
STARTCHAR 02-08-24
ENCODING 10296
SWIDTH 960 0
DWIDTH 14 0
BBX 14 14 0 -2
BITMAP
0100
2108
2108
3FF8
2008
1010
1110
1110
1110
1110
1110
2110
2010
4010
ENDCHAR
STARTCHAR 02-08-25
ENCODING 10297
SWIDTH 960 0
DWIDTH 14 0
BBX 14 14 0 -2
BITMAP
1000
13FC
10A0
54A0
54A0
54A0
54A0
54A0
54A0
54A0
7D20
4524
4224
041C
ENDCHAR
STARTCHAR 02-08-26
ENCODING 10298
SWIDTH 960 0
DWIDTH 14 0
BBX 14 14 0 -2
BITMAP
1000
11F8
1108
5508
5508
55F8
5528
5520
5520
5520
7D10
4210
4208
0404
ENDCHAR
STARTCHAR 02-08-27
ENCODING 10299
SWIDTH 960 0
DWIDTH 14 0
BBX 14 14 0 -2
BITMAP
0100
2108
2108
3FF8
2008
0200
7FFC
0200
07E0
0420
0A40
1180
2660
581C
ENDCHAR
STARTCHAR 02-08-28
ENCODING 10300
SWIDTH 960 0
DWIDTH 14 0
BBX 14 14 0 -2
BITMAP
1000
10F8
1090
5490
5490
5490
57FC
5430
5430
5450
7C90
4110
4610
0030
ENDCHAR
STARTCHAR 02-08-29
ENCODING 10301
SWIDTH 960 0
DWIDTH 14 0
BBX 14 14 0 -2
BITMAP
0000
1FF0
1110
1110
1FF0
1000
1008
0FF8
0100
2108
2108
2108
3FF8
2008
ENDCHAR
STARTCHAR 02-08-30
ENCODING 10302
SWIDTH 960 0
DWIDTH 14 0
BBX 14 14 0 -2
BITMAP
1000
11FC
1100
5500
55F8
5520
5520
55FC
5520
5520
7D20
4220
4220
0420
ENDCHAR
STARTCHAR 02-08-31
ENCODING 10303
SWIDTH 960 0
DWIDTH 14 0
BBX 14 14 0 -2
BITMAP
1040
1248
1148
5550
5440
55F8
5440
5440
57FC
5440
7C40
4440
4040
0040
ENDCHAR
STARTCHAR 02-08-32
ENCODING 10304
SWIDTH 960 0
DWIDTH 14 0
BBX 14 14 0 -2
BITMAP
1008
1030
11C0
5500
5500
55FC
5520
5520
5560
5530
7E28
4220
4420
0020
ENDCHAR
STARTCHAR 02-08-33
ENCODING 10305
SWIDTH 960 0
DWIDTH 14 0
BBX 14 14 0 -2
BITMAP
1000
13FC
1100
5500
55F8
5508
5508
5508
55F8
5508
7D00
4100
43FC
0000
ENDCHAR
STARTCHAR 02-08-34
ENCODING 10306
SWIDTH 960 0
DWIDTH 14 0
BBX 14 14 0 -2
BITMAP
0100
1110
1110
1FF0
0000
7FFC
0010
1F10
1110
1110
1F10
1110
0010
0030
ENDCHAR
STARTCHAR 02-08-35
ENCODING 10307
SWIDTH 960 0
DWIDTH 14 0
BBX 14 14 0 -2
BITMAP
0100
1110
1110
1FF0
0100
0100
3FF8
0020
0820
0420
0240
0240
0080
7FFC
ENDCHAR
STARTCHAR 02-08-36
ENCODING 10308
SWIDTH 960 0
DWIDTH 14 0
BBX 14 14 0 -2
BITMAP
0100
1110
1110
1FF0
0000
3FF8
0208
0408
1830
6FE0
0820
0820
0FE0
0820
ENDCHAR
STARTCHAR 02-08-37
ENCODING 10309
SWIDTH 960 0
DWIDTH 14 0
BBX 14 14 0 -2
BITMAP
10A0
10A0
13F8
54A8
54A8
57F8
56A8
56A0
57FC
56A4
7CA4
4138
4120
0220
ENDCHAR
STARTCHAR 02-08-38
ENCODING 10310
SWIDTH 960 0
DWIDTH 14 0
BBX 14 14 0 -2
BITMAP
1040
1040
10A0
54A0
5510
56E8
5404
57F8
5448
5448
7C48
4470
4040
0040
ENDCHAR
STARTCHAR 02-08-39
ENCODING 10311
SWIDTH 960 0
DWIDTH 14 0
BBX 14 14 0 -2
BITMAP
1040
1040
1040
57FC
5440
5440
5440
55F8
5508
5508
7D08
4508
41F8
0108
ENDCHAR
STARTCHAR 02-08-40
ENCODING 10312
SWIDTH 960 0
DWIDTH 14 0
BBX 14 14 0 -2
BITMAP
0100
1110
1110
1FF0
0000
0810
0EFC
1290
3290
4C90
07FC
0810
1010
6010
ENDCHAR
STARTCHAR 02-08-41
ENCODING 10313
SWIDTH 960 0
DWIDTH 14 0
BBX 14 14 0 -2
BITMAP
0100
1110
1110
1FF0
0200
07E0
0C40
3280
07C0
1830
6FEC
0820
0FE0
0820
ENDCHAR
STARTCHAR 02-08-42
ENCODING 10314
SWIDTH 960 0
DWIDTH 14 0
BBX 14 14 0 -2
BITMAP
0100
1110
1110
1FF0
0000
11E0
7D20
1124
121C
1FE0
7120
10C0
1130
360C
ENDCHAR
STARTCHAR 02-08-43
ENCODING 10315
SWIDTH 960 0
DWIDTH 14 0
BBX 14 14 0 -2
BITMAP
1040
1040
13F8
5440
5510
57FC
5510
5510
57FC
54A0
7CA0
4124
4224
0C1C
ENDCHAR
STARTCHAR 02-08-44
ENCODING 10316
SWIDTH 960 0
DWIDTH 14 0
BBX 14 14 0 -2
BITMAP
1040
1040
13FC
56A8
54A0
54A8
5518
5600
57F8
5440
7C40
4440
43FC
0000
ENDCHAR
STARTCHAR 02-08-45
ENCODING 10317
SWIDTH 960 0
DWIDTH 14 0
BBX 14 14 0 -2
BITMAP
1000
11F0
1110
5510
55F0
5510
55F0
5520
5524
55F8
7D20
4524
41E4
061C
ENDCHAR
STARTCHAR 02-08-46
ENCODING 10318
SWIDTH 960 0
DWIDTH 14 0
BBX 14 14 0 -2
BITMAP
0100
2108
3FF8
0000
1FF8
1008
1FF8
1490
1490
17F0
2888
2888
4FF8
0808
ENDCHAR
STARTCHAR 02-08-47
ENCODING 10319
SWIDTH 960 0
DWIDTH 14 0
BBX 14 14 0 -2
BITMAP
1040
1040
13FC
55F8
5440
57FC
5400
55F8
5548
5548
7DF8
4508
4108
0118
ENDCHAR
STARTCHAR 02-08-48
ENCODING 10320
SWIDTH 960 0
DWIDTH 14 0
BBX 14 14 0 -2
BITMAP
1040
1040
13FC
5440
55F8
5548
55F8
5548
55F8
54E0
7D50
4248
4444
0040
ENDCHAR
STARTCHAR 02-08-49
ENCODING 10321
SWIDTH 960 0
DWIDTH 14 0
BBX 14 14 0 -2
BITMAP
1008
1110
10E0
5590
57FC
5480
55F8
5508
57F8
5508
7DF8
4508
4108
0118
ENDCHAR
STARTCHAR 02-08-50
ENCODING 10322
SWIDTH 960 0
DWIDTH 14 0
BBX 14 14 0 -2
BITMAP
1040
1040
13FC
54A0
5550
5548
57F4
5550
55F0
5550
7DF0
4554
4044
003C
ENDCHAR
STARTCHAR 02-08-51
ENCODING 10323
SWIDTH 960 0
DWIDTH 14 0
BBX 14 14 0 -2
BITMAP
0100
2108
2108
3FF8
0000
3E08
2248
3E48
2248
3E48
2248
3E08
1408
2218
ENDCHAR
STARTCHAR 02-08-52
ENCODING 10324
SWIDTH 960 0
DWIDTH 14 0
BBX 14 14 0 -2
BITMAP
1040
1040
13FC
5510
54A0
57FC
5648
5440
55F8
5548
7D48
4548
4158
0040
ENDCHAR
STARTCHAR 02-08-53
ENCODING 10325
SWIDTH 960 0
DWIDTH 14 0
BBX 14 14 0 -2
BITMAP
0100
2108
3FF8
0040
13F8
1048
2FFC
4848
13F8
3040
53F8
1040
17FC
1040
ENDCHAR
STARTCHAR 02-08-54
ENCODING 10326
SWIDTH 960 0
DWIDTH 14 0
BBX 14 14 0 -2
BITMAP
1040
1148
1148
55F8
5400
57FC
5440
55F8
5568
5568
7D68
4568
4168
0118
ENDCHAR
STARTCHAR 02-08-55
ENCODING 10327
SWIDTH 960 0
DWIDTH 14 0
BBX 14 14 0 -2
BITMAP
0100
2108
3FF8
0BE0
0820
1210
624C
0460
3F90
7FF8
2288
1658
1A68
6698
ENDCHAR
STARTCHAR 02-08-56
ENCODING 10328
SWIDTH 960 0
DWIDTH 14 0
BBX 14 14 0 -2
BITMAP
1040
11F8
1000
54F0
5490
54F0
5400
55F8
5508
55E8
7DA8
45E8
4108
0118
ENDCHAR
STARTCHAR 02-08-57
ENCODING 10329
SWIDTH 960 0
DWIDTH 14 0
BBX 14 14 0 -2
BITMAP
1040
1080
11F8
5548
55F8
5548
55F8
55C8
54D0
5550
7D68
457C
4244
043C
ENDCHAR
STARTCHAR 02-08-58
ENCODING 10330
SWIDTH 960 0
DWIDTH 14 0
BBX 14 14 0 -2
BITMAP
1050
10A0
13FC
54A0
55F8
54A8
57FC
54A8
55F8
54A0
7DB0
42A8
44A4
00A0
ENDCHAR
STARTCHAR 02-08-59
ENCODING 10331
SWIDTH 960 0
DWIDTH 14 0
BBX 14 14 0 -2
BITMAP
0100
1110
1110
1FF0
0878
3F48
0A50
7FF0
0848
1F44
7144
1F64
1158
1F40
ENDCHAR
STARTCHAR 02-08-60
ENCODING 10332
SWIDTH 960 0
DWIDTH 14 0
BBX 14 14 0 -2
BITMAP
1000
13FC
10A0
55F8
55A8
55F8
5400
55F8
5400
57FC
7D50
4148
4248
00C0
ENDCHAR
STARTCHAR 02-08-61
ENCODING 10333
SWIDTH 960 0
DWIDTH 14 0
BBX 14 14 0 -2
BITMAP
0100
1110
1110
1FF0
2420
2478
3DA8
24B0
05C0
7C10
15FC
1490
2450
4430
ENDCHAR
STARTCHAR 02-08-62
ENCODING 10334
SWIDTH 960 0
DWIDTH 14 0
BBX 14 14 0 -2
BITMAP
0100
0FE0
0820
0FE0
0FE0
0FFC
0FF8
1548
12A8
22B0
0100
2108
2108
3FF8
ENDCHAR
STARTCHAR 02-08-63
ENCODING 10335
SWIDTH 960 0
DWIDTH 14 0
BBX 14 14 0 -2
BITMAP
10E0
1020
1110
57FC
5648
5758
5648
57F8
55F0
5510
7DF0
4510
41F0
0110
ENDCHAR
STARTCHAR 02-08-64
ENCODING 10336
SWIDTH 960 0
DWIDTH 14 0
BBX 14 14 0 -2
BITMAP
0100
1110
1110
1FF0
0840
0C40
12FC
3EA8
4930
7F20
2A50
1C50
0E88
7104
ENDCHAR
STARTCHAR 02-08-65
ENCODING 10337
SWIDTH 960 0
DWIDTH 14 0
BBX 14 14 0 -2
BITMAP
1110
13B4
11B4
5518
56A4
5400
55FC
5508
5640
55F8
7C48
4448
4088
0330
ENDCHAR
STARTCHAR 02-08-66
ENCODING 10338
SWIDTH 960 0
DWIDTH 14 0
BBX 14 14 0 -2
BITMAP
1040
1248
1150
57FC
54E0
5550
564C
5548
55FC
5668
7FA8
44FC
4108
0608
ENDCHAR
STARTCHAR 02-08-67
ENCODING 10339
SWIDTH 960 0
DWIDTH 14 0
BBX 14 14 0 -2
BITMAP
1100
11FC
1294
5CA4
5BE8
5AB0
5ABC
5BE8
5AA8
5BFC
7A28
4A28
4228
0468
ENDCHAR
STARTCHAR 02-08-68
ENCODING 10340
SWIDTH 960 0
DWIDTH 14 0
BBX 14 14 0 -2
BITMAP
0100
1110
1FF0
0880
1FF8
3100
5FF0
1FF0
1100
1FFC
3CF8
2488
2788
2018
ENDCHAR
STARTCHAR 02-08-69
ENCODING 10341
SWIDTH 960 0
DWIDTH 14 0
BBX 14 14 0 -2
BITMAP
0200
1FF0
11D0
1F50
1FF0
1390
1550
7FFC
06C0
3938
0100
1110
1110
1FF0
ENDCHAR
STARTCHAR 02-08-70
ENCODING 10342
SWIDTH 960 0
DWIDTH 14 0
BBX 14 14 0 -2
BITMAP
1040
10F0
1090
54F0
54F0
5490
55F8
5548
55F8
5548
7DF8
47FC
4110
0210
ENDCHAR
STARTCHAR 02-08-71
ENCODING 10343
SWIDTH 960 0
DWIDTH 14 0
BBX 14 14 0 -2
BITMAP
1040
13F8
1040
55F0
57FC
55E8
5440
55F8
57FC
5408
7FFC
42AC
43A8
0018
ENDCHAR
STARTCHAR 02-08-72
ENCODING 10344
SWIDTH 960 0
DWIDTH 14 0
BBX 14 14 0 -2
BITMAP
1330
13FC
1350
57BC
5598
572C
55F8
5508
55F8
5508
7DF8
45F8
4090
030C
ENDCHAR
STARTCHAR 02-08-73
ENCODING 10345
SWIDTH 960 0
DWIDTH 14 0
BBX 14 14 0 -2
BITMAP
13B8
12A8
13B8
5400
57FC
57D0
5690
57FC
5768
57E8
7FD0
4750
43E8
0444
ENDCHAR
STARTCHAR 02-08-74
ENCODING 10346
SWIDTH 960 0
DWIDTH 14 0
BBX 14 14 0 -2
BITMAP
1210
13D8
1214
5FFC
5F90
5D50
5FD0
5E90
5FD8
5F68
7DE8
4F68
0D48
1544
ENDCHAR
STARTCHAR 02-08-75
ENCODING 10347
SWIDTH 960 0
DWIDTH 14 0
BBX 14 14 0 -2
BITMAP
0000
3FF8
0490
0920
1240
0920
0490
0000
1FF0
0100
0100
0100
7FFC
0000
ENDCHAR
STARTCHAR 02-08-76
ENCODING 10348
SWIDTH 960 0
DWIDTH 14 0
BBX 14 14 0 -2
BITMAP
0888
1110
2220
1110
0988
0200
3FF8
2448
2248
2188
2388
2C48
3FF8
2008
ENDCHAR
STARTCHAR 02-08-77
ENCODING 10349
SWIDTH 960 0
DWIDTH 14 0
BBX 14 14 0 -2
BITMAP
0490
0920
1240
0920
1FF0
16D0
1110
16D0
1FF0
1990
1DD4
154C
19EC
6704
ENDCHAR
STARTCHAR 02-08-78
ENCODING 10350
SWIDTH 960 0
DWIDTH 14 0
BBX 14 14 0 -2
BITMAP
0000
03F0
0090
7C90
1090
1090
13D0
1090
1090
1C90
6114
010C
020C
0404
ENDCHAR
STARTCHAR 02-08-79
ENCODING 10351
SWIDTH 960 0
DWIDTH 14 0
BBX 14 14 0 -2
BITMAP
0000
0000
1FE0
1020
1020
1FE0
1000
1000
1FF0
1010
1010
1010
1FF0
1010
ENDCHAR
STARTCHAR 02-08-80
ENCODING 10352
SWIDTH 960 0
DWIDTH 14 0
BBX 14 14 0 -2
BITMAP
0000
3FF8
0100
0100
1FF0
1110
1110
1110
1110
1110
1160
1100
0100
0100
ENDCHAR
STARTCHAR 02-08-81
ENCODING 10353
SWIDTH 960 0
DWIDTH 14 0
BBX 14 14 0 -2
BITMAP
1020
1020
1040
7CF0
5490
5490
5490
5490
5490
5490
5910
1114
1214
140C
ENDCHAR
STARTCHAR 02-08-82
ENCODING 10354
SWIDTH 960 0
DWIDTH 14 0
BBX 14 14 0 -2
BITMAP
0890
0888
10FC
17C0
3040
5024
1114
010C
1FF0
1110
1110
1110
1160
0100
ENDCHAR
STARTCHAR 02-08-83
ENCODING 10355
SWIDTH 960 0
DWIDTH 14 0
BBX 14 14 0 -2
BITMAP
1020
1020
1040
7C80
55F8
5508
5508
5508
55F8
5508
5908
1108
11F8
1108
ENDCHAR
STARTCHAR 02-08-84
ENCODING 10356
SWIDTH 960 0
DWIDTH 14 0
BBX 14 14 0 -2
BITMAP
0100
0940
0920
1110
2110
3FF8
2108
2588
2548
2528
2928
2108
2108
2018
ENDCHAR
STARTCHAR 02-08-85
ENCODING 10357
SWIDTH 960 0
DWIDTH 14 0
BBX 14 14 0 -2
BITMAP
0100
0100
7FFC
0240
1250
1248
24C4
4904
0100
1FF0
1110
1110
1160
0100
ENDCHAR
STARTCHAR 02-08-86
ENCODING 10358
SWIDTH 960 0
DWIDTH 14 0
BBX 14 14 0 -2
BITMAP
0400
04F8
3F88
04B0
3F90
0488
3FC8
08B0
1100
3FF0
1110
1110
1160
0100
ENDCHAR
STARTCHAR 02-08-87
ENCODING 10359
SWIDTH 960 0
DWIDTH 14 0
BBX 14 14 0 -2
BITMAP
1040
1048
11F8
7C50
5450
57FC
5440
54F8
5588
56F8
5888
1088
10F8
1088
ENDCHAR
STARTCHAR 02-08-88
ENCODING 10360
SWIDTH 960 0
DWIDTH 14 0
BBX 14 14 0 -2
BITMAP
1150
1150
13FC
7D50
5550
5570
5500
55F8
5440
57FC
58E0
1150
164C
1040
ENDCHAR
STARTCHAR 02-08-89
ENCODING 10361
SWIDTH 960 0
DWIDTH 14 0
BBX 14 14 0 -2
BITMAP
1100
11F8
1148
7EE8
56B0
5590
55F8
5604
57F8
5440
5950
1148
1248
10C0
ENDCHAR
STARTCHAR 02-08-90
ENCODING 10362
SWIDTH 960 0
DWIDTH 14 0
BBX 14 14 0 -2
BITMAP
1000
13FC
10A0
7DF8
55A8
55F8
5400
55F8
5400
57FC
5950
1248
1448
10C0
ENDCHAR
STARTCHAR 02-08-91
ENCODING 10363
SWIDTH 960 0
DWIDTH 14 0
BBX 14 14 0 -2
BITMAP
1000
13FC
1200
7FC8
5608
57FC
5748
5768
57D8
5A18
5548
1548
18E8
1318
ENDCHAR
STARTCHAR 02-08-92
ENCODING 10364
SWIDTH 960 0
DWIDTH 14 0
BBX 14 14 0 -2
BITMAP
0810
3E10
09FC
7E90
3E50
0E10
7FF0
0FE0
0820
0FE0
1FF0
1110
1110
1160
ENDCHAR
STARTCHAR 02-08-93
ENCODING 10365
SWIDTH 960 0
DWIDTH 14 0
BBX 14 14 0 -2
BITMAP
1040
13F8
1040
7DF0
57FC
55E8
5440
57F8
57FC
5408
5BFC
12AC
13A8
1018
ENDCHAR
STARTCHAR 02-08-94
ENCODING 10366
SWIDTH 960 0
DWIDTH 14 0
BBX 14 14 0 -2
BITMAP
1110
1110
17FC
7D10
57F8
56A8
57F8
5424
57FC
5A20
1328
1294
123C
14C4
ENDCHAR
STARTCHAR 02-12-01
ENCODING 11297
SWIDTH 960 0
DWIDTH 14 0
BBX 14 14 0 -2
BITMAP
1040
1040
13FC
7E88
57E8
56BC
57C8
5628
57D8
5B58
13C8
1548
18E8
1318
ENDCHAR
STARTCHAR 02-12-02
ENCODING 11298
SWIDTH 960 0
DWIDTH 14 0
BBX 14 14 0 -2
BITMAP
12A8
1330
17FC
7BB8
5B30
5BB8
5B30
5BBC
5800
5FF8
1230
11E0
1130
161C
ENDCHAR
STARTCHAR 02-12-03
ENCODING 11299
SWIDTH 960 0
DWIDTH 14 0
BBX 14 14 0 -2
BITMAP
0080
0080
1FFC
1220
1220
1220
15FC
1420
1C70
1470
14A8
2524
2420
4420
ENDCHAR
STARTCHAR 02-12-04
ENCODING 11300
SWIDTH 960 0
DWIDTH 14 0
BBX 14 14 0 -2
BITMAP
0080
0080
1FFC
1420
1420
1FFC
1420
15F8
1488
1690
1C50
2420
2450
4D8C
ENDCHAR
STARTCHAR 02-12-05
ENCODING 11301
SWIDTH 960 0
DWIDTH 14 0
BBX 14 14 0 -2
BITMAP
0080
0080
1FFC
1220
1FFC
1220
1248
1290
1224
13C8
1510
2564
2904
50FC
ENDCHAR
STARTCHAR 02-12-06
ENCODING 11302
SWIDTH 960 0
DWIDTH 14 0
BBX 14 14 0 -2
BITMAP
0080
0080
1FFC
1120
1FFC
1120
11E0
1000
17F8
1408
17F8
2440
2830
500C
ENDCHAR
STARTCHAR 02-12-07
ENCODING 11303
SWIDTH 960 0
DWIDTH 14 0
BBX 14 14 0 -2
BITMAP
0080
0080
1FFC
1120
1120
1FFC
1120
1120
17F8
1488
17F8
2488
27F8
4408
ENDCHAR
STARTCHAR 02-12-08
ENCODING 11304
SWIDTH 960 0
DWIDTH 14 0
BBX 14 14 0 -2
BITMAP
0080
0080
1FFC
1100
17F0
1490
17F0
1490
17F0
1290
12A8
24FC
2484
487C
ENDCHAR
STARTCHAR 02-12-09
ENCODING 11305
SWIDTH 960 0
DWIDTH 14 0
BBX 14 14 0 -2
BITMAP
0080
0080
1FFC
1220
1FA0
127C
1FC8
1248
1FA8
1230
1790
24A8
28C8
5184
ENDCHAR
STARTCHAR 02-12-10
ENCODING 11306
SWIDTH 960 0
DWIDTH 14 0
BBX 14 14 0 -2
BITMAP
0080
0080
1FFC
1000
17F0
1490
17F0
17F0
1140
17F8
1140
2FFC
2220
4C18
ENDCHAR
STARTCHAR 02-12-11
ENCODING 11307
SWIDTH 960 0
DWIDTH 14 0
BBX 14 14 0 -2
BITMAP
0000
7BF8
0A08
12E8
12A8
22A8
7AE8
0AA8
4A88
32A8
1268
2A18
2600
41FC
ENDCHAR
STARTCHAR 02-12-12
ENCODING 11308
SWIDTH 960 0
DWIDTH 14 0
BBX 14 14 0 -2
BITMAP
0000
7BF8
0AA8
12A8
12E8
22A8
7AA8
0AE8
4AA8
32A8
13F8
2A08
2600
41FC
ENDCHAR
STARTCHAR 02-12-13
ENCODING 11309
SWIDTH 960 0
DWIDTH 14 0
BBX 14 14 0 -2
BITMAP
0100
0100
7FFC
0240
1250
1248
24C4
4804
0440
7FFC
0440
0440
0840
1040
ENDCHAR
STARTCHAR 02-12-14
ENCODING 11310
SWIDTH 960 0
DWIDTH 14 0
BBX 14 14 0 -2
BITMAP
0050
0048
0048
0040
7FFC
0040
0040
3F20
0020
1E20
0010
0014
7F8C
0004
ENDCHAR
STARTCHAR 02-12-15
ENCODING 11311
SWIDTH 960 0
DWIDTH 14 0
BBX 14 14 0 -2
BITMAP
0000
7EF8
0208
0208
3EF8
2288
2080
3EF8
2288
0208
0208
0208
0410
1860
ENDCHAR
STARTCHAR 02-12-16
ENCODING 11312
SWIDTH 960 0
DWIDTH 14 0
BBX 14 14 0 -2
BITMAP
0040
7840
0840
0BF8
7A48
4A48
4248
7A48
4A48
0A48
0A70
0840
0840
3040
ENDCHAR
STARTCHAR 02-12-17
ENCODING 11313
SWIDTH 960 0
DWIDTH 14 0
BBX 14 14 0 -2
BITMAP
0080
7880
0880
0880
78FC
4928
4130
7A20
4820
0860
0850
0890
1108
6604
ENDCHAR
STARTCHAR 02-12-18
ENCODING 11314
SWIDTH 960 0
DWIDTH 14 0
BBX 14 14 0 -2
BITMAP
0040
7BF8
0848
0FFC
7848
4BF8
42E8
7BF8
4A48
0BF8
0A48
0BF8
12E8
64E8
ENDCHAR
STARTCHAR 02-12-19
ENCODING 11315
SWIDTH 960 0
DWIDTH 14 0
BBX 14 14 0 -2
BITMAP
0820
0820
0840
7F50
2290
2220
1428
1448
0890
0810
1420
1240
2180
407C
ENDCHAR
STARTCHAR 02-12-20
ENCODING 11316
SWIDTH 960 0
DWIDTH 14 0
BBX 14 14 0 -2
BITMAP
3B90
0010
3BA0
3BA8
0448
3F90
2A14
3FA4
2AC8
3F88
3E50
53A0
5E40
31C0
ENDCHAR
STARTCHAR 02-12-21
ENCODING 11317
SWIDTH 960 0
DWIDTH 14 0
BBX 14 14 0 -2
BITMAP
0840
0840
10A0
14A0
2510
0BF8
0C04
1BF8
2848
4848
0848
0870
0840
0840
ENDCHAR
STARTCHAR 02-12-22
ENCODING 11318
SWIDTH 960 0
DWIDTH 14 0
BBX 14 14 0 -2
BITMAP
0840
0840
1178
1540
2540
0BFC
0848
1948
2948
4AD0
0C20
0840
0880
0B00
ENDCHAR
STARTCHAR 02-12-23
ENCODING 11319
SWIDTH 960 0
DWIDTH 14 0
BBX 14 14 0 -2
BITMAP
0840
0BFC
1040
17F8
2448
0BFC
0848
1BF8
2848
4A40
0A7C
0B40
0CC0
083C
ENDCHAR
STARTCHAR 02-12-24
ENCODING 11320
SWIDTH 960 0
DWIDTH 14 0
BBX 14 14 0 -2
BITMAP
1020
10F8
2E28
2BFC
4A28
14F8
1720
31F8
5520
15FC
1220
1320
1480
187C
ENDCHAR
STARTCHAR 02-12-25
ENCODING 11321
SWIDTH 960 0
DWIDTH 14 0
BBX 14 14 0 -2
BITMAP
0840
0BFC
1090
17FC
25F8
0948
09F8
1948
29F8
4840
09F8
0840
0BFC
0800
ENDCHAR
STARTCHAR 02-12-26
ENCODING 11322
SWIDTH 960 0
DWIDTH 14 0
BBX 14 14 0 -2
BITMAP
0100
0100
0100
0580
0540
0520
0920
1120
0100
0100
0100
0100
0100
0100
ENDCHAR
STARTCHAR 02-12-27
ENCODING 11323
SWIDTH 960 0
DWIDTH 14 0
BBX 14 14 0 -2
BITMAP
0000
0200
0200
1220
1310
1290
1288
2248
2248
4240
0200
0200
0600
0000
ENDCHAR
STARTCHAR 02-12-28
ENCODING 11324
SWIDTH 960 0
DWIDTH 14 0
BBX 14 14 0 -2
BITMAP
1080
1080
1080
1080
3BF8
3488
3488
5088
1088
1108
1108
1208
1408
1830
ENDCHAR
STARTCHAR 02-12-29
ENCODING 11325
SWIDTH 960 0
DWIDTH 14 0
BBX 14 14 0 -2
BITMAP
1000
11F8
1008
1008
3808
35F8
3500
5100
1100
1100
1104
1104
10FC
1000
ENDCHAR
STARTCHAR 02-12-30
ENCODING 11326
SWIDTH 960 0
DWIDTH 14 0
BBX 14 14 0 -2
BITMAP
0050
0048
0048
0040
7FFC
0840
0440
0420
0920
28A0
2890
4914
070C
0004
ENDCHAR
STARTCHAR 02-12-31
ENCODING 11327
SWIDTH 960 0
DWIDTH 14 0
BBX 14 14 0 -2
BITMAP
1000
13F8
1040
1040
3840
3440
37FC
5040
1040
1040
1040
1040
1040
1040
ENDCHAR
STARTCHAR 02-12-32
ENCODING 11328
SWIDTH 960 0
DWIDTH 14 0
BBX 14 14 0 -2
BITMAP
1080
1080
1080
11FC
3900
35F8
3610
5020
1040
1080
1080
1104
1104
10FC
ENDCHAR
STARTCHAR 02-12-33
ENCODING 11329
SWIDTH 960 0
DWIDTH 14 0
BBX 14 14 0 -2
BITMAP
0000
3FF8
0200
0200
1FE0
0420
0420
7FFC
0100
0490
2488
2404
4424
03E0
ENDCHAR
STARTCHAR 02-12-34
ENCODING 11330
SWIDTH 960 0
DWIDTH 14 0
BBX 14 14 0 -2
BITMAP
1040
1040
1040
17FC
3840
3440
37F8
5108
1090
1090
1060
1060
1190
160C
ENDCHAR
STARTCHAR 02-12-35
ENCODING 11331
SWIDTH 960 0
DWIDTH 14 0
BBX 14 14 0 -2
BITMAP
1008
1030
11E0
1120
3920
35FC
3520
5120
1110
1110
1114
114C
118C
1604
ENDCHAR
STARTCHAR 02-12-36
ENCODING 11332
SWIDTH 960 0
DWIDTH 14 0
BBX 14 14 0 -2
BITMAP
1040
104C
1070
13C0
3848
3648
3648
5248
13F8
1248
1040
1044
1044
103C
ENDCHAR
STARTCHAR 02-12-37
ENCODING 11333
SWIDTH 960 0
DWIDTH 14 0
BBX 14 14 0 -2
BITMAP
1040
1040
17FC
1000
3800
35E0
3520
5120
1120
1120
1220
1224
1424
181C
ENDCHAR
STARTCHAR 02-12-38
ENCODING 11334
SWIDTH 960 0
DWIDTH 14 0
BBX 14 14 0 -2
BITMAP
0100
3FF8
0100
1FF0
0280
7FFC
0440
1A30
620C
0B20
0A90
1248
2248
0600
ENDCHAR
STARTCHAR 02-12-39
ENCODING 11335
SWIDTH 960 0
DWIDTH 14 0
BBX 14 14 0 -2
BITMAP
1040
1040
1040
107C
3840
3440
3440
51F8
1108
1108
1108
1108
11F8
1108
ENDCHAR
STARTCHAR 02-12-40
ENCODING 11336
SWIDTH 960 0
DWIDTH 14 0
BBX 14 14 0 -2
BITMAP
1040
1240
1240
1240
3BF8
3440
3440
57FC
10C0
10A0
1120
1210
1408
1804
ENDCHAR
STARTCHAR 02-12-41
ENCODING 11337
SWIDTH 960 0
DWIDTH 14 0
BBX 14 14 0 -2
BITMAP
0810
0810
17FC
1110
3090
5090
1010
1010
1130
0490
2488
2424
4424
03E0
ENDCHAR
STARTCHAR 02-12-42
ENCODING 11338
SWIDTH 960 0
DWIDTH 14 0
BBX 14 14 0 -2
BITMAP
1080
10F8
1100
1100
3A80
34FC
3490
5110
1310
1510
1110
1110
1110
1130
ENDCHAR
STARTCHAR 02-12-43
ENCODING 11339
SWIDTH 960 0
DWIDTH 14 0
BBX 14 14 0 -2
BITMAP
10A0
10A0
10A8
16A8
39B0
35A0
34B0
51A8
12A4
14A4
1120
1124
1224
141C
ENDCHAR
STARTCHAR 02-12-44
ENCODING 11340
SWIDTH 960 0
DWIDTH 14 0
BBX 14 14 0 -2
BITMAP
0000
1FF0
04C0
1FF0
1110
1FF0
1110
1FF0
1110
1130
0100
2488
2424
43E4
ENDCHAR
STARTCHAR 02-12-45
ENCODING 11341
SWIDTH 960 0
DWIDTH 14 0
BBX 14 14 0 -2
BITMAP
1010
11E0
7D00
11FC
1D20
7120
1120
1220
3120
0490
2488
2424
4424
03E0
ENDCHAR
STARTCHAR 02-12-46
ENCODING 11342
SWIDTH 960 0
DWIDTH 14 0
BBX 14 14 0 -2
BITMAP
1010
11A0
1070
1388
3880
37FC
3540
51F8
1348
1548
1148
1170
1040
1040
ENDCHAR
STARTCHAR 02-12-47
ENCODING 11343
SWIDTH 960 0
DWIDTH 14 0
BBX 14 14 0 -2
BITMAP
0900
0900
13FC
1448
3150
5160
1250
1448
1148
0490
2488
2424
4424
03E0
ENDCHAR
STARTCHAR 02-12-48
ENCODING 11344
SWIDTH 960 0
DWIDTH 14 0
BBX 14 14 0 -2
BITMAP
0100
0100
7FFC
0100
1FF0
1290
1FF0
0000
3FF8
0490
2488
2424
4424
03E0
ENDCHAR
STARTCHAR 02-12-49
ENCODING 11345
SWIDTH 960 0
DWIDTH 14 0
BBX 14 14 0 -2
BITMAP
1040
1040
13FC
1208
3DF0
3400
3400
53FC
1040
1150
1148
1244
1444
10C0
ENDCHAR
STARTCHAR 02-12-50
ENCODING 11346
SWIDTH 960 0
DWIDTH 14 0
BBX 14 14 0 -2
BITMAP
10A0
10A0
10A0
17BC
38A0
34A0
37BC
50A0
10A0
17BC
10A0
1120
1220
1420
ENDCHAR
STARTCHAR 02-12-51
ENCODING 11347
SWIDTH 960 0
DWIDTH 14 0
BBX 14 14 0 -2
BITMAP
1040
1040
13FC
12A8
3CA0
34A8
3518
5200
13F8
1040
1040
1040
17FC
1000
ENDCHAR
STARTCHAR 02-12-52
ENCODING 11348
SWIDTH 960 0
DWIDTH 14 0
BBX 14 14 0 -2
BITMAP
1000
11F8
1148
1148
39F8
3548
35F8
5040
17FC
10E0
1150
1248
1444
1040
ENDCHAR
STARTCHAR 02-12-53
ENCODING 11349
SWIDTH 960 0
DWIDTH 14 0
BBX 14 14 0 -2
BITMAP
1000
13F8
10C8
12A8
3910
35B0
3648
53F8
10A8
12A8
1110
1190
1268
1444
ENDCHAR
STARTCHAR 02-12-54
ENCODING 11350
SWIDTH 960 0
DWIDTH 14 0
BBX 14 14 0 -2
BITMAP
1018
11E0
1120
11FC
3920
3510
35D4
530C
11FC
1108
11F8
1108
11F8
1108
ENDCHAR
STARTCHAR 02-12-55
ENCODING 11351
SWIDTH 960 0
DWIDTH 14 0
BBX 14 14 0 -2
BITMAP
1088
1248
1110
13F8
3A48
37F8
3648
53F8
1040
17FC
1040
1040
1040
1040
ENDCHAR
STARTCHAR 02-12-56
ENCODING 11352
SWIDTH 960 0
DWIDTH 14 0
BBX 14 14 0 -2
BITMAP
1000
13FC
1208
17FC
3840
37F8
3648
53F8
1248
13F8
1040
17FC
1040
1040
ENDCHAR
STARTCHAR 02-12-57
ENCODING 11353
SWIDTH 960 0
DWIDTH 14 0
BBX 14 14 0 -2
BITMAP
1150
1150
17FC
1150
3970
3500
35F8
5040
17FC
10E0
1150
1248
1444
1040
ENDCHAR
STARTCHAR 02-12-58
ENCODING 11354
SWIDTH 960 0
DWIDTH 14 0
BBX 14 14 0 -2
BITMAP
1000
17FC
1040
1080
3BF8
36A8
36A8
52E8
12A8
12E8
12A8
12A8
13F8
1208
ENDCHAR
STARTCHAR 02-12-59
ENCODING 11355
SWIDTH 960 0
DWIDTH 14 0
BBX 14 14 0 -2
BITMAP
1000
13F0
1210
13F0
3A10
37F0
3500
51FC
1344
1644
12A4
1314
13E4
1018
ENDCHAR
STARTCHAR 02-12-60
ENCODING 11356
SWIDTH 960 0
DWIDTH 14 0
BBX 14 14 0 -2
BITMAP
1000
11F0
1110
11F0
3910
35F0
3400
53FC
1100
13F8
14A8
1128
1248
10B0
ENDCHAR
STARTCHAR 02-12-61
ENCODING 11357
SWIDTH 960 0
DWIDTH 14 0
BBX 14 14 0 -2
BITMAP
0100
3FFC
2208
47E0
0C40
3380
0C70
7FEC
0820
0FE0
0920
2488
2424
43E4
ENDCHAR
STARTCHAR 02-12-62
ENCODING 11358
SWIDTH 960 0
DWIDTH 14 0
BBX 14 14 0 -2
BITMAP
1000
13FC
1040
13F8
3AA8
36A8
36A8
5218
1040
1040
17FC
10A0
1110
160C
ENDCHAR
STARTCHAR 02-12-63
ENCODING 11359
SWIDTH 960 0
DWIDTH 14 0
BBX 14 14 0 -2
BITMAP
1110
1110
17FC
1110
3BF8
3608
37F8
5208
13F8
1040
17FC
1040
1040
1040
ENDCHAR
STARTCHAR 02-12-64
ENCODING 11360
SWIDTH 960 0
DWIDTH 14 0
BBX 14 14 0 -2
BITMAP
0030
1FE0
1110
2FE8
0100
3FF8
0FE0
0020
7FFC
0020
0FE0
2488
2424
43E4
ENDCHAR
STARTCHAR 02-12-65
ENCODING 11361
SWIDTH 960 0
DWIDTH 14 0
BBX 14 14 0 -2
BITMAP
1FF0
17D0
1310
1DB0
12D0
1DD0
12B0
1590
1FF0
0100
2488
2484
4424
03E0
ENDCHAR
STARTCHAR 02-12-66
ENCODING 11362
SWIDTH 960 0
DWIDTH 14 0
BBX 14 14 0 -2
BITMAP
1008
1030
13D0
1250
3A88
3440
3480
5338
1208
13B8
1208
1208
13F8
1208
ENDCHAR
STARTCHAR 02-12-67
ENCODING 11363
SWIDTH 960 0
DWIDTH 14 0
BBX 14 14 0 -2
BITMAP
1220
1220
17A0
127C
3FC8
3A48
32A8
5FA8
1230
1390
1290
14A8
14C8
1984
ENDCHAR
STARTCHAR 02-12-68
ENCODING 11364
SWIDTH 960 0
DWIDTH 14 0
BBX 14 14 0 -2
BITMAP
0090
0088
1FFC
1248
13A8
1228
1FD0
1A94
2AAC
3744
4100
2488
2424
43E4
ENDCHAR
STARTCHAR 02-12-69
ENCODING 11365
SWIDTH 960 0
DWIDTH 14 0
BBX 14 14 0 -2
BITMAP
2120
17F8
1120
4FFC
27F8
2C88
16A8
26A8
47E8
4418
0100
2488
2424
43E4
ENDCHAR
STARTCHAR 02-12-70
ENCODING 11366
SWIDTH 960 0
DWIDTH 14 0
BBX 14 14 0 -2
BITMAP
1040
11F8
1148
11F8
3FFC
35F8
3508
51F8
1108
11F8
1108
11F8
1090
130C
ENDCHAR
STARTCHAR 02-12-71
ENCODING 11367
SWIDTH 960 0
DWIDTH 14 0
BBX 14 14 0 -2
BITMAP
1040
17FC
1040
13F8
3A48
37F8
3648
53F8
1048
13FC
1080
1548
1514
18F4
ENDCHAR
STARTCHAR 02-12-72
ENCODING 11368
SWIDTH 960 0
DWIDTH 14 0
BBX 14 14 0 -2
BITMAP
0820
7F20
2A7C
2A90
5D50
1C20
2A50
4B8C
0900
0490
2488
2424
4424
03E0
ENDCHAR
STARTCHAR 02-12-73
ENCODING 11369
SWIDTH 960 0
DWIDTH 14 0
BBX 14 14 0 -2
BITMAP
1040
17FC
1040
13F8
39F8
3508
35F8
5090
13FC
1000
11F8
1108
11F8
1108
ENDCHAR
STARTCHAR 02-12-74
ENCODING 11370
SWIDTH 960 0
DWIDTH 14 0
BBX 14 14 0 -2
BITMAP
0820
2CB0
2AA8
5B68
3FFC
2108
5FF0
0210
0410
0930
2488
24A4
4424
03E0
ENDCHAR
STARTCHAR 02-12-75
ENCODING 11371
SWIDTH 960 0
DWIDTH 14 0
BBX 14 14 0 -2
BITMAP
1E40
0440
3FFC
1E88
1350
1E20
1350
1E88
3304
0490
2488
2424
4424
03E0
ENDCHAR
STARTCHAR 02-12-76
ENCODING 11372
SWIDTH 960 0
DWIDTH 14 0
BBX 14 14 0 -2
BITMAP
1040
1040
17FC
12A8
3910
37F8
3514
51F0
1110
11F0
1248
1244
1444
10C0
ENDCHAR
STARTCHAR 02-12-77
ENCODING 11373
SWIDTH 960 0
DWIDTH 14 0
BBX 14 14 0 -2
BITMAP
1040
13F8
7C40
11F0
18A0
17FC
35F0
33F8
5514
11F0
1110
2488
2424
43E4
ENDCHAR
STARTCHAR 02-12-78
ENCODING 11374
SWIDTH 960 0
DWIDTH 14 0
BBX 14 14 0 -2
BITMAP
1FF8
1F30
1F28
1FF8
1F20
1F20
1930
1F50
2948
2B88
4100
2488
2424
43E4
ENDCHAR
STARTCHAR 02-12-79
ENCODING 11375
SWIDTH 960 0
DWIDTH 14 0
BBX 14 14 0 -2
BITMAP
1400
15FC
1628
1490
3B90
3A7C
3398
5550
17DC
1150
1350
12F0
1490
190C
ENDCHAR
STARTCHAR 02-12-80
ENCODING 11376
SWIDTH 960 0
DWIDTH 14 0
BBX 14 14 0 -2
BITMAP
1410
5510
3610
7FFC
1490
3E50
0850
3E10
0810
7F30
0100
2488
2424
43E4
ENDCHAR
STARTCHAR 02-12-81
ENCODING 11377
SWIDTH 960 0
DWIDTH 14 0
BBX 14 14 0 -2
BITMAP
10A0
17FC
10A0
13F8
3AA8
37F8
37FC
5208
15F0
11F0
11F0
1110
11F0
1110
ENDCHAR
STARTCHAR 02-12-82
ENCODING 11378
SWIDTH 960 0
DWIDTH 14 0
BBX 14 14 0 -2
BITMAP
0840
0850
3F48
0848
7FFC
0040
0048
0048
0030
0020
0064
0094
070C
0004
ENDCHAR
STARTCHAR 02-12-83
ENCODING 11379
SWIDTH 960 0
DWIDTH 14 0
BBX 14 14 0 -2
BITMAP
0450
2448
2448
2440
3C7C
27C8
0448
7C50
1430
1420
1464
2494
470C
0404
ENDCHAR
STARTCHAR 02-12-84
ENCODING 11380
SWIDTH 960 0
DWIDTH 14 0
BBX 14 14 0 -2
BITMAP
3A30
0A28
54A8
3520
223C
3EE0
4928
0828
7F18
0810
1434
124C
228C
4104
ENDCHAR
STARTCHAR 02-12-85
ENCODING 11381
SWIDTH 960 0
DWIDTH 14 0
BBX 14 14 0 -2
BITMAP
0030
7F28
2228
5520
773C
11E0
7F28
0028
3E18
2210
3E34
224C
3E8C
2204
ENDCHAR
STARTCHAR 02-12-86
ENCODING 11382
SWIDTH 960 0
DWIDTH 14 0
BBX 14 14 0 -2
BITMAP
0030
1FC0
1000
1FF8
1008
1FF8
1080
1080
1FFC
1190
2E50
2220
43B0
1C0C
ENDCHAR
STARTCHAR 02-12-87
ENCODING 11383
SWIDTH 960 0
DWIDTH 14 0
BBX 14 14 0 -2
BITMAP
0100
0100
0100
1FE0
0100
0100
0100
0120
03C0
1D00
0100
0100
0100
0300
ENDCHAR
STARTCHAR 02-12-88
ENCODING 11384
SWIDTH 960 0
DWIDTH 14 0
BBX 14 14 0 -2
BITMAP
1040
1040
1040
7C40
1060
1050
1048
1C44
7044
1040
1040
1040
1040
3040
ENDCHAR
STARTCHAR 02-12-89
ENCODING 11385
SWIDTH 960 0
DWIDTH 14 0
BBX 14 14 0 -2
BITMAP
1000
11E0
1020
7C20
1120
1120
1120
1D20
7110
1110
1110
1208
1208
3404
ENDCHAR
STARTCHAR 02-12-90
ENCODING 11386
SWIDTH 960 0
DWIDTH 14 0
BBX 14 14 0 -2
BITMAP
1040
1040
1140
7D48
1178
11C8
1348
1D48
7148
1158
1140
1104
1104
30FC
ENDCHAR
STARTCHAR 02-12-91
ENCODING 11387
SWIDTH 960 0
DWIDTH 14 0
BBX 14 14 0 -2
BITMAP
1000
13FC
10A0
7CA0
10A0
10A0
10A0
1CA0
70A0
10A0
1120
1124
1224
341C
ENDCHAR
STARTCHAR 02-12-92
ENCODING 11388
SWIDTH 960 0
DWIDTH 14 0
BBX 14 14 0 -2
BITMAP
1100
1100
1100
7D00
11FC
1248
1250
1C40
7040
10A0
10A0
1110
1208
3404
ENDCHAR
STARTCHAR 02-12-93
ENCODING 11389
SWIDTH 960 0
DWIDTH 14 0
BBX 14 14 0 -2
BITMAP
1000
13F0
1090
7C90
1090
1090
13FC
1C90
7090
1090
1090
1090
13FC
3000
ENDCHAR
STARTCHAR 02-12-94
ENCODING 11390
SWIDTH 960 0
DWIDTH 14 0
BBX 14 14 0 -2
BITMAP
1000
11FC
1100
7D00
11F8
1188
1188
1D50
7150
1120
1220
1250
1488
3904
ENDCHAR
STARTCHAR 02-13-01
ENCODING 11553
SWIDTH 960 0
DWIDTH 14 0
BBX 14 14 0 -2
BITMAP
1010
1020
11C0
7C40
1040
13F8
1040
1C40
73FC
1040
1040
1040
1040
30C0
ENDCHAR
STARTCHAR 02-13-02
ENCODING 11554
SWIDTH 960 0
DWIDTH 14 0
BBX 14 14 0 -2
BITMAP
1000
17FC
1040
7C40
13F8
1248
1248
1EA8
7298
1318
1208
1208
1208
3218
ENDCHAR
STARTCHAR 02-13-03
ENCODING 11555
SWIDTH 960 0
DWIDTH 14 0
BBX 14 14 0 -2
BITMAP
1040
1040
13FC
7E04
1288
1480
1088
1C90
70E0
1080
1080
1084
1084
307C
ENDCHAR
STARTCHAR 02-13-04
ENCODING 11556
SWIDTH 960 0
DWIDTH 14 0
BBX 14 14 0 -2
BITMAP
0800
0FF8
1988
3188
4AB0
0484
18FC
60E0
0F00
1FF0
0100
7FFC
0100
0300
ENDCHAR
STARTCHAR 02-13-05
ENCODING 11557
SWIDTH 960 0
DWIDTH 14 0
BBX 14 14 0 -2
BITMAP
1040
1040
13F8
7E48
1248
13F8
1248
1FF8
7248
1030
1020
10D4
170C
3004
ENDCHAR
STARTCHAR 02-13-06
ENCODING 11558
SWIDTH 960 0
DWIDTH 14 0
BBX 14 14 0 -2
BITMAP
1000
17FC
1080
7CA0
1110
13E8
1040
1C40
73F8
1040
1040
1040
17FC
3000
ENDCHAR
STARTCHAR 02-13-07
ENCODING 11559
SWIDTH 960 0
DWIDTH 14 0
BBX 14 14 0 -2
BITMAP
1040
1040
1040
7FFC
1090
1088
1194
1E94
7250
1060
1020
1050
1188
3604
ENDCHAR
STARTCHAR 02-13-08
ENCODING 11560
SWIDTH 960 0
DWIDTH 14 0
BBX 14 14 0 -2
BITMAP
0800
7FF8
1288
1288
3C88
06F8
1988
60E0
0F00
1FF0
0100
7FFC
0100
0300
ENDCHAR
STARTCHAR 02-13-09
ENCODING 11561
SWIDTH 960 0
DWIDTH 14 0
BBX 14 14 0 -2
BITMAP
1040
1040
13F8
7C40
11F8
1080
13FC
1D10
73FC
1210
1310
1490
1890
3030
ENDCHAR
STARTCHAR 02-13-10
ENCODING 11562
SWIDTH 960 0
DWIDTH 14 0
BBX 14 14 0 -2
BITMAP
1288
1148
1150
7FFC
1208
1440
1040
1BF8
7048
1088
1088
1108
1208
3430
ENDCHAR
STARTCHAR 02-13-11
ENCODING 11563
SWIDTH 960 0
DWIDTH 14 0
BBX 14 14 0 -2
BITMAP
1040
4950
2948
2254
0CD4
1060
2380
20E0
0700
1FF0
0100
7FFC
0100
0300
ENDCHAR
STARTCHAR 02-13-12
ENCODING 11564
SWIDTH 960 0
DWIDTH 14 0
BBX 14 14 0 -2
BITMAP
1000
13F8
1040
7DF0
1040
1040
17FC
1D10
7110
17FC
1110
1110
1210
3410
ENDCHAR
STARTCHAR 02-13-13
ENCODING 11565
SWIDTH 960 0
DWIDTH 14 0
BBX 14 14 0 -2
BITMAP
1000
170C
11F0
7910
1250
1250
175C
1150
1950
7350
12FC
1300
14C0
383C
ENDCHAR
STARTCHAR 02-13-14
ENCODING 11566
SWIDTH 960 0
DWIDTH 14 0
BBX 14 14 0 -2
BITMAP
1008
1030
13C0
7D28
1144
1204
1080
1FFC
7110
1110
12E0
1050
1088
3308
ENDCHAR
STARTCHAR 02-13-15
ENCODING 11567
SWIDTH 960 0
DWIDTH 14 0
BBX 14 14 0 -2
BITMAP
1040
1140
1140
7DF8
1240
1040
13FC
1C40
71F8
1108
1108
1108
11F8
3108
ENDCHAR
STARTCHAR 02-13-16
ENCODING 11568
SWIDTH 960 0
DWIDTH 14 0
BBX 14 14 0 -2
BITMAP
1050
1048
1048
7FFC
1040
1248
1168
1D70
7050
10D0
1148
1644
1040
31C0
ENDCHAR
STARTCHAR 02-13-17
ENCODING 11569
SWIDTH 960 0
DWIDTH 14 0
BBX 14 14 0 -2
BITMAP
1040
1160
1150
7E48
1040
11F8
1108
1DF8
7108
11F8
1108
1108
1108
3118
ENDCHAR
STARTCHAR 02-13-18
ENCODING 11570
SWIDTH 960 0
DWIDTH 14 0
BBX 14 14 0 -2
BITMAP
1018
13E0
1040
7FFC
10C0
1160
1250
1DEC
70A0
10B8
1128
1108
1208
3430
ENDCHAR
STARTCHAR 02-13-19
ENCODING 11571
SWIDTH 960 0
DWIDTH 14 0
BBX 14 14 0 -2
BITMAP
1040
1040
13FC
7C40
13F8
1248
13F8
1E48
73F8
1040
13FC
1040
1040
3040
ENDCHAR
STARTCHAR 02-13-20
ENCODING 11572
SWIDTH 960 0
DWIDTH 14 0
BBX 14 14 0 -2
BITMAP
1110
1110
13FC
7D10
1090
1088
13FC
1E80
7250
1250
1220
1224
145C
3984
ENDCHAR
STARTCHAR 02-13-21
ENCODING 11573
SWIDTH 960 0
DWIDTH 14 0
BBX 14 14 0 -2
BITMAP
1040
1040
10A0
7D10
11F8
1244
11F8
1D48
7148
11F8
1060
1090
1308
3404
ENDCHAR
STARTCHAR 02-13-22
ENCODING 11574
SWIDTH 960 0
DWIDTH 14 0
BBX 14 14 0 -2
BITMAP
1040
1040
13FC
7E88
1288
1288
137C
1708
1B48
7328
1328
1508
1508
3918
ENDCHAR
STARTCHAR 02-13-23
ENCODING 11575
SWIDTH 960 0
DWIDTH 14 0
BBX 14 14 0 -2
BITMAP
1040
1040
10A0
7CA0
1110
13F8
1404
1FF8
72A8
12A8
13F8
12A8
12A8
3218
ENDCHAR
STARTCHAR 02-13-24
ENCODING 11576
SWIDTH 960 0
DWIDTH 14 0
BBX 14 14 0 -2
BITMAP
1018
13F0
1248
7A44
1404
13F8
1048
1FFC
7048
13F8
1048
1040
1040
30C0
ENDCHAR
STARTCHAR 02-13-25
ENCODING 11577
SWIDTH 960 0
DWIDTH 14 0
BBX 14 14 0 -2
BITMAP
1040
1040
13F8
7D10
1090
10A0
13FC
1C08
71E8
1128
11E8
1108
1008
3018
ENDCHAR
STARTCHAR 02-13-26
ENCODING 11578
SWIDTH 960 0
DWIDTH 14 0
BBX 14 14 0 -2
BITMAP
0000
3FF8
2888
3E50
3E20
28D0
3E0C
01C0
0F00
1FF0
0100
7FFC
0100
0300
ENDCHAR
STARTCHAR 02-13-27
ENCODING 11579
SWIDTH 960 0
DWIDTH 14 0
BBX 14 14 0 -2
BITMAP
1110
1090
10A0
7FFC
10A0
12A8
12A8
1EA8
72A8
13B8
12A8
10A0
17FC
3000
ENDCHAR
STARTCHAR 02-13-28
ENCODING 11580
SWIDTH 960 0
DWIDTH 14 0
BBX 14 14 0 -2
BITMAP
1008
1030
13C0
7FFC
1040
1158
1348
1E48
7358
1248
13F8
1248
1040
3040
ENDCHAR
STARTCHAR 02-13-29
ENCODING 11581
SWIDTH 960 0
DWIDTH 14 0
BBX 14 14 0 -2
BITMAP
1100
1100
11F8
7EA8
15A8
1148
12A8
1D30
7080
1050
1348
1314
1514
30F0
ENDCHAR
STARTCHAR 02-13-30
ENCODING 11582
SWIDTH 960 0
DWIDTH 14 0
BBX 14 14 0 -2
BITMAP
1110
17FC
1110
7DF0
1110
11F0
1110
1FFC
72A0
12A8
1318
1200
13FC
3200
ENDCHAR
STARTCHAR 02-13-31
ENCODING 11583
SWIDTH 960 0
DWIDTH 14 0
BBX 14 14 0 -2
BITMAP
1040
1040
10A0
7D10
13F8
1404
11F0
1D10
71F0
1000
17FC
1120
1120
3620
ENDCHAR
STARTCHAR 02-13-32
ENCODING 11584
SWIDTH 960 0
DWIDTH 14 0
BBX 14 14 0 -2
BITMAP
1000
13FC
1200
7EF8
1288
12F8
1288
1EF8
7220
13FC
12D0
1230
12C8
33FC
ENDCHAR
STARTCHAR 02-13-33
ENCODING 11585
SWIDTH 960 0
DWIDTH 14 0
BBX 14 14 0 -2
BITMAP
0220
3C24
08A4
7EA8
1D50
2A50
4A88
01C4
0F00
1FF0
0100
7FFC
0100
0300
ENDCHAR
STARTCHAR 02-13-34
ENCODING 11586
SWIDTH 960 0
DWIDTH 14 0
BBX 14 14 0 -2
BITMAP
1040
1040
13FC
7EA8
14A4
111C
1250
1C48
73FC
1040
10A0
10A0
1110
320C
ENDCHAR
STARTCHAR 02-13-35
ENCODING 11587
SWIDTH 960 0
DWIDTH 14 0
BBX 14 14 0 -2
BITMAP
1150
1150
13FC
7D50
1170
1100
11F8
1C40
73FC
10E0
1150
1248
1444
3040
ENDCHAR
STARTCHAR 02-13-36
ENCODING 11588
SWIDTH 960 0
DWIDTH 14 0
BBX 14 14 0 -2
BITMAP
1040
1040
11FC
7D48
1290
10A0
13FC
1D20
71F8
1120
11F8
1120
11FC
3100
ENDCHAR
STARTCHAR 02-13-37
ENCODING 11589
SWIDTH 960 0
DWIDTH 14 0
BBX 14 14 0 -2
BITMAP
1040
13F8
1000
7DF0
1110
11F0
1000
1FF8
7208
12E8
12A8
12E8
1208
3218
ENDCHAR
STARTCHAR 02-13-38
ENCODING 11590
SWIDTH 960 0
DWIDTH 14 0
BBX 14 14 0 -2
BITMAP
1010
1220
1178
7D48
1048
1078
1340
1578
1948
7148
1178
1148
1280
347C
ENDCHAR
STARTCHAR 02-13-39
ENCODING 11591
SWIDTH 960 0
DWIDTH 14 0
BBX 14 14 0 -2
BITMAP
1108
1108
13FC
7AA8
15A8
117C
1248
1448
1BFC
70E0
1150
1248
1444
3040
ENDCHAR
STARTCHAR 02-13-40
ENCODING 11592
SWIDTH 960 0
DWIDTH 14 0
BBX 14 14 0 -2
BITMAP
1008
1030
13D0
7E50
1288
1040
1080
1F38
7208
13B8
1208
1208
13F8
3208
ENDCHAR
STARTCHAR 02-13-41
ENCODING 11593
SWIDTH 960 0
DWIDTH 14 0
BBX 14 14 0 -2
BITMAP
1040
1248
1150
7FFC
1208
15F0
1110
1D10
71F0
1040
13F8
1040
17FC
3000
ENDCHAR
STARTCHAR 02-13-42
ENCODING 11594
SWIDTH 960 0
DWIDTH 14 0
BBX 14 14 0 -2
BITMAP
1040
13FC
1228
7EA8
1268
1298
13F8
1C40
73FC
1264
1294
13F4
1214
320C
ENDCHAR
STARTCHAR 02-13-43
ENCODING 11595
SWIDTH 960 0
DWIDTH 14 0
BBX 14 14 0 -2
BITMAP
1040
1040
13FC
7EA0
13F8
12A8
12A8
1FF8
7320
13E8
1330
1560
15A4
3B1C
ENDCHAR
STARTCHAR 02-13-44
ENCODING 11596
SWIDTH 960 0
DWIDTH 14 0
BBX 14 14 0 -2
BITMAP
1000
13FC
1200
7EF0
1290
12F0
1200
1FF8
7368
1368
13F8
1200
13FC
3000
ENDCHAR
STARTCHAR 02-13-45
ENCODING 11597
SWIDTH 960 0
DWIDTH 14 0
BBX 14 14 0 -2
BITMAP
1000
13FC
1060
7DF8
1168
11F8
1000
1DF8
7000
13FC
1150
1248
1448
30C0
ENDCHAR
STARTCHAR 02-13-46
ENCODING 11598
SWIDTH 960 0
DWIDTH 14 0
BBX 14 14 0 -2
BITMAP
1110
1590
155C
7D68
1128
17E8
1568
1550
1FD0
77D0
1558
1568
1568
34C4
ENDCHAR
STARTCHAR 02-13-47
ENCODING 11599
SWIDTH 960 0
DWIDTH 14 0
BBX 14 14 0 -2
BITMAP
1288
1150
13FC
7A08
15F0
1110
11F8
1DE0
7040
13F8
1040
17FC
1040
30C0
ENDCHAR
STARTCHAR 02-13-48
ENCODING 11600
SWIDTH 960 0
DWIDTH 14 0
BBX 14 14 0 -2
BITMAP
1018
11F0
1148
7E28
11F0
1090
1090
1DF8
7108
13FC
1154
12AC
1204
3018
ENDCHAR
STARTCHAR 02-13-49
ENCODING 11601
SWIDTH 960 0
DWIDTH 14 0
BBX 14 14 0 -2
BITMAP
1018
13E0
1040
7FFC
10A0
11F0
12A8
1CE4
73F8
1208
12E8
12A8
12E8
3218
ENDCHAR
STARTCHAR 02-13-50
ENCODING 11602
SWIDTH 960 0
DWIDTH 14 0
BBX 14 14 0 -2
BITMAP
1248
1150
13FC
7E08
11F0
1110
11F0
1C00
73F8
1248
13F8
1248
13F8
3208
ENDCHAR
STARTCHAR 02-13-51
ENCODING 11603
SWIDTH 960 0
DWIDTH 14 0
BBX 14 14 0 -2
BITMAP
1220
1220
13BC
7D50
14C8
1040
13FC
1D50
7150
1358
14A4
10A0
1110
360C
ENDCHAR
STARTCHAR 02-13-52
ENCODING 11604
SWIDTH 960 0
DWIDTH 14 0
BBX 14 14 0 -2
BITMAP
1120
11FC
1320
7FF8
1520
11F8
1120
1DFC
7000
13B8
12A8
12E8
1208
3218
ENDCHAR
STARTCHAR 02-13-53
ENCODING 11605
SWIDTH 960 0
DWIDTH 14 0
BBX 14 14 0 -2
BITMAP
1010
1390
12FC
7EA8
12A8
13A8
127C
1610
1B90
76FC
1690
1A90
1390
3010
ENDCHAR
STARTCHAR 02-13-54
ENCODING 11606
SWIDTH 960 0
DWIDTH 14 0
BBX 14 14 0 -2
BITMAP
1000
17FC
1110
7FBC
15B4
17BC
14A4
15AC
1C40
73FC
10E0
1150
124C
3040
ENDCHAR
STARTCHAR 02-13-55
ENCODING 11607
SWIDTH 960 0
DWIDTH 14 0
BBX 14 14 0 -2
BITMAP
1040
11F0
1110
7DF0
11F0
11F0
13F8
1E48
73F8
13F8
1000
17FC
1110
3210
ENDCHAR
STARTCHAR 02-13-56
ENCODING 11608
SWIDTH 960 0
DWIDTH 14 0
BBX 14 14 0 -2
BITMAP
0100
7DF8
4AF0
7C90
7DF8
4968
7FF8
41C8
0F00
1FF0
0100
7FFC
0100
0300
ENDCHAR
STARTCHAR 02-13-57
ENCODING 11609
SWIDTH 960 0
DWIDTH 14 0
BBX 14 14 0 -2
BITMAP
1420
1220
13FC
7C50
12FC
12A4
10FC
1EA4
1AF4
72D4
12F4
128C
1580
387C
ENDCHAR
STARTCHAR 02-13-58
ENCODING 11610
SWIDTH 960 0
DWIDTH 14 0
BBX 14 14 0 -2
BITMAP
1080
10F8
13FC
7EE8
1390
1270
13F0
1350
1FF0
7350
15F8
15A4
1994
3270
ENDCHAR
STARTCHAR 02-13-59
ENCODING 11611
SWIDTH 960 0
DWIDTH 14 0
BBX 14 14 0 -2
BITMAP
1198
12E8
1398
7EE8
1338
12A8
17FC
1530
1AC8
75F4
1040
13F8
1040
30C0
ENDCHAR
STARTCHAR 02-13-60
ENCODING 11612
SWIDTH 960 0
DWIDTH 14 0
BBX 14 14 0 -2
BITMAP
1120
1138
17E0
7AB8
1288
17F8
1020
17B8
1CA0
77B8
14A0
17B8
14A4
359C
ENDCHAR
STARTCHAR 02-13-61
ENCODING 11613
SWIDTH 960 0
DWIDTH 14 0
BBX 14 14 0 -2
BITMAP
1000
17BC
14A4
7FBC
17BC
1444
17FC
15F4
1D54
75F4
15F4
14E4
175C
344C
ENDCHAR
STARTCHAR 02-13-62
ENCODING 11614
SWIDTH 960 0
DWIDTH 14 0
BBX 14 14 0 -2
BITMAP
1000
17BC
14A4
7FBC
17BC
14A4
17BC
1328
1CC4
77FC
1090
11D0
1078
3784
ENDCHAR
STARTCHAR 02-13-63
ENCODING 11615
SWIDTH 960 0
DWIDTH 14 0
BBX 14 14 0 -2
BITMAP
12A8
1330
17FC
7BB8
1330
13B8
1330
17BC
1800
77F8
1230
11E0
1130
361C
ENDCHAR
STARTCHAR 02-13-64
ENCODING 11616
SWIDTH 960 0
DWIDTH 14 0
BBX 14 14 0 -2
BITMAP
1000
17F8
1528
7FF8
1448
1550
15FC
1250
1D78
7750
1378
16D0
1A7C
3240
ENDCHAR
STARTCHAR 02-13-65
ENCODING 11617
SWIDTH 960 0
DWIDTH 14 0
BBX 14 14 0 -2
BITMAP
0820
0820
7FFC
0820
1420
22F8
7F88
0288
3A50
2A50
2A20
3A50
2A88
0704
ENDCHAR
STARTCHAR 02-13-66
ENCODING 11618
SWIDTH 960 0
DWIDTH 14 0
BBX 14 14 0 -2
BITMAP
0040
3E40
0440
18FC
0890
7F90
0A90
1A50
1C60
2820
4820
0850
0888
1B04
ENDCHAR
STARTCHAR 02-13-67
ENCODING 11619
SWIDTH 960 0
DWIDTH 14 0
BBX 14 14 0 -2
BITMAP
0040
7E40
0840
08FC
3C90
1590
1690
7F50
0060
3E20
2220
2250
3E88
2304
ENDCHAR
STARTCHAR 02-13-68
ENCODING 11620
SWIDTH 960 0
DWIDTH 14 0
BBX 14 14 0 -2
BITMAP
0840
1040
3E40
22FC
3E90
2390
3E90
0850
7F60
0E20
1220
1250
2288
4D04
ENDCHAR
STARTCHAR 02-13-69
ENCODING 11621
SWIDTH 960 0
DWIDTH 14 0
BBX 14 14 0 -2
BITMAP
0020
7F20
403C
5E20
5220
5FF8
4048
7F48
6D50
6D30
7F20
4050
7F88
4104
ENDCHAR
STARTCHAR 02-13-70
ENCODING 11622
SWIDTH 960 0
DWIDTH 14 0
BBX 14 14 0 -2
BITMAP
0040
7F40
5540
7FFC
0890
3F90
0890
7F50
1460
7F20
0820
3E50
0888
0904
ENDCHAR
STARTCHAR 02-13-71
ENCODING 11623
SWIDTH 960 0
DWIDTH 14 0
BBX 14 14 0 -2
BITMAP
0840
3E7C
0890
7F60
1A50
698C
1FFC
1080
1FF8
12A0
1EB8
21C0
26B0
588C
ENDCHAR
STARTCHAR 02-13-72
ENCODING 11624
SWIDTH 960 0
DWIDTH 14 0
BBX 14 14 0 -2
BITMAP
1210
2B90
249C
3B90
2A90
35FC
2AA4
3FE4
20A8
5F10
0790
7C28
0444
0D84
ENDCHAR
STARTCHAR 02-13-73
ENCODING 11625
SWIDTH 960 0
DWIDTH 14 0
BBX 14 14 0 -2
BITMAP
0100
0100
7FFC
0C40
1380
0C60
7FFC
0820
0FE0
0FE0
0820
0FF8
7820
0020
ENDCHAR
STARTCHAR 02-13-74
ENCODING 11626
SWIDTH 960 0
DWIDTH 14 0
BBX 14 14 0 -2
BITMAP
1008
2770
5540
5540
7740
557C
1450
7750
4150
7750
5490
1490
1F10
7010
ENDCHAR
STARTCHAR 02-13-75
ENCODING 11627
SWIDTH 960 0
DWIDTH 14 0
BBX 14 14 0 -2
BITMAP
1008
2F70
4540
5540
6B40
007C
7F50
1450
7750
4150
7790
5490
1510
7F10
ENDCHAR
STARTCHAR 02-13-76
ENCODING 11628
SWIDTH 960 0
DWIDTH 14 0
BBX 14 14 0 -2
BITMAP
3F88
20B0
3FA0
35A0
35A0
3FBC
2AA8
3FA8
3FA8
3FA8
35C8
3FC8
4688
1D88
ENDCHAR
STARTCHAR 02-13-77
ENCODING 11629
SWIDTH 960 0
DWIDTH 14 0
BBX 14 14 0 -2
BITMAP
1080
1080
10FC
7F00
1100
12FC
1C08
1430
1420
15FC
2420
2420
4420
1860
ENDCHAR
STARTCHAR 02-13-78
ENCODING 11630
SWIDTH 960 0
DWIDTH 14 0
BBX 14 14 0 -2
BITMAP
1080
1080
10FC
7F08
1130
12C0
1C80
14FC
1490
1490
2490
2510
4510
1A10
ENDCHAR
STARTCHAR 02-13-79
ENCODING 11631
SWIDTH 960 0
DWIDTH 14 0
BBX 14 14 0 -2
BITMAP
0120
0110
7FFC
1FF0
1FF0
1FF0
1110
1FF0
1110
0100
7FFC
02F0
0C10
30E0
ENDCHAR
STARTCHAR 02-13-80
ENCODING 11632
SWIDTH 960 0
DWIDTH 14 0
BBX 14 14 0 -2
BITMAP
1020
10F8
1728
7DFC
1128
12F8
1FA0
14F8
16A0
16FC
2520
2520
46C0
183C
ENDCHAR
STARTCHAR 02-13-81
ENCODING 11633
SWIDTH 960 0
DWIDTH 14 0
BBX 14 14 0 -2
BITMAP
0100
0100
01F0
0100
0100
7FFC
0000
0FE0
0820
0FE0
0820
0820
0FE0
0820
ENDCHAR
STARTCHAR 02-13-82
ENCODING 11634
SWIDTH 960 0
DWIDTH 14 0
BBX 14 14 0 -2
BITMAP
0000
1FF0
1010
1FF0
1010
1FF0
0100
0100
7FFC
0100
0280
0440
1830
600C
ENDCHAR
STARTCHAR 02-13-83
ENCODING 11635
SWIDTH 960 0
DWIDTH 14 0
BBX 14 14 0 -2
BITMAP
0100
1110
1110
1FF0
1110
0100
7FFC
0000
0FE0
0820
0FE0
0820
0FE0
0820
ENDCHAR
STARTCHAR 02-13-84
ENCODING 11636
SWIDTH 960 0
DWIDTH 14 0
BBX 14 14 0 -2
BITMAP
0040
0040
7840
4FFC
4910
4910
7910
4AA0
4CA0
4840
7840
48A0
0310
0C0C
ENDCHAR
STARTCHAR 02-13-85
ENCODING 11637
SWIDTH 960 0
DWIDTH 14 0
BBX 14 14 0 -2
BITMAP
0000
01FC
7900
4900
49F8
4988
7988
4950
4950
4920
7A20
4A50
0588
0A04
ENDCHAR
STARTCHAR 02-13-86
ENCODING 11638
SWIDTH 960 0
DWIDTH 14 0
BBX 14 14 0 -2
BITMAP
000C
01F0
7900
49F8
4908
4908
7908
49F8
4908
4900
7900
4A00
0200
0400
ENDCHAR
STARTCHAR 02-13-87
ENCODING 11639
SWIDTH 960 0
DWIDTH 14 0
BBX 14 14 0 -2
BITMAP
0040
0040
7FFC
4880
4890
4F10
7920
48A0
4840
4840
7890
4908
07F4
0004
ENDCHAR
STARTCHAR 02-13-88
ENCODING 11640
SWIDTH 960 0
DWIDTH 14 0
BBX 14 14 0 -2
BITMAP
0000
1FF0
1010
1FF0
1010
1FF0
0440
0830
3FC8
0440
7FFC
0440
0840
1040
ENDCHAR
STARTCHAR 02-13-89
ENCODING 11641
SWIDTH 960 0
DWIDTH 14 0
BBX 14 14 0 -2
BITMAP
0000
07FC
7800
49F0
4910
4910
79F0
4910
4910
49F0
7910
4800
07FC
0000
ENDCHAR
STARTCHAR 02-13-90
ENCODING 11642
SWIDTH 960 0
DWIDTH 14 0
BBX 14 14 0 -2
BITMAP
0000
1FF0
1010
1FF0
1010
1FF0
0400
3FF8
2008
27C8
2448
27C8
2448
2018
ENDCHAR
STARTCHAR 02-13-91
ENCODING 11643
SWIDTH 960 0
DWIDTH 14 0
BBX 14 14 0 -2
BITMAP
0120
0120
7920
4920
4FF8
4920
7920
4920
4FFC
4800
7920
4910
0208
0408
ENDCHAR
STARTCHAR 02-13-92
ENCODING 11644
SWIDTH 960 0
DWIDTH 14 0
BBX 14 14 0 -2
BITMAP
0100
0100
3FF8
0100
1FF0
0280
7FFC
0440
1BF0
6A2C
0BE0
0A20
0BE0
0A20
ENDCHAR
STARTCHAR 02-13-93
ENCODING 11645
SWIDTH 960 0
DWIDTH 14 0
BBX 14 14 0 -2
BITMAP
0100
1110
0920
3FF8
0280
7FFC
0440
1BF0
6A2C
0BE0
0A20
0A20
0BE0
0A20
ENDCHAR
STARTCHAR 02-13-94
ENCODING 11646
SWIDTH 960 0
DWIDTH 14 0
BBX 14 14 0 -2
BITMAP
0040
0040
78A0
4910
4BF8
4C04
7BF8
4820
4840
4BF0
7A10
4A10
03F0
0210
ENDCHAR
STARTCHAR 02-14-01
ENCODING 11809
SWIDTH 960 0
DWIDTH 14 0
BBX 14 14 0 -2
BITMAP
0000
01F8
7908
4908
49F8
4908
79F8
4908
49F8
48A0
78A0
4924
0224
0C1C
ENDCHAR
STARTCHAR 02-14-02
ENCODING 11810
SWIDTH 960 0
DWIDTH 14 0
BBX 14 14 0 -2
BITMAP
0104
0108
7930
4FE0
4920
493C
7928
49E8
4F28
4928
7948
4948
0188
0308
ENDCHAR
STARTCHAR 02-14-03
ENCODING 11811
SWIDTH 960 0
DWIDTH 14 0
BBX 14 14 0 -2
BITMAP
0000
1FF0
1010
1FF0
1010
1FF0
0000
3CF8
2488
3CF8
2488
3CF8
2108
0218
ENDCHAR
STARTCHAR 02-14-04
ENCODING 11812
SWIDTH 960 0
DWIDTH 14 0
BBX 14 14 0 -2
BITMAP
0800
08F8
1E88
2488
7E88
2AF8
2A88
3E88
2C88
0CF8
1488
1404
2404
43FC
ENDCHAR
STARTCHAR 02-14-05
ENCODING 11813
SWIDTH 960 0
DWIDTH 14 0
BBX 14 14 0 -2
BITMAP
00A0
00A0
78A0
4BF8
4AA8
4AA8
7BF8
4AA8
4AA8
4FFC
78A0
4890
0108
0208
ENDCHAR
STARTCHAR 02-14-06
ENCODING 11814
SWIDTH 960 0
DWIDTH 14 0
BBX 14 14 0 -2
BITMAP
0040
0040
787C
4840
4BF8
4A08
7BF8
4A08
4BF8
4840
7FFC
4840
0040
0040
ENDCHAR
STARTCHAR 02-14-07
ENCODING 11815
SWIDTH 960 0
DWIDTH 14 0
BBX 14 14 0 -2
BITMAP
0040
0040
7FFC
4910
4910
4998
7A64
4C44
4840
4FFC
7840
4840
0040
0040
ENDCHAR
STARTCHAR 02-14-08
ENCODING 11816
SWIDTH 960 0
DWIDTH 14 0
BBX 14 14 0 -2
BITMAP
0000
03F8
7A48
4A48
4BF8
4A48
7BF8
4A48
4BE8
4B28
7B28
45E8
0528
0818
ENDCHAR
STARTCHAR 02-14-09
ENCODING 11817
SWIDTH 960 0
DWIDTH 14 0
BBX 14 14 0 -2
BITMAP
0080
0080
7FFC
4910
4950
4A48
7FFC
4A48
4BF8
4A48
7BF8
4A44
0044
003C
ENDCHAR
STARTCHAR 02-14-10
ENCODING 11818
SWIDTH 960 0
DWIDTH 14 0
BBX 14 14 0 -2
BITMAP
0240
0220
7C20
49FC
4920
4A20
7A20
4EF8
4A20
4A20
7A20
4A20
03FC
0200
ENDCHAR
STARTCHAR 02-14-11
ENCODING 11819
SWIDTH 960 0
DWIDTH 14 0
BBX 14 14 0 -2
BITMAP
0040
01F8
7888
4FFC
4800
49F8
7908
49F8
4820
49F8
7920
47FC
0020
0020
ENDCHAR
STARTCHAR 02-14-12
ENCODING 11820
SWIDTH 960 0
DWIDTH 14 0
BBX 14 14 0 -2
BITMAP
0000
01F8
7908
49F8
4908
49F8
7940
4BFC
4C40
49F8
7840
4840
03FC
0000
ENDCHAR
STARTCHAR 02-14-13
ENCODING 11821
SWIDTH 960 0
DWIDTH 14 0
BBX 14 14 0 -2
BITMAP
0040
0040
7BF8
4840
49F0
48A0
7FFC
4910
4BF8
4D14
79F0
4910
01F0
0110
ENDCHAR
STARTCHAR 02-14-14
ENCODING 11822
SWIDTH 960 0
DWIDTH 14 0
BBX 14 14 0 -2
BITMAP
0000
1FF0
1010
1FF0
1010
1FF0
0820
32C8
0C30
1248
7FFC
2488
2244
4244
ENDCHAR
STARTCHAR 02-14-15
ENCODING 11823
SWIDTH 960 0
DWIDTH 14 0
BBX 14 14 0 -2
BITMAP
0040
0080
7BF8
4A08
4BF8
4A08
7BF8
4840
4B58
4840
7B58
47FC
0040
0040
ENDCHAR
STARTCHAR 02-14-16
ENCODING 11824
SWIDTH 960 0
DWIDTH 14 0
BBX 14 14 0 -2
BITMAP
0000
03FC
7A90
4BF8
4A90
4A40
7BFC
4A40
4AF8
4B88
7AF8
4A00
03FC
0200
ENDCHAR
STARTCHAR 02-14-17
ENCODING 11825
SWIDTH 960 0
DWIDTH 14 0
BBX 14 14 0 -2
BITMAP
0110
07FC
7910
49F0
4BF8
4A48
7BF8
4840
49F0
4840
7FFC
48A0
0110
060C
ENDCHAR
STARTCHAR 02-14-18
ENCODING 11826
SWIDTH 960 0
DWIDTH 14 0
BBX 14 14 0 -2
BITMAP
0120
0120
7FE0
4920
4ABC
4FC8
7868
4BA8
4AA8
4B90
7A90
4BB0
02C8
0284
ENDCHAR
STARTCHAR 02-14-19
ENCODING 11827
SWIDTH 960 0
DWIDTH 14 0
BBX 14 14 0 -2
BITMAP
0040
03FC
7840
49F8
4800
49F8
7908
49F8
4890
4FFC
7800
49F8
0108
01F8
ENDCHAR
STARTCHAR 02-14-20
ENCODING 11828
SWIDTH 960 0
DWIDTH 14 0
BBX 14 14 0 -2
BITMAP
0000
7FFC
1248
7DF4
0820
3EF8
0820
7EFC
1FF0
1010
1FF0
1010
1FF0
1010
ENDCHAR
STARTCHAR 02-14-21
ENCODING 11829
SWIDTH 960 0
DWIDTH 14 0
BBX 14 14 0 -2
BITMAP
03BC
0000
7BBC
4BB4
4840
4BFC
7AA0
4BF8
4AA8
4BF8
7AE4
4AB8
04E4
0B1C
ENDCHAR
STARTCHAR 02-14-22
ENCODING 11830
SWIDTH 960 0
DWIDTH 14 0
BBX 14 14 0 -2
BITMAP
0000
1FF0
1010
1FF0
1010
1FF0
0000
1FF0
00C0
0100
7FFC
0100
0100
0300
ENDCHAR
STARTCHAR 02-14-23
ENCODING 11831
SWIDTH 960 0
DWIDTH 14 0
BBX 14 14 0 -2
BITMAP
0410
3EF8
2490
7FF8
0820
0F34
144C
6080
1FF0
1010
1FF0
1010
1FF0
1010
ENDCHAR
STARTCHAR 02-14-24
ENCODING 11832
SWIDTH 960 0
DWIDTH 14 0
BBX 14 14 0 -2
BITMAP
0800
09F0
0910
3FF0
0910
09F0
0880
7FF8
1148
1B68
2598
2DE8
7308
0230
ENDCHAR
STARTCHAR 02-14-25
ENCODING 11833
SWIDTH 960 0
DWIDTH 14 0
BBX 14 14 0 -2
BITMAP
0020
3C20
25FC
2524
2524
3D54
254C
25AC
3D24
2554
254C
258C
2504
4D0C
ENDCHAR
STARTCHAR 02-14-26
ENCODING 11834
SWIDTH 960 0
DWIDTH 14 0
BBX 14 14 0 -2
BITMAP
0000
3FF8
2440
25F0
2490
3C90
27FC
2440
3FFC
2490
25D0
2420
24D0
4D08
ENDCHAR
STARTCHAR 02-14-27
ENCODING 11835
SWIDTH 960 0
DWIDTH 14 0
BBX 14 14 0 -2
BITMAP
0000
0078
7F48
5548
5548
5578
6348
5D48
5578
5548
7F48
0088
0088
0118
ENDCHAR
STARTCHAR 02-14-28
ENCODING 11836
SWIDTH 960 0
DWIDTH 14 0
BBX 14 14 0 -2
BITMAP
1000
11F8
1040
7C40
13FC
1880
3480
3500
31F8
5108
5008
1010
1010
1060
ENDCHAR
STARTCHAR 02-14-29
ENCODING 11837
SWIDTH 960 0
DWIDTH 14 0
BBX 14 14 0 -2
BITMAP
1080
1080
1080
7FF0
1090
1890
3690
3590
30D0
5150
5110
1114
1214
140C
ENDCHAR
STARTCHAR 02-14-30
ENCODING 11838
SWIDTH 960 0
DWIDTH 14 0
BBX 14 14 0 -2
BITMAP
1000
13FC
10A0
7CA0
10A0
18A0
34A0
34A0
30A0
50A0
5120
1124
1224
141C
ENDCHAR
STARTCHAR 02-14-31
ENCODING 11839
SWIDTH 960 0
DWIDTH 14 0
BBX 14 14 0 -2
BITMAP
1000
11F8
1008
7C10
1010
1820
3420
35FC
3020
5020
5020
1020
1020
1060
ENDCHAR
STARTCHAR 02-14-32
ENCODING 11840
SWIDTH 960 0
DWIDTH 14 0
BBX 14 14 0 -2
BITMAP
1008
1030
11C0
7C40
1040
1840
347C
37C0
3040
5040
5040
1044
1044
103C
ENDCHAR
STARTCHAR 02-14-33
ENCODING 11841
SWIDTH 960 0
DWIDTH 14 0
BBX 14 14 0 -2
BITMAP
1040
1040
1140
7D48
1178
19C8
3748
3548
3148
5158
5140
1104
1104
10FC
ENDCHAR
STARTCHAR 02-14-34
ENCODING 11842
SWIDTH 960 0
DWIDTH 14 0
BBX 14 14 0 -2
BITMAP
1040
1040
1040
7C78
1088
1888
3548
3650
3030
5010
5020
1040
1180
1600
ENDCHAR
STARTCHAR 02-14-35
ENCODING 11843
SWIDTH 960 0
DWIDTH 14 0
BBX 14 14 0 -2
BITMAP
10A0
1090
1108
7E04
1114
1910
3510
34A0
30A0
5040
5040
10A0
1110
160C
ENDCHAR
STARTCHAR 02-14-36
ENCODING 11844
SWIDTH 960 0
DWIDTH 14 0
BBX 14 14 0 -2
BITMAP
1040
1040
1040
7FFC
1040
1950
3550
3550
3150
5154
5254
124C
1440
1040
ENDCHAR
STARTCHAR 02-14-37
ENCODING 11845
SWIDTH 960 0
DWIDTH 14 0
BBX 14 14 0 -2
BITMAP
1100
1100
1100
7D00
11FC
1A48
3650
3440
3040
50A0
50A0
1110
1208
1404
ENDCHAR
STARTCHAR 02-14-38
ENCODING 11846
SWIDTH 960 0
DWIDTH 14 0
BBX 14 14 0 -2
BITMAP
1040
104C
1070
7DC0
1048
1948
3548
3548
31F8
5148
5040
1044
1044
103C
ENDCHAR
STARTCHAR 02-14-39
ENCODING 11847
SWIDTH 960 0
DWIDTH 14 0
BBX 14 14 0 -2
BITMAP
1008
1030
11E0
7F20
1120
19FC
3520
3520
3110
5110
5114
112C
11CC
1704
ENDCHAR
STARTCHAR 02-14-40
ENCODING 11848
SWIDTH 960 0
DWIDTH 14 0
BBX 14 14 0 -2
BITMAP
1000
11F8
1090
7C90
1090
1BFC
3430
3430
3050
5050
5090
1110
1610
1030
ENDCHAR
STARTCHAR 02-14-41
ENCODING 11849
SWIDTH 960 0
DWIDTH 14 0
BBX 14 14 0 -2
BITMAP
0820
0820
0820
7FFC
0820
2CB0
2CB0
2CB0
2CB0
2AB4
2B34
492C
0A20
0820
ENDCHAR
STARTCHAR 02-14-42
ENCODING 11850
SWIDTH 960 0
DWIDTH 14 0
BBX 14 14 0 -2
BITMAP
0440
0440
7FFC
0440
3FF8
2010
4100
0100
7FFC
0380
0540
1930
610C
0100
ENDCHAR
STARTCHAR 02-14-43
ENCODING 11851
SWIDTH 960 0
DWIDTH 14 0
BBX 14 14 0 -2
BITMAP
10C0
1020
1000
7FC0
1048
1848
37F0
34E0
3150
5150
5248
1444
1040
10C0
ENDCHAR
STARTCHAR 02-14-44
ENCODING 11852
SWIDTH 960 0
DWIDTH 14 0
BBX 14 14 0 -2
BITMAP
1000
13FC
1040
7D50
1148
1A48
3440
37FC
3040
5040
5040
1040
1040
1040
ENDCHAR
STARTCHAR 02-14-45
ENCODING 11853
SWIDTH 960 0
DWIDTH 14 0
BBX 14 14 0 -2
BITMAP
0200
0240
0430
7FE8
0004
0FE0
0820
0FE0
0100
7FFC
0380
0D60
711C
0100
ENDCHAR
STARTCHAR 02-14-46
ENCODING 11854
SWIDTH 960 0
DWIDTH 14 0
BBX 14 14 0 -2
BITMAP
1040
1040
10A0
7CA0
1110
1AE8
3404
37F8
3048
5048
5048
1070
1040
1040
ENDCHAR
STARTCHAR 02-14-47
ENCODING 11855
SWIDTH 960 0
DWIDTH 14 0
BBX 14 14 0 -2
BITMAP
1040
1150
1148
7E48
1040
1BF8
3440
3440
33FC
5040
5040
1040
1040
1040
ENDCHAR
STARTCHAR 02-14-48
ENCODING 11856
SWIDTH 960 0
DWIDTH 14 0
BBX 14 14 0 -2
BITMAP
1080
4880
2BFC
2080
0880
1080
207C
4100
3FF8
0380
0540
1930
610C
0100
ENDCHAR
STARTCHAR 02-14-49
ENCODING 11857
SWIDTH 960 0
DWIDTH 14 0
BBX 14 14 0 -2
BITMAP
1000
11F8
1148
7F48
11F8
1948
3548
35F8
3148
5040
5040
1040
1040
1040
ENDCHAR
STARTCHAR 02-14-50
ENCODING 11858
SWIDTH 960 0
DWIDTH 14 0
BBX 14 14 0 -2
BITMAP
1040
1040
1040
7FF8
1148
1948
35F8
3548
3148
51F8
5148
1040
1040
1040
ENDCHAR
STARTCHAR 02-14-51
ENCODING 11859
SWIDTH 960 0
DWIDTH 14 0
BBX 14 14 0 -2
BITMAP
0100
0100
7FFC
0380
0540
1930
6FEC
0000
3FF8
0100
0540
1930
610C
0300
ENDCHAR
STARTCHAR 02-14-52
ENCODING 11860
SWIDTH 960 0
DWIDTH 14 0
BBX 14 14 0 -2
BITMAP
1000
11F8
1108
7F08
1108
19F8
35A8
34A0
30A0
50A0
5120
1124
1224
141C
ENDCHAR
STARTCHAR 02-14-53
ENCODING 11861
SWIDTH 960 0
DWIDTH 14 0
BBX 14 14 0 -2
BITMAP
1080
1080
1080
7FFC
1120
1920
3620
36F8
3220
5220
5220
1220
13FC
1200
ENDCHAR
STARTCHAR 02-14-54
ENCODING 11862
SWIDTH 960 0
DWIDTH 14 0
BBX 14 14 0 -2
BITMAP
1020
1020
11FC
7D08
12F8
1810
3420
3420
33FC
5020
5020
1020
1020
1060
ENDCHAR
STARTCHAR 02-14-55
ENCODING 11863
SWIDTH 960 0
DWIDTH 14 0
BBX 14 14 0 -2
BITMAP
1020
1020
11FC
7D08
1210
1810
37FC
3410
3110
5090
5090
1010
1010
1030
ENDCHAR
STARTCHAR 02-14-56
ENCODING 11864
SWIDTH 960 0
DWIDTH 14 0
BBX 14 14 0 -2
BITMAP
1040
1078
1088
7D50
1020
1840
35A0
343C
3044
50A8
5318
1010
1060
1380
ENDCHAR
STARTCHAR 02-14-57
ENCODING 11865
SWIDTH 960 0
DWIDTH 14 0
BBX 14 14 0 -2
BITMAP
1210
1110
1120
7FF8
1120
1920
3520
37FC
3120
5120
5220
1220
1420
1820
ENDCHAR
STARTCHAR 02-14-58
ENCODING 11866
SWIDTH 960 0
DWIDTH 14 0
BBX 14 14 0 -2
BITMAP
1000
17FC
1040
7FF8
12A8
1AA8
36A8
36A8
32A8
52A8
52A8
12A8
12A8
1218
ENDCHAR
STARTCHAR 02-14-59
ENCODING 11867
SWIDTH 960 0
DWIDTH 14 0
BBX 14 14 0 -2
BITMAP
1040
1048
11F8
7C50
1050
1BFC
3440
3480
31F8
5620
5020
1020
1020
1060
ENDCHAR
STARTCHAR 02-14-60
ENCODING 11868
SWIDTH 960 0
DWIDTH 14 0
BBX 14 14 0 -2
BITMAP
1040
1048
11F8
7C50
1050
1BFC
3440
3480
3198
52E0
5480
1088
1088
1078
ENDCHAR
STARTCHAR 02-14-61
ENCODING 11869
SWIDTH 960 0
DWIDTH 14 0
BBX 14 14 0 -2
BITMAP
1020
1028
1024
7FFC
1020
1820
37E0
3520
3120
5110
5150
1194
160C
1004
ENDCHAR
STARTCHAR 02-14-62
ENCODING 11870
SWIDTH 960 0
DWIDTH 14 0
BBX 14 14 0 -2
BITMAP
0100
0100
7FFC
0240
1250
1248
24C4
4904
0100
7FFC
0380
0D60
711C
0100
ENDCHAR
STARTCHAR 02-14-63
ENCODING 11871
SWIDTH 960 0
DWIDTH 14 0
BBX 14 14 0 -2
BITMAP
1040
1040
1248
7D48
1150
1840
37FC
34A0
30A0
50A0
5120
1124
1224
141C
ENDCHAR
STARTCHAR 02-14-64
ENCODING 11872
SWIDTH 960 0
DWIDTH 14 0
BBX 14 14 0 -2
BITMAP
1040
1078
1090
7F20
11FC
1900
3578
3548
3148
5170
5240
1244
1444
183C
ENDCHAR
STARTCHAR 02-14-65
ENCODING 11873
SWIDTH 960 0
DWIDTH 14 0
BBX 14 14 0 -2
BITMAP
1040
1040
11FC
7D08
1240
1840
37FC
3490
3090
5190
5160
1030
10C8
1704
ENDCHAR
STARTCHAR 02-14-66
ENCODING 11874
SWIDTH 960 0
DWIDTH 14 0
BBX 14 14 0 -2
BITMAP
0100
0100
01F8
0100
1FF0
1010
1FF0
1010
1FF0
0100
7FFC
0D60
711C
0100
ENDCHAR
STARTCHAR 02-14-67
ENCODING 11875
SWIDTH 960 0
DWIDTH 14 0
BBX 14 14 0 -2
BITMAP
1040
1080
1138
7D08
1108
1908
3508
35B8
3108
5108
5108
1108
11F8
1108
ENDCHAR
STARTCHAR 02-14-68
ENCODING 11876
SWIDTH 960 0
DWIDTH 14 0
BBX 14 14 0 -2
BITMAP
1000
11F0
1090
7C9C
1104
1904
3618
3440
33FC
50E0
50D0
1148
1244
1040
ENDCHAR
STARTCHAR 02-14-69
ENCODING 11877
SWIDTH 960 0
DWIDTH 14 0
BBX 14 14 0 -2
BITMAP
1000
11F8
1148
7D48
11F8
1948
3548
35F8
3040
53FC
5044
1084
1104
1618
ENDCHAR
STARTCHAR 02-14-70
ENCODING 11878
SWIDTH 960 0
DWIDTH 14 0
BBX 14 14 0 -2
BITMAP
1220
1120
1120
7C30
12A8
12A8
38A4
3524
3168
5230
5210
1220
1440
1580
ENDCHAR
STARTCHAR 02-14-71
ENCODING 11879
SWIDTH 960 0
DWIDTH 14 0
BBX 14 14 0 -2
BITMAP
1000
13FC
1040
7C60
10D8
1B44
3440
3440
31F8
5108
5108
1108
11F8
1108
ENDCHAR
STARTCHAR 02-14-72
ENCODING 11880
SWIDTH 960 0
DWIDTH 14 0
BBX 14 14 0 -2
BITMAP
1000
13FC
1050
7C50
11DC
1954
3554
3554
3154
51DC
5090
1090
1110
1210
ENDCHAR
STARTCHAR 02-14-73
ENCODING 11881
SWIDTH 960 0
DWIDTH 14 0
BBX 14 14 0 -2
BITMAP
0100
0100
3FF8
0380
0D60
3118
0280
0D60
719C
1190
0B50
0D20
3110
0308
ENDCHAR
STARTCHAR 02-14-74
ENCODING 11882
SWIDTH 960 0
DWIDTH 14 0
BBX 14 14 0 -2
BITMAP
1050
1048
1048
7FFC
1040
1248
3968
3570
3050
50D0
5148
1644
1040
10C0
ENDCHAR
STARTCHAR 02-14-75
ENCODING 11883
SWIDTH 960 0
DWIDTH 14 0
BBX 14 14 0 -2
BITMAP
1120
1124
1128
7FF0
1120
1924
35E4
375C
3040
53F8
5040
1040
17FC
1000
ENDCHAR
STARTCHAR 02-14-76
ENCODING 11884
SWIDTH 960 0
DWIDTH 14 0
BBX 14 14 0 -2
BITMAP
1000
11F8
1108
7D08
11F8
1908
35F8
3508
3108
51F8
5090
1088
1104
1204
ENDCHAR
STARTCHAR 02-14-77
ENCODING 11885
SWIDTH 960 0
DWIDTH 14 0
BBX 14 14 0 -2
BITMAP
1008
13A8
12A8
7EA8
12A8
1BA8
3528
3528
31A8
51A8
5288
1288
1488
1918
ENDCHAR
STARTCHAR 02-14-78
ENCODING 11886
SWIDTH 960 0
DWIDTH 14 0
BBX 14 14 0 -2
BITMAP
1000
11F8
1108
7D08
11F8
1908
35F8
3508
31F8
50A0
50A0
1124
1224
141C
ENDCHAR
STARTCHAR 02-14-79
ENCODING 11887
SWIDTH 960 0
DWIDTH 14 0
BBX 14 14 0 -2
BITMAP
1040
1040
11F8
7D48
1148
19F8
3440
37FC
3244
5244
53FC
1244
1040
1040
ENDCHAR
STARTCHAR 02-14-80
ENCODING 11888
SWIDTH 960 0
DWIDTH 14 0
BBX 14 14 0 -2
BITMAP
1080
10F0
1120
7E40
13F8
1A48
3648
37F8
3268
50A0
50A0
1124
1224
141C
ENDCHAR
STARTCHAR 02-14-81
ENCODING 11889
SWIDTH 960 0
DWIDTH 14 0
BBX 14 14 0 -2
BITMAP
1040
1040
1040
7FFC
1150
1950
3550
36E8
3444
50A0
50A0
1110
1208
1404
ENDCHAR
STARTCHAR 02-14-82
ENCODING 11890
SWIDTH 960 0
DWIDTH 14 0
BBX 14 14 0 -2
BITMAP
1000
13FC
1000
7DF8
1108
1908
35F8
3508
3108
5090
5090
1020
13FC
1000
ENDCHAR
STARTCHAR 02-14-83
ENCODING 11891
SWIDTH 960 0
DWIDTH 14 0
BBX 14 14 0 -2
BITMAP
1000
11F0
1010
7FFC
1010
19F0
3400
37FC
3208
55F0
5120
10C0
1130
160C
ENDCHAR
STARTCHAR 02-14-84
ENCODING 11892
SWIDTH 960 0
DWIDTH 14 0
BBX 14 14 0 -2
BITMAP
1000
170C
11F0
7D10
1210
1A5C
3750
3550
3550
5350
52FC
1300
14C0
183C
ENDCHAR
STARTCHAR 02-14-85
ENCODING 11893
SWIDTH 960 0
DWIDTH 14 0
BBX 14 14 0 -2
BITMAP
12A0
12A0
13F8
7EA8
12A8
15F8
3EA8
3EA0
37FC
56A4
54A4
1538
1520
1620
ENDCHAR
STARTCHAR 02-14-86
ENCODING 11894
SWIDTH 960 0
DWIDTH 14 0
BBX 14 14 0 -2
BITMAP
0440
7FFC
0440
0FE0
1030
7FEC
0220
0C20
31C0
7FFC
0380
0D60
711C
0100
ENDCHAR
STARTCHAR 02-14-87
ENCODING 11895
SWIDTH 960 0
DWIDTH 14 0
BBX 14 14 0 -2
BITMAP
1040
1040
13FC
7C40
10D0
1BFC
3490
3490
37FC
50A0
50A0
1124
1224
141C
ENDCHAR
STARTCHAR 02-14-88
ENCODING 11896
SWIDTH 960 0
DWIDTH 14 0
BBX 14 14 0 -2
BITMAP
1090
1090
17FC
7C90
1048
1844
37FC
3640
3248
5228
5230
1454
148C
1B04
ENDCHAR
STARTCHAR 02-14-89
ENCODING 11897
SWIDTH 960 0
DWIDTH 14 0
BBX 14 14 0 -2
BITMAP
1090
1090
13FC
7C90
1088
1888
3508
35FC
3348
5528
5128
1108
1108
1118
ENDCHAR
STARTCHAR 02-14-90
ENCODING 11898
SWIDTH 960 0
DWIDTH 14 0
BBX 14 14 0 -2
BITMAP
0140
3E78
04A8
7F28
0E48
1548
6498
0500
3FF8
0380
0540
1930
610C
0100
ENDCHAR
STARTCHAR 02-14-91
ENCODING 11899
SWIDTH 960 0
DWIDTH 14 0
BBX 14 14 0 -2
BITMAP
1010
11E0
13FC
7C40
13F8
1848
37FC
3448
33F8
50E0
50D0
1148
1244
1040
ENDCHAR
STARTCHAR 02-14-92
ENCODING 11900
SWIDTH 960 0
DWIDTH 14 0
BBX 14 14 0 -2
BITMAP
1008
1030
13C8
7D24
1124
1A40
3440
37FC
30E0
50E0
5150
1248
1444
1040
ENDCHAR
STARTCHAR 02-14-93
ENCODING 11901
SWIDTH 960 0
DWIDTH 14 0
BBX 14 14 0 -2
BITMAP
1000
11F0
1110
7DF0
1110
19F0
3400
37FC
3010
57FC
5110
1090
1010
1030
ENDCHAR
STARTCHAR 02-14-94
ENCODING 11902
SWIDTH 960 0
DWIDTH 14 0
BBX 14 14 0 -2
BITMAP
1000
11F8
1100
7FF0
1100
19F0
3500
37FC
3148
5150
5120
1150
1188
1604
ENDCHAR
STARTCHAR 02-15-01
ENCODING 12065
SWIDTH 960 0
DWIDTH 14 0
BBX 14 14 0 -2
BITMAP
1018
13E0
1200
7FF8
1208
1BF8
3650
3648
33FC
5240
5440
14A0
1B10
1C0C
ENDCHAR
STARTCHAR 02-15-02
ENCODING 12066
SWIDTH 960 0
DWIDTH 14 0
BBX 14 14 0 -2
BITMAP
1090
1090
1090
7FFC
1090
1890
37FC
3400
31F8
5108
51F8
1108
11F8
1108
ENDCHAR
STARTCHAR 02-15-03
ENCODING 12067
SWIDTH 960 0
DWIDTH 14 0
BBX 14 14 0 -2
BITMAP
1010
1090
1290
7EFC
1110
1918
36B4
3434
32B0
52D0
5150
1110
1290
1490
ENDCHAR
STARTCHAR 02-15-04
ENCODING 12068
SWIDTH 960 0
DWIDTH 14 0
BBX 14 14 0 -2
BITMAP
1040
1150
1148
7FF8
10A0
1BFC
3510
37F8
3514
5110
5160
1108
1108
10F8
ENDCHAR
STARTCHAR 02-15-05
ENCODING 12069
SWIDTH 960 0
DWIDTH 14 0
BBX 14 14 0 -2
BITMAP
1000
17FC
1280
7E80
13F8
1AC8
36C8
37A8
32B0
5290
53B0
14A8
10C8
1084
ENDCHAR
STARTCHAR 02-15-06
ENCODING 12070
SWIDTH 960 0
DWIDTH 14 0
BBX 14 14 0 -2
BITMAP
1040
1078
1040
7FFC
1248
1A78
37C8
3638
32A0
52A0
52A0
14A4
1524
181C
ENDCHAR
STARTCHAR 02-15-07
ENCODING 12071
SWIDTH 960 0
DWIDTH 14 0
BBX 14 14 0 -2
BITMAP
1000
11F0
1110
7F10
11F0
1910
35F0
3510
31F0
5000
57FC
10A0
1110
1608
ENDCHAR
STARTCHAR 02-15-08
ENCODING 12072
SWIDTH 960 0
DWIDTH 14 0
BBX 14 14 0 -2
BITMAP
1038
13C0
1040
7FFC
10A0
1910
3688
3484
32D0
52A8
54A4
18A4
1080
1180
ENDCHAR
STARTCHAR 02-15-09
ENCODING 12073
SWIDTH 960 0
DWIDTH 14 0
BBX 14 14 0 -2
BITMAP
1040
1040
13FC
7C40
10A0
1910
37F8
3404
37F8
5140
5150
1248
1448
10C0
ENDCHAR
STARTCHAR 02-15-10
ENCODING 12074
SWIDTH 960 0
DWIDTH 14 0
BBX 14 14 0 -2
BITMAP
1000
13FC
12F8
7E88
12F8
1A88
36F8
3600
32F8
5210
53FC
1420
1420
1860
ENDCHAR
STARTCHAR 02-15-11
ENCODING 12075
SWIDTH 960 0
DWIDTH 14 0
BBX 14 14 0 -2
BITMAP
1000
13FC
12F8
7E88
12F8
1A88
36F8
3640
33FC
5290
5260
12D8
13FC
1000
ENDCHAR
STARTCHAR 02-15-12
ENCODING 12076
SWIDTH 960 0
DWIDTH 14 0
BBX 14 14 0 -2
BITMAP
0440
7FFC
3E08
3A48
2648
3A48
2648
2618
0100
7FFC
0380
0D60
711C
0100
ENDCHAR
STARTCHAR 02-15-13
ENCODING 12077
SWIDTH 960 0
DWIDTH 14 0
BBX 14 14 0 -2
BITMAP
1000
13FC
10A0
7FF8
12A8
1AA8
37F8
3440
33FC
5090
51D0
1020
10D0
1308
ENDCHAR
STARTCHAR 02-15-14
ENCODING 12078
SWIDTH 960 0
DWIDTH 14 0
BBX 14 14 0 -2
BITMAP
1100
11FC
1120
7EFC
12A4
1AFC
36A4
36FC
32A4
5220
5260
1250
1288
1304
ENDCHAR
STARTCHAR 02-15-15
ENCODING 12079
SWIDTH 960 0
DWIDTH 14 0
BBX 14 14 0 -2
BITMAP
1000
11F0
1110
7DF0
1110
19F0
3480
35F8
3248
5648
52A8
1318
13C8
1030
ENDCHAR
STARTCHAR 02-15-16
ENCODING 12080
SWIDTH 960 0
DWIDTH 14 0
BBX 14 14 0 -2
BITMAP
1028
1024
13FC
7E20
13E8
1AA8
37E8
3770
3350
5390
52B4
132C
124C
1484
ENDCHAR
STARTCHAR 02-15-17
ENCODING 12081
SWIDTH 960 0
DWIDTH 14 0
BBX 14 14 0 -2
BITMAP
1000
13F0
10A0
7C40
13FC
18C8
3750
34C0
3040
53FC
50E0
1150
124C
1040
ENDCHAR
STARTCHAR 02-15-18
ENCODING 12082
SWIDTH 960 0
DWIDTH 14 0
BBX 14 14 0 -2
BITMAP
1010
11E0
1040
7FFC
10E0
1950
3648
35F4
3110
51F0
5110
1110
11F0
1110
ENDCHAR
STARTCHAR 02-15-19
ENCODING 12083
SWIDTH 960 0
DWIDTH 14 0
BBX 14 14 0 -2
BITMAP
1000
17F8
1088
7C88
13B8
1A20
37B8
34C8
32A8
5198
52A8
14C8
1088
1330
ENDCHAR
STARTCHAR 02-15-20
ENCODING 12084
SWIDTH 960 0
DWIDTH 14 0
BBX 14 14 0 -2
BITMAP
0100
3FFC
2448
4920
3298
0C60
1FF0
682C
0FE0
0920
7FFC
0380
0D60
3118
ENDCHAR
STARTCHAR 02-15-21
ENCODING 12085
SWIDTH 960 0
DWIDTH 14 0
BBX 14 14 0 -2
BITMAP
0800
7FF0
0890
3E94
0094
3F0C
2200
5DF8
0888
7F50
1C50
2A20
48D0
0B0C
ENDCHAR
STARTCHAR 02-15-22
ENCODING 12086
SWIDTH 960 0
DWIDTH 14 0
BBX 14 14 0 -2
BITMAP
1000
10FC
3F80
48F8
7F88
08F8
1480
22FC
4100
7FFC
0380
0D60
711C
0100
ENDCHAR
STARTCHAR 02-15-23
ENCODING 12087
SWIDTH 960 0
DWIDTH 14 0
BBX 14 14 0 -2
BITMAP
0820
0820
7F50
0888
3F24
2220
3FFC
2270
3E70
08A8
7FA8
0924
0820
0820
ENDCHAR
STARTCHAR 02-15-24
ENCODING 12088
SWIDTH 960 0
DWIDTH 14 0
BBX 14 14 0 -2
BITMAP
1048
11F8
1050
7FFC
10C0
1898
35E4
3684
307C
51F8
5108
11F8
1108
11F8
ENDCHAR
STARTCHAR 02-15-25
ENCODING 12089
SWIDTH 960 0
DWIDTH 14 0
BBX 14 14 0 -2
BITMAP
1040
1040
11FC
7D48
1290
18A0
35FC
3720
31F8
5120
51F8
1120
11FC
1100
ENDCHAR
STARTCHAR 02-15-26
ENCODING 12090
SWIDTH 960 0
DWIDTH 14 0
BBX 14 14 0 -2
BITMAP
0040
3E48
2550
27F8
2440
3FFC
24A0
2550
3E48
27FC
24E0
24D0
2548
4E44
ENDCHAR
STARTCHAR 02-15-27
ENCODING 12091
SWIDTH 960 0
DWIDTH 14 0
BBX 14 14 0 -2
BITMAP
1040
11F0
1040
7FFC
10A0
1910
37E8
3400
33F8
52A8
52A8
12A8
17FC
1000
ENDCHAR
STARTCHAR 02-15-28
ENCODING 12092
SWIDTH 960 0
DWIDTH 14 0
BBX 14 14 0 -2
BITMAP
0100
7FFC
0FE0
0820
0FE0
3FF8
27C8
2448
27D8
0100
7FFC
0D60
711C
0100
ENDCHAR
STARTCHAR 02-15-29
ENCODING 12093
SWIDTH 960 0
DWIDTH 14 0
BBX 14 14 0 -2
BITMAP
0000
3EF8
2288
2288
3EF8
2AA8
0820
7FFC
0820
1C70
1A68
29A4
4924
0820
ENDCHAR
STARTCHAR 02-15-30
ENCODING 12094
SWIDTH 960 0
DWIDTH 14 0
BBX 14 14 0 -2
BITMAP
0100
3FF8
0100
1FF0
3FFC
2008
5FF8
0FE0
1820
6FE0
0100
7FFC
0920
3118
ENDCHAR
STARTCHAR 02-15-31
ENCODING 12095
SWIDTH 960 0
DWIDTH 14 0
BBX 14 14 0 -2
BITMAP
1040
1040
13FC
7E08
13FC
1840
35F8
3548
31F8
5148
51F8
1090
1108
1604
ENDCHAR
STARTCHAR 02-15-32
ENCODING 12096
SWIDTH 960 0
DWIDTH 14 0
BBX 14 14 0 -2
BITMAP
1110
1120
13FC
7D20
11F8
15F8
1920
61FC
0100
7FFC
0380
0D60
711C
0100
ENDCHAR
STARTCHAR 02-15-33
ENCODING 12097
SWIDTH 960 0
DWIDTH 14 0
BBX 14 14 0 -2
BITMAP
1000
13F8
1040
7FFC
1444
1B58
3758
3440
33F8
5008
57FC
1008
13F8
1008
ENDCHAR
STARTCHAR 02-15-34
ENCODING 12098
SWIDTH 960 0
DWIDTH 14 0
BBX 14 14 0 -2
BITMAP
1000
11F8
1148
7DF8
1148
19F8
3440
35F8
3040
53FC
5000
1348
12A4
14A4
ENDCHAR
STARTCHAR 02-15-35
ENCODING 12099
SWIDTH 960 0
DWIDTH 14 0
BBX 14 14 0 -2
BITMAP
1080
1080
11FC
7D90
12F0
1890
34F0
3490
33FC
5204
52F4
1294
12F4
120C
ENDCHAR
STARTCHAR 02-15-36
ENCODING 12100
SWIDTH 960 0
DWIDTH 14 0
BBX 14 14 0 -2
BITMAP
1040
1040
13FC
7E48
11F8
18A0
3510
37FC
3008
51C8
5148
11C8
1148
1018
ENDCHAR
STARTCHAR 02-15-37
ENCODING 12101
SWIDTH 960 0
DWIDTH 14 0
BBX 14 14 0 -2
BITMAP
1040
1090
13F8
7D10
1198
1A64
37FC
34A0
3350
51AC
5048
1190
1060
1380
ENDCHAR
STARTCHAR 02-15-38
ENCODING 12102
SWIDTH 960 0
DWIDTH 14 0
BBX 14 14 0 -2
BITMAP
1040
1248
1248
7FF8
1098
1920
37FC
3620
33F8
5220
53F8
1220
13FC
1200
ENDCHAR
STARTCHAR 02-15-39
ENCODING 12103
SWIDTH 960 0
DWIDTH 14 0
BBX 14 14 0 -2
BITMAP
2440
24F8
3F50
04F0
7F90
15FC
2490
4430
0100
7FFC
0380
0D60
711C
0100
ENDCHAR
STARTCHAR 02-15-40
ENCODING 12104
SWIDTH 960 0
DWIDTH 14 0
BBX 14 14 0 -2
BITMAP
1120
1538
1548
7D68
1790
1550
3168
3F48
55FC
5548
1528
1528
1908
1118
ENDCHAR
STARTCHAR 02-15-41
ENCODING 12105
SWIDTH 960 0
DWIDTH 14 0
BBX 14 14 0 -2
BITMAP
1018
13E0
1200
7FF8
1208
1BF8
36F0
36F0
33F8
5328
55F8
1504
1904
10FC
ENDCHAR
STARTCHAR 02-15-42
ENCODING 12106
SWIDTH 960 0
DWIDTH 14 0
BBX 14 14 0 -2
BITMAP
1000
11F0
1110
7DF0
1110
19F0
37F8
36A8
33F8
57F8
5090
1060
11B0
160C
ENDCHAR
STARTCHAR 02-15-43
ENCODING 12107
SWIDTH 960 0
DWIDTH 14 0
BBX 14 14 0 -2
BITMAP
1200
11F0
1450
7ED8
1154
1A54
36A4
3440
37FC
50E0
50D0
1148
1244
1040
ENDCHAR
STARTCHAR 02-15-44
ENCODING 12108
SWIDTH 960 0
DWIDTH 14 0
BBX 14 14 0 -2
BITMAP
1040
1040
13FC
7EA0
13F8
1AA8
36A8
37F8
3320
53E8
5330
1560
15A4
131C
ENDCHAR
STARTCHAR 02-15-45
ENCODING 12109
SWIDTH 960 0
DWIDTH 14 0
BBX 14 14 0 -2
BITMAP
1040
1078
1040
7FFC
12E8
1B90
3670
36F0
3290
52F0
5290
14F0
1490
1BFC
ENDCHAR
STARTCHAR 02-15-46
ENCODING 12110
SWIDTH 960 0
DWIDTH 14 0
BBX 14 14 0 -2
BITMAP
1090
13FC
1090
7DF8
1148
19F8
3548
35F8
3040
53FC
5254
1274
1394
120C
ENDCHAR
STARTCHAR 02-15-47
ENCODING 12111
SWIDTH 960 0
DWIDTH 14 0
BBX 14 14 0 -2
BITMAP
1028
1024
17FC
7BE0
1020
17E0
3FE0
3250
33D0
53D4
524C
13CC
1184
1244
ENDCHAR
STARTCHAR 02-15-48
ENCODING 12112
SWIDTH 960 0
DWIDTH 14 0
BBX 14 14 0 -2
BITMAP
1000
13F0
1010
7FFC
1010
1BF0
37B8
3528
31B8
5610
57FC
1110
1090
1030
ENDCHAR
STARTCHAR 02-15-49
ENCODING 12113
SWIDTH 960 0
DWIDTH 14 0
BBX 14 14 0 -2
BITMAP
1120
1130
17E8
7AA8
12A0
17FC
3820
37A8
32A8
5390
5290
13B4
124C
1084
ENDCHAR
STARTCHAR 02-15-50
ENCODING 12114
SWIDTH 960 0
DWIDTH 14 0
BBX 14 14 0 -2
BITMAP
1000
13B8
12A8
7FB8
1000
1BF8
3648
37F8
3248
53F8
5040
17FC
1040
1040
ENDCHAR
STARTCHAR 02-15-51
ENCODING 12115
SWIDTH 960 0
DWIDTH 14 0
BBX 14 14 0 -2
BITMAP
0800
0800
1FF8
2AA0
7FFC
0AA0
3FF8
0820
7FFC
1C60
1A70
2AA8
4924
0820
ENDCHAR
STARTCHAR 02-15-52
ENCODING 12116
SWIDTH 960 0
DWIDTH 14 0
BBX 14 14 0 -2
BITMAP
1040
1248
1150
7FFC
10E0
1950
364C
3548
31FC
5268
53A8
14FC
1108
1608
ENDCHAR
STARTCHAR 02-15-53
ENCODING 12117
SWIDTH 960 0
DWIDTH 14 0
BBX 14 14 0 -2
BITMAP
1000
13B8
12A8
7FB8
12A8
1BB8
3608
36E8
32A8
52E8
52A8
12E8
12A8
1218
ENDCHAR
STARTCHAR 02-15-54
ENCODING 12118
SWIDTH 960 0
DWIDTH 14 0
BBX 14 14 0 -2
BITMAP
1018
13E8
1248
7D50
13FC
18E0
3550
37F8
3154
51F0
5150
1150
11F0
1110
ENDCHAR
STARTCHAR 02-15-55
ENCODING 12119
SWIDTH 960 0
DWIDTH 14 0
BBX 14 14 0 -2
BITMAP
1000
13F8
1040
7FFC
1248
1D50
3550
3400
33F8
5000
57FC
1090
1138
17C4
ENDCHAR
STARTCHAR 02-15-56
ENCODING 12120
SWIDTH 960 0
DWIDTH 14 0
BBX 14 14 0 -2
BITMAP
0100
1490
1488
2428
0BE0
36F8
3144
5554
4D30
0100
7FFC
0380
0D60
711C
ENDCHAR
STARTCHAR 02-15-57
ENCODING 12121
SWIDTH 960 0
DWIDTH 14 0
BBX 14 14 0 -2
BITMAP
10C0
1338
1208
7FB8
1208
1BF8
3400
3768
32D8
5248
5368
12DC
136C
16C4
ENDCHAR
STARTCHAR 02-15-58
ENCODING 12122
SWIDTH 960 0
DWIDTH 14 0
BBX 14 14 0 -2
BITMAP
1000
11F0
1110
7DF0
1000
1BBC
36A4
37BC
3040
57FC
50E0
1150
164C
1040
ENDCHAR
STARTCHAR 02-15-59
ENCODING 12123
SWIDTH 960 0
DWIDTH 14 0
BBX 14 14 0 -2
BITMAP
0018
3DE8
2524
3BF8
2BFC
25F8
2408
3BFC
21F8
2100
7FFC
0D60
711C
0100
ENDCHAR
STARTCHAR 02-15-60
ENCODING 12124
SWIDTH 960 0
DWIDTH 14 0
BBX 14 14 0 -2
BITMAP
1110
1110
13F8
7D10
17FC
1910
35F0
3648
35F4
51F0
5150
11F0
17FC
1040
ENDCHAR
STARTCHAR 02-15-61
ENCODING 12125
SWIDTH 960 0
DWIDTH 14 0
BBX 14 14 0 -2
BITMAP
1000
11F8
1168
7DF8
1020
1BFC
34F8
3688
32F8
52F8
5288
12F8
13FC
1200
ENDCHAR
STARTCHAR 02-15-62
ENCODING 12126
SWIDTH 960 0
DWIDTH 14 0
BBX 14 14 0 -2
BITMAP
1000
13F8
1040
7FFC
1444
1B58
3758
3400
33F8
5248
53F8
1248
13F8
1208
ENDCHAR
STARTCHAR 02-15-63
ENCODING 12127
SWIDTH 960 0
DWIDTH 14 0
BBX 14 14 0 -2
BITMAP
1000
13FC
1090
7FFC
1294
1BFC
35F8
3508
31F8
51F8
5108
11F8
1090
130C
ENDCHAR
STARTCHAR 02-15-64
ENCODING 12128
SWIDTH 960 0
DWIDTH 14 0
BBX 14 14 0 -2
BITMAP
1000
13F8
12A8
7FF8
1040
1BF8
3440
37FC
30A0
57FC
5040
13F8
1040
1040
ENDCHAR
STARTCHAR 02-15-65
ENCODING 12129
SWIDTH 960 0
DWIDTH 14 0
BBX 14 14 0 -2
BITMAP
1040
1248
1248
7FF8
1448
1290
3AFC
3990
36F8
52F8
5290
12FC
1500
18FC
ENDCHAR
STARTCHAR 02-15-66
ENCODING 12130
SWIDTH 960 0
DWIDTH 14 0
BBX 14 14 0 -2
BITMAP
1040
13FC
1308
7DF8
1368
1AF0
3590
37F8
3004
53F8
5150
1248
1048
10C0
ENDCHAR
STARTCHAR 02-15-67
ENCODING 12131
SWIDTH 960 0
DWIDTH 14 0
BBX 14 14 0 -2
BITMAP
1000
13F8
1040
7FFC
1444
1B58
3758
37FC
3040
53F8
52A8
12A8
12A8
12B8
ENDCHAR
STARTCHAR 02-15-68
ENCODING 12132
SWIDTH 960 0
DWIDTH 14 0
BBX 14 14 0 -2
BITMAP
1108
1228
17D8
7D48
17E8
1558
37CC
3D38
5948
5348
13A8
15EC
1484
187C
ENDCHAR
STARTCHAR 02-15-69
ENCODING 12133
SWIDTH 960 0
DWIDTH 14 0
BBX 14 14 0 -2
BITMAP
1000
13FC
1250
7FFC
12F8
1AA8
36F8
36A8
32F8
53FC
5534
15FC
1904
110C
ENDCHAR
STARTCHAR 02-15-70
ENCODING 12134
SWIDTH 960 0
DWIDTH 14 0
BBX 14 14 0 -2
BITMAP
0000
0FE0
0920
0FE0
0FE0
3EF8
3EF8
2AA8
3EF8
0100
7FFC
0380
0D60
711C
ENDCHAR
STARTCHAR 02-15-71
ENCODING 12135
SWIDTH 960 0
DWIDTH 14 0
BBX 14 14 0 -2
BITMAP
0100
3FF8
0FE0
0920
3FFC
2F48
5970
0640
39F8
1FF0
1FF0
7FFC
0920
3118
ENDCHAR
STARTCHAR 02-15-72
ENCODING 12136
SWIDTH 960 0
DWIDTH 14 0
BBX 14 14 0 -2
BITMAP
1040
13FC
1040
7DF8
13FC
1A94
37FC
35F8
31F8
51F8
5108
11F8
1090
130C
ENDCHAR
STARTCHAR 02-15-73
ENCODING 12137
SWIDTH 960 0
DWIDTH 14 0
BBX 14 14 0 -2
BITMAP
1110
17FC
1150
7DF4
1318
19F0
3718
35F4
3040
57FC
50E0
1150
164C
1040
ENDCHAR
STARTCHAR 02-15-74
ENCODING 12138
SWIDTH 960 0
DWIDTH 14 0
BBX 14 14 0 -2
BITMAP
1020
14F8
12A8
7AF8
11FC
10F8
3E88
3AF8
32F8
5288
52F8
1650
1588
18FC
ENDCHAR
STARTCHAR 02-15-75
ENCODING 12139
SWIDTH 960 0
DWIDTH 14 0
BBX 14 14 0 -2
BITMAP
1200
1278
17C8
7CC8
1378
1FC8
3278
3FC8
5A78
5738
16B0
1A50
1254
128C
ENDCHAR
STARTCHAR 02-15-76
ENCODING 12140
SWIDTH 960 0
DWIDTH 14 0
BBX 14 14 0 -2
BITMAP
0820
4920
7FFC
3E88
3E50
21FC
3E20
23FC
3E20
2120
7FFC
0380
0D60
711C
ENDCHAR
STARTCHAR 02-15-77
ENCODING 12141
SWIDTH 960 0
DWIDTH 14 0
BBX 14 14 0 -2
BITMAP
1020
17B8
1148
7DFC
1254
1FD4
32FC
3B24
3AD4
5278
52B8
1254
1294
1660
ENDCHAR
STARTCHAR 02-15-78
ENCODING 12142
SWIDTH 960 0
DWIDTH 14 0
BBX 14 14 0 -2
BITMAP
1120
1138
17E0
7AB8
1288
17F8
3820
3FB8
34A0
57B8
54A0
17B8
14A4
159C
ENDCHAR
STARTCHAR 02-15-79
ENCODING 12143
SWIDTH 960 0
DWIDTH 14 0
BBX 14 14 0 -2
BITMAP
0018
3DE8
2524
3BF8
2BFC
2408
27FC
39F8
2548
2534
29F0
7FFC
0920
3118
ENDCHAR
STARTCHAR 02-15-80
ENCODING 12144
SWIDTH 960 0
DWIDTH 14 0
BBX 14 14 0 -2
BITMAP
1200
1278
17C8
7D48
17F8
1248
37F8
3D48
3FF8
5530
57B0
1554
17D4
148C
ENDCHAR
STARTCHAR 02-15-81
ENCODING 12145
SWIDTH 960 0
DWIDTH 14 0
BBX 14 14 0 -2
BITMAP
1000
13B8
12A8
7FB8
13B8
1AA8
37B8
3520
31FC
5320
55F8
19F8
1120
11FC
ENDCHAR
STARTCHAR 02-15-82
ENCODING 12146
SWIDTH 960 0
DWIDTH 14 0
BBX 14 14 0 -2
BITMAP
1000
17F8
1548
7FF8
1248
12D0
34FC
3B50
3AFC
57D0
577C
16D0
1A7C
1240
ENDCHAR
STARTCHAR 02-15-83
ENCODING 12147
SWIDTH 960 0
DWIDTH 14 0
BBX 14 14 0 -2
BITMAP
13BC
1000
13BC
7FB4
1040
1BFC
36A0
37F8
32A8
53F8
52E4
12B8
14E4
1B1C
ENDCHAR
STARTCHAR 02-15-84
ENCODING 12148
SWIDTH 960 0
DWIDTH 14 0
BBX 14 14 0 -2
BITMAP
1330
13B8
1550
7FFC
1330
1BB4
354C
35F0
3110
51F0
51F0
11F0
1190
1608
ENDCHAR
STARTCHAR 02-15-85
ENCODING 12149
SWIDTH 960 0
DWIDTH 14 0
BBX 14 14 0 -2
BITMAP
1000
17FC
13F8
7EA8
12E8
1280
37F8
3BA8
3FF8
5568
57F8
1FE8
1148
1198
ENDCHAR
STARTCHAR 02-15-86
ENCODING 12150
SWIDTH 960 0
DWIDTH 14 0
BBX 14 14 0 -2
BITMAP
1110
17FC
1110
7FBC
17BC
14A4
37BC
3C44
3DF4
55F4
5554
15F4
14E4
155C
ENDCHAR
STARTCHAR 02-15-87
ENCODING 12151
SWIDTH 960 0
DWIDTH 14 0
BBX 14 14 0 -2
BITMAP
0840
0840
0840
3E40
08FC
08A8
0930
7F20
1020
1460
1250
2690
7908
0104
ENDCHAR
STARTCHAR 02-15-88
ENCODING 12152
SWIDTH 960 0
DWIDTH 14 0
BBX 14 14 0 -2
BITMAP
0840
0840
0840
7F40
08FC
09A8
3E30
0020
3E20
2260
2250
2290
3F08
2204
ENDCHAR
STARTCHAR 02-15-89
ENCODING 12153
SWIDTH 960 0
DWIDTH 14 0
BBX 14 14 0 -2
BITMAP
0840
7F40
0040
1E40
12FC
1EA8
0130
3F20
2120
3D60
3550
3D90
2108
2304
ENDCHAR
STARTCHAR 02-15-90
ENCODING 12154
SWIDTH 960 0
DWIDTH 14 0
BBX 14 14 0 -2
BITMAP
0840
2940
2940
5A40
14FC
22A8
5130
1220
36A0
3B60
5250
3690
2D08
4884
ENDCHAR
STARTCHAR 02-15-91
ENCODING 12155
SWIDTH 960 0
DWIDTH 14 0
BBX 14 14 0 -2
BITMAP
0100
1100
11F8
1100
7FFC
0100
0FE0
0A20
0920
7FFC
0920
1120
2120
4060
ENDCHAR
STARTCHAR 02-15-92
ENCODING 12156
SWIDTH 960 0
DWIDTH 14 0
BBX 14 14 0 -2
BITMAP
0820
09FC
0820
28F8
2820
2FFC
28F8
2888
28F8
28F8
2888
2EF8
30C8
6304
ENDCHAR
STARTCHAR 02-15-93
ENCODING 12157
SWIDTH 960 0
DWIDTH 14 0
BBX 14 14 0 -2
BITMAP
0100
0100
01F0
0100
0500
07E0
0820
1420
2240
0380
0100
0200
0C00
3000
ENDCHAR
STARTCHAR 02-15-94
ENCODING 12158
SWIDTH 960 0
DWIDTH 14 0
BBX 14 14 0 -2
BITMAP
0000
7FE0
1120
1124
1D24
261C
2400
57F0
1910
0920
10C0
10C0
2130
460C
ENDCHAR
STARTCHAR 02-78-01
ENCODING 28193
SWIDTH 960 0
DWIDTH 14 0
BBX 14 14 0 -2
BITMAP
0000
7FFC
1080
1080
1DDC
2524
27B4
56A8
1AA8
0BB4
1224
1040
27FC
4000
ENDCHAR
STARTCHAR 02-78-02
ENCODING 28194
SWIDTH 960 0
DWIDTH 14 0
BBX 14 14 0 -2
BITMAP
0040
7C40
10A0
1110
1FF8
2404
27B8
56A8
1AA8
0BB8
1110
1198
2264
4444
ENDCHAR
STARTCHAR 02-78-03
ENCODING 28195
SWIDTH 960 0
DWIDTH 14 0
BBX 14 14 0 -2
BITMAP
1000
20F0
7C90
4494
7D14
460C
7C00
47F8
0088
4C50
7050
4020
44D0
3D0C
ENDCHAR
STARTCHAR 02-78-04
ENCODING 28196
SWIDTH 960 0
DWIDTH 14 0
BBX 14 14 0 -2
BITMAP
1200
0CF0
7A90
0A94
7F14
100C
1F00
33F8
5E88
1250
1E50
1220
12D0
170C
ENDCHAR
STARTCHAR 02-78-05
ENCODING 28197
SWIDTH 960 0
DWIDTH 14 0
BBX 14 14 0 -2
BITMAP
0800
0870
3E50
0A54
0C94
7F0C
0A00
1FF8
3288
5E50
1250
1220
1E50
128C
ENDCHAR
STARTCHAR 02-78-06
ENCODING 28198
SWIDTH 960 0
DWIDTH 14 0
BBX 14 14 0 -2
BITMAP
1000
66F0
4290
7E94
4314
7E0C
4300
13F8
5488
3850
7E50
3820
34D0
530C
ENDCHAR
STARTCHAR 02-78-07
ENCODING 28199
SWIDTH 960 0
DWIDTH 14 0
BBX 14 14 0 -2
BITMAP
0840
10B8
2FA8
2DA8
2DE8
3FCC
3F80
2DFC
2DA4
2FA8
74D8
1590
14A8
24C4
ENDCHAR
STARTCHAR 02-78-08
ENCODING 28200
SWIDTH 960 0
DWIDTH 14 0
BBX 14 14 0 -2
BITMAP
3F70
2854
2E8C
3FF8
2448
2A30
3FCC
0000
3FF8
0920
0920
17D0
2108
7FFC
ENDCHAR
STARTCHAR 02-78-09
ENCODING 28201
SWIDTH 960 0
DWIDTH 14 0
BBX 14 14 0 -2
BITMAP
03C0
0480
3FE0
0820
0FE8
0EF0
0884
7FFC
0480
3FF0
1110
1FF4
048C
787C
ENDCHAR
STARTCHAR 02-78-10
ENCODING 28202
SWIDTH 960 0
DWIDTH 14 0
BBX 14 14 0 -2
BITMAP
0008
7F10
12E0
1240
1E78
13C0
1240
1E40
127C
13C0
1E40
7244
0244
023C
ENDCHAR
STARTCHAR 02-78-11
ENCODING 28203
SWIDTH 960 0
DWIDTH 14 0
BBX 14 14 0 -2
BITMAP
0420
0828
7024
13FC
1C20
70A8
10A8
1CE8
73B0
1094
111C
122C
1044
0FFC
ENDCHAR
STARTCHAR 02-78-12
ENCODING 28204
SWIDTH 960 0
DWIDTH 14 0
BBX 14 14 0 -2
BITMAP
1040
1150
1148
7A4C
14D4
1060
1198
1FE0
1078
73C0
107C
17C0
1044
303C
ENDCHAR
STARTCHAR 02-78-13
ENCODING 28205
SWIDTH 960 0
DWIDTH 14 0
BBX 14 14 0 -2
BITMAP
0480
0880
71F8
1248
1D58
70E8
1048
1DF8
70E8
1158
1258
1074
1004
0FFC
ENDCHAR
STARTCHAR 02-78-14
ENCODING 28206
SWIDTH 960 0
DWIDTH 14 0
BBX 14 14 0 -2
BITMAP
0840
3E7C
7FD0
1C30
2ACC
5FF8
1060
1780
11F0
1F00
11F8
2F04
41FC
0000
ENDCHAR
STARTCHAR 02-78-15
ENCODING 28207
SWIDTH 960 0
DWIDTH 14 0
BBX 14 14 0 -2
BITMAP
0440
0BFC
71F8
11F8
1D98
71F8
10F0
1C90
70F0
1090
10F0
13FC
1004
0FFC
ENDCHAR
STARTCHAR 02-78-16
ENCODING 28208
SWIDTH 960 0
DWIDTH 14 0
BBX 14 14 0 -2
BITMAP
1F08
1570
1F10
7F9C
5BF0
7B90
7B90
041C
3FF0
2490
4F10
1914
0614
7FCC
ENDCHAR
STARTCHAR 02-78-17
ENCODING 28209
SWIDTH 960 0
DWIDTH 14 0
BBX 14 14 0 -2
BITMAP
0200
0100
0080
1080
0800
0400
0400
0040
0080
0100
0100
0200
0200
0400
ENDCHAR
STARTCHAR 02-78-18
ENCODING 28210
SWIDTH 960 0
DWIDTH 14 0
BBX 14 14 0 -2
BITMAP
0000
0FE0
0040
0188
0108
7F90
0560
0540
0920
1110
2108
4104
0100
0300
ENDCHAR
STARTCHAR 02-78-19
ENCODING 28211
SWIDTH 960 0
DWIDTH 14 0
BBX 14 14 0 -2
BITMAP
0100
0100
0100
2110
1110
1120
03C0
0580
0940
1120
2110
410C
0100
0300
ENDCHAR
STARTCHAR 02-78-20
ENCODING 28212
SWIDTH 960 0
DWIDTH 14 0
BBX 14 14 0 -2
BITMAP
11C0
0840
0840
4040
2040
2040
0040
08E0
08A0
10A0
1110
2110
2208
2404
ENDCHAR
STARTCHAR 02-78-21
ENCODING 28213
SWIDTH 960 0
DWIDTH 14 0
BBX 14 14 0 -2
BITMAP
1100
0900
0900
4100
21E0
2720
0120
0920
0920
1120
1224
2224
2424
281C
ENDCHAR
STARTCHAR 02-78-22
ENCODING 28214
SWIDTH 960 0
DWIDTH 14 0
BBX 14 14 0 -2
BITMAP
1080
0880
0880
47F0
2090
2290
0190
0890
08D0
1150
1110
2114
2214
240C
ENDCHAR
STARTCHAR 02-78-23
ENCODING 28215
SWIDTH 960 0
DWIDTH 14 0
BBX 14 14 0 -2
BITMAP
1000
0BF0
0910
4110
2110
2110
0150
0990
0B10
1110
1114
220C
220C
2404
ENDCHAR
STARTCHAR 02-78-24
ENCODING 28216
SWIDTH 960 0
DWIDTH 14 0
BBX 14 14 0 -2
BITMAP
11C0
0840
0840
43F8
2248
2248
0248
0AA8
0A98
1318
1208
2208
2208
2218
ENDCHAR
STARTCHAR 02-78-25
ENCODING 28217
SWIDTH 960 0
DWIDTH 14 0
BBX 14 14 0 -2
BITMAP
1000
0BF8
0800
4000
2000
27FC
0080
0880
08A0
1110
1108
2238
2FC4
2004
ENDCHAR
STARTCHAR 02-78-26
ENCODING 28218
SWIDTH 960 0
DWIDTH 14 0
BBX 14 14 0 -2
BITMAP
1000
0BFC
0A08
4400
21E0
2120
0120
0920
0920
1120
1220
2224
2424
281C
ENDCHAR
STARTCHAR 02-78-27
ENCODING 28219
SWIDTH 960 0
DWIDTH 14 0
BBX 14 14 0 -2
BITMAP
1080
0880
0BE0
40A0
2124
2124
021C
0840
0840
13FC
1040
2040
2040
2040
ENDCHAR
STARTCHAR 02-78-28
ENCODING 28220
SWIDTH 960 0
DWIDTH 14 0
BBX 14 14 0 -2
BITMAP
1000
0FFC
0840
4240
2278
2248
0248
0A48
0BF8
1208
1208
2008
2008
2030
ENDCHAR
STARTCHAR 02-78-29
ENCODING 28221
SWIDTH 960 0
DWIDTH 14 0
BBX 14 14 0 -2
BITMAP
1100
0900
0900
41F8
22A8
22A8
04A8
0928
0928
1248
1048
2088
2108
2030
ENDCHAR
STARTCHAR 02-78-30
ENCODING 28222
SWIDTH 960 0
DWIDTH 14 0
BBX 14 14 0 -2
BITMAP
0000
3FF8
0100
7FFC
0280
0440
1930
611C
1120
0940
07C0
1930
610C
0300
ENDCHAR
STARTCHAR 02-78-31
ENCODING 28223
SWIDTH 960 0
DWIDTH 14 0
BBX 14 14 0 -2
BITMAP
1050
0848
0848
47FC
2040
2040
0150
0950
0950
1154
1254
224C
2440
2040
ENDCHAR
STARTCHAR 02-78-32
ENCODING 28224
SWIDTH 960 0
DWIDTH 14 0
BBX 14 14 0 -2
BITMAP
1000
0BF8
0A08
4208
22E8
22A8
02A8
0AA8
0AA8
12E8
12A8
2208
2208
2218
ENDCHAR
STARTCHAR 02-78-33
ENCODING 28225
SWIDTH 960 0
DWIDTH 14 0
BBX 14 14 0 -2
BITMAP
1040
0F40
0D40
45F8
2648
2648
0548
0D48
0D48
1548
1688
2488
2508
2630
ENDCHAR
STARTCHAR 02-78-34
ENCODING 28226
SWIDTH 960 0
DWIDTH 14 0
BBX 14 14 0 -2
BITMAP
1080
0880
0880
47FC
2110
2110
0248
0A48
0C44
10A0
1090
2118
27E4
2004
ENDCHAR
STARTCHAR 02-78-35
ENCODING 28227
SWIDTH 960 0
DWIDTH 14 0
BBX 14 14 0 -2
BITMAP
1040
0880
0B38
42A8
22A8
22A8
02A8
0AA8
0AA8
13A8
14B8
2120
2120
2220
ENDCHAR
STARTCHAR 02-78-36
ENCODING 28228
SWIDTH 960 0
DWIDTH 14 0
BBX 14 14 0 -2
BITMAP
10A0
08A0
08A0
40A4
22A4
22E8
02B0
0AA0
0AA0
12A0
12A0
22E4
2324
261C
ENDCHAR
STARTCHAR 02-78-37
ENCODING 28229
SWIDTH 960 0
DWIDTH 14 0
BBX 14 14 0 -2
BITMAP
1018
09E0
0920
4120
2120
21FC
0120
0920
0920
11D0
1614
200C
27FC
2004
ENDCHAR
STARTCHAR 02-78-38
ENCODING 28230
SWIDTH 960 0
DWIDTH 14 0
BBX 14 14 0 -2
BITMAP
1040
0940
0940
43F8
2240
2440
0040
0BF8
0840
1040
1040
2040
27FC
2000
ENDCHAR
STARTCHAR 02-78-39
ENCODING 28231
SWIDTH 960 0
DWIDTH 14 0
BBX 14 14 0 -2
BITMAP
1040
0840
0BFC
4208
2400
20E0
0020
0920
0920
1110
1110
2210
2208
2404
ENDCHAR
STARTCHAR 02-78-40
ENCODING 28232
SWIDTH 960 0
DWIDTH 14 0
BBX 14 14 0 -2
BITMAP
1088
0888
0888
4108
21FC
2308
0348
0D28
0928
1108
1108
2108
2108
2118
ENDCHAR
STARTCHAR 02-78-41
ENCODING 28233
SWIDTH 960 0
DWIDTH 14 0
BBX 14 14 0 -2
BITMAP
1000
0BF8
0848
4048
2088
2330
0000
0FBC
0A94
1294
1294
24A4
24A4
29CC
ENDCHAR
STARTCHAR 02-78-42
ENCODING 28234
SWIDTH 960 0
DWIDTH 14 0
BBX 14 14 0 -2
BITMAP
1020
0840
09F0
4190
2150
2150
0110
0FFC
0950
1150
1150
2250
2210
2430
ENDCHAR
STARTCHAR 02-78-43
ENCODING 28235
SWIDTH 960 0
DWIDTH 14 0
BBX 14 14 0 -2
BITMAP
1080
0880
0880
47FC
2080
21F8
0108
0B10
0B10
15FC
1110
2110
2110
2130
ENDCHAR
STARTCHAR 02-78-44
ENCODING 28236
SWIDTH 960 0
DWIDTH 14 0
BBX 14 14 0 -2
BITMAP
11C0
0840
08A0
40A0
2110
2208
07FC
0840
0840
11F0
1040
2040
27FC
2000
ENDCHAR
STARTCHAR 02-78-45
ENCODING 28237
SWIDTH 960 0
DWIDTH 14 0
BBX 14 14 0 -2
BITMAP
1000
0FFC
0840
4080
23F8
2208
0208
0A08
0BF8
1208
1208
2208
23F8
2208
ENDCHAR
STARTCHAR 02-78-46
ENCODING 28238
SWIDTH 960 0
DWIDTH 14 0
BBX 14 14 0 -2
BITMAP
1080
0880
0FFC
4100
2100
23F8
0308
0DF8
0908
11F8
1108
2108
2108
2118
ENDCHAR
STARTCHAR 02-78-47
ENCODING 28239
SWIDTH 960 0
DWIDTH 14 0
BBX 14 14 0 -2
BITMAP
1000
0FBC
0910
4110
2110
21D0
073C
0910
0910
1110
1110
2210
2210
2410
ENDCHAR
STARTCHAR 02-78-48
ENCODING 28240
SWIDTH 960 0
DWIDTH 14 0
BBX 14 14 0 -2
BITMAP
0800
09F8
0F48
7848
0E48
3888
0F08
7130
0108
7F90
0560
1930
610C
0700
ENDCHAR
STARTCHAR 02-78-49
ENCODING 28241
SWIDTH 960 0
DWIDTH 14 0
BBX 14 14 0 -2
BITMAP
1040
0840
0BF8
4040
2040
27FC
0040
0840
0BF8
1040
1040
2040
27FC
2000
ENDCHAR
STARTCHAR 02-78-50
ENCODING 28242
SWIDTH 960 0
DWIDTH 14 0
BBX 14 14 0 -2
BITMAP
1040
0840
08A0
4110
23F8
2404
03F8
0820
0840
11F0
1110
2110
21F0
2110
ENDCHAR
STARTCHAR 02-78-51
ENCODING 28243
SWIDTH 960 0
DWIDTH 14 0
BBX 14 14 0 -2
BITMAP
1000
0BF8
0A08
4208
23F8
2248
0040
0A40
0A78
1240
1240
2340
24C0
283C
ENDCHAR
STARTCHAR 02-78-52
ENCODING 28244
SWIDTH 960 0
DWIDTH 14 0
BBX 14 14 0 -2
BITMAP
1010
09A0
0870
4388
2080
27FC
0140
09F8
0B48
1548
1148
2170
2040
2040
ENDCHAR
STARTCHAR 02-78-53
ENCODING 28245
SWIDTH 960 0
DWIDTH 14 0
BBX 14 14 0 -2
BITMAP
1088
0928
0F28
4128
2128
2FE8
0128
0BA8
0B68
1528
1508
2908
2108
2118
ENDCHAR
STARTCHAR 02-78-54
ENCODING 28246
SWIDTH 960 0
DWIDTH 14 0
BBX 14 14 0 -2
BITMAP
1000
09F8
0908
4108
21F8
2108
01F8
0908
09F8
10A0
10A0
2124
2224
241C
ENDCHAR
STARTCHAR 02-78-55
ENCODING 28247
SWIDTH 960 0
DWIDTH 14 0
BBX 14 14 0 -2
BITMAP
1108
0908
0910
47E0
2108
2108
0390
0B60
0B44
1504
1508
2110
2120
2140
ENDCHAR
STARTCHAR 02-78-56
ENCODING 28248
SWIDTH 960 0
DWIDTH 14 0
BBX 14 14 0 -2
BITMAP
1000
0BF8
0848
4248
2488
2108
0230
0840
08A0
12A8
1284
2494
2090
2070
ENDCHAR
STARTCHAR 02-78-57
ENCODING 28249
SWIDTH 960 0
DWIDTH 14 0
BBX 14 14 0 -2
BITMAP
1040
0848
0BF8
4048
2050
27FC
0080
09F0
0A20
1440
13FC
2040
2040
20C0
ENDCHAR
STARTCHAR 02-78-58
ENCODING 28250
SWIDTH 960 0
DWIDTH 14 0
BBX 14 14 0 -2
BITMAP
1040
0840
0FFC
4040
23F8
2248
0248
0BF8
0AE8
10E0
1150
2248
2444
2040
ENDCHAR
STARTCHAR 02-78-59
ENCODING 28251
SWIDTH 960 0
DWIDTH 14 0
BBX 14 14 0 -2
BITMAP
1080
08A0
0890
4138
27C8
2100
01F8
0A40
0C40
17FC
1040
20A0
2110
260C
ENDCHAR
STARTCHAR 02-78-60
ENCODING 28252
SWIDTH 960 0
DWIDTH 14 0
BBX 14 14 0 -2
BITMAP
1000
09F0
0910
41F0
2110
21F0
0110
0800
0BF8
1040
1040
2040
27FC
2000
ENDCHAR
STARTCHAR 02-78-61
ENCODING 28253
SWIDTH 960 0
DWIDTH 14 0
BBX 14 14 0 -2
BITMAP
1040
0860
0890
43E8
2040
23FC
00A0
0910
0A4C
11A0
1048
2190
2060
2380
ENDCHAR
STARTCHAR 02-78-62
ENCODING 28254
SWIDTH 960 0
DWIDTH 14 0
BBX 14 14 0 -2
BITMAP
1000
0FBC
0A94
45AC
2294
24A4
0000
0BF8
0908
1110
10E0
2060
2190
260C
ENDCHAR
STARTCHAR 02-78-63
ENCODING 28255
SWIDTH 960 0
DWIDTH 14 0
BBX 14 14 0 -2
BITMAP
1038
0BC0
0840
47FC
20A0
2110
0288
1484
10D0
17E0
22A0
2290
448C
4180
ENDCHAR
STARTCHAR 02-78-64
ENCODING 28256
SWIDTH 960 0
DWIDTH 14 0
BBX 14 14 0 -2
BITMAP
1080
0900
0F38
4128
2128
27E8
0128
0BA8
0B68
1328
1528
2538
2128
2100
ENDCHAR
STARTCHAR 02-78-65
ENCODING 28257
SWIDTH 960 0
DWIDTH 14 0
BBX 14 14 0 -2
BITMAP
1040
0840
0BFC
4208
25F0
2110
0110
09F0
0900
11F8
1108
2108
21F8
2108
ENDCHAR
STARTCHAR 02-78-66
ENCODING 28258
SWIDTH 960 0
DWIDTH 14 0
BBX 14 14 0 -2
BITMAP
2008
17E8
1468
4468
27E8
2528
0528
17E8
1768
2B68
2B68
4388
4308
4118
ENDCHAR
STARTCHAR 02-78-67
ENCODING 28259
SWIDTH 960 0
DWIDTH 14 0
BBX 14 14 0 -2
BITMAP
1040
0840
0BFC
4208
2100
21F8
0168
0968
0AE8
12B8
10A0
2124
2224
241C
ENDCHAR
STARTCHAR 02-78-68
ENCODING 28260
SWIDTH 960 0
DWIDTH 14 0
BBX 14 14 0 -2
BITMAP
1000
09F0
0910
41F0
2110
21F0
0000
0BFC
0810
13FC
1110
2090
2010
2030
ENDCHAR
STARTCHAR 02-78-69
ENCODING 28261
SWIDTH 960 0
DWIDTH 14 0
BBX 14 14 0 -2
BITMAP
1088
0888
0910
47BC
2110
2110
01D0
0F3C
0910
1110
1210
2210
2410
2810
ENDCHAR
STARTCHAR 02-78-70
ENCODING 28262
SWIDTH 960 0
DWIDTH 14 0
BBX 14 14 0 -2
BITMAP
1000
0BFC
0A04
43FC
2224
22A8
02A8
0AF8
0AA8
1324
1524
2524
29FC
2104
ENDCHAR
STARTCHAR 02-78-71
ENCODING 28263
SWIDTH 960 0
DWIDTH 14 0
BBX 14 14 0 -2
BITMAP
1040
0840
0BF8
4040
21F0
20A0
07FC
0950
0BF8
1444
13F8
2040
2040
2040
ENDCHAR
STARTCHAR 02-78-72
ENCODING 28264
SWIDTH 960 0
DWIDTH 14 0
BBX 14 14 0 -2
BITMAP
1000
09F0
0910
41F0
2110
21F0
0110
0800
0BF8
1040
17FC
20A0
2110
260C
ENDCHAR
STARTCHAR 02-78-73
ENCODING 28265
SWIDTH 960 0
DWIDTH 14 0
BBX 14 14 0 -2
BITMAP
1000
09F0
0910
41F0
2110
21F0
0110
0800
0BF8
1208
13F8
2208
23F8
2208
ENDCHAR
STARTCHAR 02-78-74
ENCODING 28266
SWIDTH 960 0
DWIDTH 14 0
BBX 14 14 0 -2
BITMAP
10A0
08A0
08A0
43F8
22A8
22A8
03F8
0AA8
0AA8
17FC
1000
2110
2208
2408
ENDCHAR
STARTCHAR 02-78-75
ENCODING 28267
SWIDTH 960 0
DWIDTH 14 0
BBX 14 14 0 -2
BITMAP
1040
0840
0BF8
4040
27FC
20A0
0124
0E9C
08F0
1190
1660
2060
2190
260C
ENDCHAR
STARTCHAR 02-78-76
ENCODING 28268
SWIDTH 960 0
DWIDTH 14 0
BBX 14 14 0 -2
BITMAP
1040
0840
0FFC
4150
2150
2358
02E4
0C44
08E0
10D0
1150
2248
2444
2040
ENDCHAR
STARTCHAR 02-78-77
ENCODING 28269
SWIDTH 960 0
DWIDTH 14 0
BBX 14 14 0 -2
BITMAP
1110
0910
0FFC
4110
2040
23F8
0248
0A48
0FFC
1040
1060
2090
2108
2604
ENDCHAR
STARTCHAR 02-78-78
ENCODING 28270
SWIDTH 960 0
DWIDTH 14 0
BBX 14 14 0 -2
BITMAP
1110
08A0
0FFC
4040
2080
23F8
0208
0BF8
0A08
13F8
1208
2208
23F8
2208
ENDCHAR
STARTCHAR 02-78-79
ENCODING 28271
SWIDTH 960 0
DWIDTH 14 0
BBX 14 14 0 -2
BITMAP
1000
0BF8
0A38
43C8
2248
23F8
0358
0B58
0BF8
136C
125C
247C
2784
2804
ENDCHAR
STARTCHAR 02-78-80
ENCODING 28272
SWIDTH 960 0
DWIDTH 14 0
BBX 14 14 0 -2
BITMAP
1040
0840
0FFC
4110
20A0
27FC
0444
0BF8
0A48
1248
1248
2270
2040
2040
ENDCHAR
STARTCHAR 02-78-81
ENCODING 28273
SWIDTH 960 0
DWIDTH 14 0
BBX 14 14 0 -2
BITMAP
1020
0820
0BFC
4288
2250
23FC
0220
0AA8
0AA8
12A8
14F8
24A8
2840
2080
ENDCHAR
STARTCHAR 02-78-82
ENCODING 28274
SWIDTH 960 0
DWIDTH 14 0
BBX 14 14 0 -2
BITMAP
1040
0840
0BFC
4208
25F0
2000
01F0
0910
09F0
1110
11F0
2000
27FC
2000
ENDCHAR
STARTCHAR 02-78-83
ENCODING 28275
SWIDTH 960 0
DWIDTH 14 0
BBX 14 14 0 -2
BITMAP
1108
0888
0890
47FC
2040
23F8
0040
0FFC
0840
17FC
10A0
2090
2108
2604
ENDCHAR
STARTCHAR 02-78-84
ENCODING 28276
SWIDTH 960 0
DWIDTH 14 0
BBX 14 14 0 -2
BITMAP
1110
0910
0FFC
4110
21F0
2110
01F0
0840
0FFC
10E0
1150
2248
2444
2040
ENDCHAR
STARTCHAR 02-78-85
ENCODING 28277
SWIDTH 960 0
DWIDTH 14 0
BBX 14 14 0 -2
BITMAP
2208
1210
1270
4310
2690
26FC
0690
1A10
1278
2248
2248
4248
4278
4248
ENDCHAR
STARTCHAR 02-78-86
ENCODING 28278
SWIDTH 960 0
DWIDTH 14 0
BBX 14 14 0 -2
BITMAP
1040
0BF0
0890
47FC
2000
21F0
0110
09F0
0820
13F8
1220
23FC
2020
2020
ENDCHAR
STARTCHAR 02-78-87
ENCODING 28279
SWIDTH 960 0
DWIDTH 14 0
BBX 14 14 0 -2
BITMAP
1040
0840
08A0
41F0
2208
25F4
0110
09F0
0910
11F4
1148
2130
21D0
260C
ENDCHAR
STARTCHAR 02-78-88
ENCODING 28280
SWIDTH 960 0
DWIDTH 14 0
BBX 14 14 0 -2
BITMAP
1000
0BFC
0820
4040
21F8
2108
01F8
0908
09F8
1108
11F8
2090
2108
2604
ENDCHAR
STARTCHAR 02-78-89
ENCODING 28281
SWIDTH 960 0
DWIDTH 14 0
BBX 14 14 0 -2
BITMAP
1000
0FF8
0A90
42F8
2580
28FC
0000
0BF0
0A10
13F0
1210
23F0
2210
2230
ENDCHAR
STARTCHAR 02-78-90
ENCODING 28282
SWIDTH 960 0
DWIDTH 14 0
BBX 14 14 0 -2
BITMAP
10E0
0920
0910
43F8
2494
2090
0110
0A60
0BF8
12A8
12A8
22A8
27FC
2000
ENDCHAR
STARTCHAR 02-78-91
ENCODING 28283
SWIDTH 960 0
DWIDTH 14 0
BBX 14 14 0 -2
BITMAP
1110
0890
08A0
47FC
2000
23A8
02A8
0AA8
0BA8
12A8
13A8
2288
2288
2398
ENDCHAR
STARTCHAR 02-78-92
ENCODING 28284
SWIDTH 960 0
DWIDTH 14 0
BBX 14 14 0 -2
BITMAP
2208
1208
1788
427C
2208
2F88
0248
1228
1728
2208
2208
4388
4E08
4018
ENDCHAR
STARTCHAR 02-78-93
ENCODING 28285
SWIDTH 960 0
DWIDTH 14 0
BBX 14 14 0 -2
BITMAP
1000
0BF8
0A08
43F8
2220
23FC
0210
0B8C
0FFC
1208
13F8
2208
23F8
2208
ENDCHAR
STARTCHAR 02-78-94
ENCODING 28286
SWIDTH 960 0
DWIDTH 14 0
BBX 14 14 0 -2
BITMAP
1018
0BE4
0A44
4128
2130
2000
02F8
0A88
0A88
12F8
1288
2288
22F8
2288
ENDCHAR
STARTCHAR 02-79-01
ENCODING 28449
SWIDTH 960 0
DWIDTH 14 0
BBX 14 14 0 -2
BITMAP
1090
0920
0FFC
40A0
23F8
20A8
07FC
08A8
0BF8
10A8
11B0
22A8
24A4
20A0
ENDCHAR
STARTCHAR 02-79-02
ENCODING 28450
SWIDTH 960 0
DWIDTH 14 0
BBX 14 14 0 -2
BITMAP
1000
0FFC
08A0
43F8
22A8
22A8
03F8
0840
0FFC
10E0
1150
2248
2444
2040
ENDCHAR
STARTCHAR 02-79-03
ENCODING 28451
SWIDTH 960 0
DWIDTH 14 0
BBX 14 14 0 -2
BITMAP
1040
0880
0BF0
4210
23F0
2210
03F0
0A10
0BF0
1088
17FC
20C0
2120
2218
ENDCHAR
STARTCHAR 02-79-04
ENCODING 28452
SWIDTH 960 0
DWIDTH 14 0
BBX 14 14 0 -2
BITMAP
2020
1070
1F68
4BA4
2B24
2BF8
0F20
1B20
1BFC
2B20
2F20
4920
4820
4020
ENDCHAR
STARTCHAR 02-79-05
ENCODING 28453
SWIDTH 960 0
DWIDTH 14 0
BBX 14 14 0 -2
BITMAP
1070
0910
0948
4244
2090
21F8
0000
0BB8
0998
12A8
1198
22A8
2088
2198
ENDCHAR
STARTCHAR 02-79-06
ENCODING 28454
SWIDTH 960 0
DWIDTH 14 0
BBX 14 14 0 -2
BITMAP
1100
0900
0BF8
4200
25F0
2000
07F0
0530
0B50
0FF0
1394
134C
252C
2104
ENDCHAR
STARTCHAR 02-79-07
ENCODING 28455
SWIDTH 960 0
DWIDTH 14 0
BBX 14 14 0 -2
BITMAP
1000
0FF8
0C90
44A0
25F8
2720
05F8
0D20
0DF8
1520
15F8
2500
27FC
2400
ENDCHAR
STARTCHAR 02-79-08
ENCODING 28456
SWIDTH 960 0
DWIDTH 14 0
BBX 14 14 0 -2
BITMAP
2110
1110
1290
425C
27E8
2928
0168
1FD8
1110
2590
25A8
4DA8
4944
4384
ENDCHAR
STARTCHAR 02-79-09
ENCODING 28457
SWIDTH 960 0
DWIDTH 14 0
BBX 14 14 0 -2
BITMAP
2240
1240
127C
45C8
2530
2D50
0D8C
1578
1548
2578
2548
4578
4548
4458
ENDCHAR
STARTCHAR 02-79-10
ENCODING 28458
SWIDTH 960 0
DWIDTH 14 0
BBX 14 14 0 -2
BITMAP
1040
0878
0840
43FC
2270
23C4
023C
0A08
0BF0
12A8
13FC
2420
2420
2860
ENDCHAR
STARTCHAR 02-79-11
ENCODING 28459
SWIDTH 960 0
DWIDTH 14 0
BBX 14 14 0 -2
BITMAP
1020
0BFC
0888
4050
23FC
2220
02A0
0AF8
0B20
12F8
1220
2420
25FC
2800
ENDCHAR
STARTCHAR 02-79-12
ENCODING 28460
SWIDTH 960 0
DWIDTH 14 0
BBX 14 14 0 -2
BITMAP
1040
0BF8
0A48
47FC
2248
23F8
03F8
0A48
0BF8
1080
17FC
2190
2070
2788
ENDCHAR
STARTCHAR 02-79-13
ENCODING 28461
SWIDTH 960 0
DWIDTH 14 0
BBX 14 14 0 -2
BITMAP
1120
0FFC
0920
41E0
23F8
2248
03F8
0840
0BF8
1040
13F8
2040
27FC
2000
ENDCHAR
STARTCHAR 02-79-14
ENCODING 28462
SWIDTH 960 0
DWIDTH 14 0
BBX 14 14 0 -2
BITMAP
1000
0BFC
0BF8
4200
23FC
22A8
02D0
0B8C
0AF8
1288
12F8
24F8
2488
2898
ENDCHAR
STARTCHAR 02-79-15
ENCODING 28463
SWIDTH 960 0
DWIDTH 14 0
BBX 14 14 0 -2
BITMAP
1040
0BFC
0AA8
44A8
2118
2240
03F8
0840
0FFC
1040
13F8
2040
27FC
2000
ENDCHAR
STARTCHAR 02-79-16
ENCODING 28464
SWIDTH 960 0
DWIDTH 14 0
BBX 14 14 0 -2
BITMAP
1040
0BF8
0A48
43F8
2040
23F8
0248
0BF8
0840
1090
1548
2554
2914
20F0
ENDCHAR
STARTCHAR 02-79-17
ENCODING 28465
SWIDTH 960 0
DWIDTH 14 0
BBX 14 14 0 -2
BITMAP
1040
0A48
0A48
43F8
2298
2120
03FC
0E20
0BF8
1220
13F8
2220
23FC
2200
ENDCHAR
STARTCHAR 02-79-18
ENCODING 28466
SWIDTH 960 0
DWIDTH 14 0
BBX 14 14 0 -2
BITMAP
1040
0BF8
0920
40A0
27FC
2000
01F0
0910
09F0
11F0
1110
21F0
2124
261C
ENDCHAR
STARTCHAR 02-79-19
ENCODING 28467
SWIDTH 960 0
DWIDTH 14 0
BBX 14 14 0 -2
BITMAP
1080
09F0
0A20
47F8
2248
23F8
0040
0988
0AD0
1160
16B0
2128
2624
20C0
ENDCHAR
STARTCHAR 02-79-20
ENCODING 28468
SWIDTH 960 0
DWIDTH 14 0
BBX 14 14 0 -2
BITMAP
1120
0BFC
0A20
47F8
2620
2BF8
0220
0BFC
0840
17FC
10E0
2150
264C
2040
ENDCHAR
STARTCHAR 02-79-21
ENCODING 28469
SWIDTH 960 0
DWIDTH 14 0
BBX 14 14 0 -2
BITMAP
1080
0FF8
0888
47FC
2088
27F8
05A8
0FB8
0C88
17F8
1488
27B8
25A8
29A8
ENDCHAR
STARTCHAR 02-79-22
ENCODING 28470
SWIDTH 960 0
DWIDTH 14 0
BBX 14 14 0 -2
BITMAP
1000
0BB8
0AA8
43B8
2220
2264
01DC
0910
0BF8
1110
17FC
2110
2208
2408
ENDCHAR
STARTCHAR 02-79-23
ENCODING 28471
SWIDTH 960 0
DWIDTH 14 0
BBX 14 14 0 -2
BITMAP
1040
0880
0BF8
42A8
22A8
27FC
0060
09C8
0950
1660
10E0
2150
264C
2040
ENDCHAR
STARTCHAR 02-79-24
ENCODING 28472
SWIDTH 960 0
DWIDTH 14 0
BBX 14 14 0 -2
BITMAP
1110
0910
0FFC
4330
23B8
2554
0554
0910
0BF0
1210
13F0
2210
23F0
2210
ENDCHAR
STARTCHAR 02-79-25
ENCODING 28473
SWIDTH 960 0
DWIDTH 14 0
BBX 14 14 0 -2
BITMAP
1108
0890
0FFC
42A8
21A8
21B0
07FC
0800
0BF8
1208
13F8
2208
23F8
2208
ENDCHAR
STARTCHAR 02-79-26
ENCODING 28474
SWIDTH 960 0
DWIDTH 14 0
BBX 14 14 0 -2
BITMAP
1000
0BF8
0840
47FC
2444
2B58
0358
0800
0BF8
1000
17FC
2090
2130
27C8
ENDCHAR
STARTCHAR 02-79-27
ENCODING 28475
SWIDTH 960 0
DWIDTH 14 0
BBX 14 14 0 -2
BITMAP
2000
1F78
1948
4F78
2948
2F78
0888
1888
1BE8
29C8
29C8
4AA8
4888
4898
ENDCHAR
STARTCHAR 02-79-28
ENCODING 28476
SWIDTH 960 0
DWIDTH 14 0
BBX 14 14 0 -2
BITMAP
2420
12F8
1220
41FC
2888
2450
05FC
1E20
12F8
2220
23FC
4220
4520
48FC
ENDCHAR
STARTCHAR 02-79-29
ENCODING 28477
SWIDTH 960 0
DWIDTH 14 0
BBX 14 14 0 -2
BITMAP
1040
0FFC
0800
43F8
22E8
22A8
02E8
0BF8
0BF0
1040
17FC
21F0
264C
2040
ENDCHAR
STARTCHAR 02-79-30
ENCODING 28478
SWIDTH 960 0
DWIDTH 14 0
BBX 14 14 0 -2
BITMAP
2200
13BC
1494
4D14
27AC
25C0
05BC
17D0
1590
27FC
2490
4490
4490
4990
ENDCHAR
STARTCHAR 02-79-31
ENCODING 28479
SWIDTH 960 0
DWIDTH 14 0
BBX 14 14 0 -2
BITMAP
1100
09FC
0924
43A8
2290
25AC
0100
0A48
0950
17FC
10E0
2150
264C
2040
ENDCHAR
STARTCHAR 02-79-32
ENCODING 28480
SWIDTH 960 0
DWIDTH 14 0
BBX 14 14 0 -2
BITMAP
1000
0FBC
0A94
45AC
2294
24A4
0040
0FFC
0950
1150
1358
24A4
2110
260C
ENDCHAR
STARTCHAR 02-79-33
ENCODING 28481
SWIDTH 960 0
DWIDTH 14 0
BBX 14 14 0 -2
BITMAP
2104
1108
1FF0
44A0
22A0
233C
0FE8
1228
1FE8
2728
26A8
4AC8
5248
4288
ENDCHAR
STARTCHAR 02-79-34
ENCODING 28482
SWIDTH 960 0
DWIDTH 14 0
BBX 14 14 0 -2
BITMAP
2010
1398
1294
4394
201C
2FF0
0294
1394
1298
2398
2290
43D4
4EAC
4084
ENDCHAR
STARTCHAR 02-79-35
ENCODING 28483
SWIDTH 960 0
DWIDTH 14 0
BBX 14 14 0 -2
BITMAP
2048
1048
1E90
4AFC
2B90
2E90
0AF8
1A90
1E90
2AF8
2A90
4E90
4AFC
4080
ENDCHAR
STARTCHAR 02-79-36
ENCODING 28484
SWIDTH 960 0
DWIDTH 14 0
BBX 14 14 0 -2
BITMAP
1110
0DB4
0BB8
4158
2294
24A4
07FC
0C48
0BF8
10E0
1150
2248
2444
2040
ENDCHAR
STARTCHAR 02-79-37
ENCODING 28485
SWIDTH 960 0
DWIDTH 14 0
BBX 14 14 0 -2
BITMAP
1040
09F0
0910
41F0
21F0
21F0
03F8
0A48
0BF8
13F8
1000
27FC
2110
2210
ENDCHAR
STARTCHAR 02-79-38
ENCODING 28486
SWIDTH 960 0
DWIDTH 14 0
BBX 14 14 0 -2
BITMAP
1110
0FFC
0930
41FC
2320
25F8
01F8
0920
09FC
13F8
1090
2060
20F0
270C
ENDCHAR
STARTCHAR 02-79-39
ENCODING 28487
SWIDTH 960 0
DWIDTH 14 0
BBX 14 14 0 -2
BITMAP
2008
1788
1490
4790
24A4
2788
0208
1FD0
17A4
2484
2788
4588
5950
4320
ENDCHAR
STARTCHAR 02-79-40
ENCODING 28488
SWIDTH 960 0
DWIDTH 14 0
BBX 14 14 0 -2
BITMAP
1248
0A88
0CF0
45B4
22E8
22A8
05B4
0FFC
0840
17FC
10E0
2150
264C
2040
ENDCHAR
STARTCHAR 02-79-41
ENCODING 28489
SWIDTH 960 0
DWIDTH 14 0
BBX 14 14 0 -2
BITMAP
1000
0FFC
0840
41F0
21F0
21F0
07FC
0F58
0AE8
14F4
11A0
2640
21B0
2E0C
ENDCHAR
STARTCHAR 02-79-42
ENCODING 28490
SWIDTH 960 0
DWIDTH 14 0
BBX 14 14 0 -2
BITMAP
1020
0BFC
0A50
43FC
2250
2270
03FC
0AF8
0AA8
12F8
12A8
24F8
24C8
2B04
ENDCHAR
STARTCHAR 02-79-43
ENCODING 28491
SWIDTH 960 0
DWIDTH 14 0
BBX 14 14 0 -2
BITMAP
2200
1FB0
1CB4
4ACC
2FF8
2AA8
0AB0
11CC
17F0
2550
2550
4550
5FFC
4000
ENDCHAR
STARTCHAR 02-79-44
ENCODING 28492
SWIDTH 960 0
DWIDTH 14 0
BBX 14 14 0 -2
BITMAP
1100
09FC
0924
43A8
2290
25AC
0100
0AA0
0BB8
13B8
10A0
23B8
20A0
27FC
ENDCHAR
STARTCHAR 02-79-45
ENCODING 28493
SWIDTH 960 0
DWIDTH 14 0
BBX 14 14 0 -2
BITMAP
2000
1F78
1948
4F78
2948
2F78
0A28
19C8
1DF8
2A48
29E8
4AA8
4CE8
4818
ENDCHAR
STARTCHAR 02-79-46
ENCODING 28494
SWIDTH 960 0
DWIDTH 14 0
BBX 14 14 0 -2
BITMAP
1040
08A0
0910
43F8
2404
27FC
05B4
0FFC
0800
13F8
12A8
23F8
22A8
22B8
ENDCHAR
STARTCHAR 02-79-47
ENCODING 28495
SWIDTH 960 0
DWIDTH 14 0
BBX 14 14 0 -2
BITMAP
10F0
0920
0FF8
4488
27F8
23B0
03E4
0E5C
09E0
13F0
1690
23F4
214C
263C
ENDCHAR
STARTCHAR 02-79-48
ENCODING 28496
SWIDTH 960 0
DWIDTH 14 0
BBX 14 14 0 -2
BITMAP
1040
0FFC
0BB8
42A8
23B8
20A0
03F8
09F0
08A0
17FC
10C8
2730
21D0
270C
ENDCHAR
STARTCHAR 02-79-49
ENCODING 28497
SWIDTH 960 0
DWIDTH 14 0
BBX 14 14 0 -2
BITMAP
2AA8
1FF8
1AA8
4FF8
2FF8
2AA8
0FF8
1FFC
13F0
2210
23F0
4120
4FFC
4000
ENDCHAR
STARTCHAR 02-79-50
ENCODING 28498
SWIDTH 960 0
DWIDTH 14 0
BBX 14 14 0 -2
BITMAP
1140
0D48
0B50
47FC
2220
27F8
03F0
0FFC
0F80
17F8
17C8
24B0
27B0
28CC
ENDCHAR
STARTCHAR 02-79-51
ENCODING 28499
SWIDTH 960 0
DWIDTH 14 0
BBX 14 14 0 -2
BITMAP
2040
17FC
14A0
47F8
27F8
25FC
0554
15AC
164C
25F0
2440
4BF8
4890
53F8
ENDCHAR
STARTCHAR 02-79-52
ENCODING 28500
SWIDTH 960 0
DWIDTH 14 0
BBX 14 14 0 -2
BITMAP
2000
1FFC
17F8
4548
27F8
2500
0FF8
1728
1FB8
2AA8
2FB8
4FE8
4228
4258
ENDCHAR
STARTCHAR 02-79-53
ENCODING 28501
SWIDTH 960 0
DWIDTH 14 0
BBX 14 14 0 -2
BITMAP
2B50
1FFC
1B48
4FD0
2FFC
2B74
0FF4
1034
1FFC
27A0
24A0
47A4
45E4
5E1C
ENDCHAR
STARTCHAR 02-79-54
ENCODING 28502
SWIDTH 960 0
DWIDTH 14 0
BBX 14 14 0 -2
BITMAP
0100
0FE0
0FE0
0FE8
3F90
0D60
731C
0820
3EF8
3EF8
3FFC
7AE8
2CB0
5B6C
ENDCHAR
STARTCHAR 02-79-55
ENCODING 28503
SWIDTH 960 0
DWIDTH 14 0
BBX 14 14 0 -2
BITMAP
2B50
1FD0
1B7C
4FD0
2FFC
2B60
0FE8
1034
1FC0
27BC
24B4
47B4
45F4
5E7C
ENDCHAR
STARTCHAR 02-79-56
ENCODING 28504
SWIDTH 960 0
DWIDTH 14 0
BBX 14 14 0 -2
BITMAP
0000
0000
0000
0000
0000
1490
1248
1248
2124
4124
0000
0000
0000
0000
ENDCHAR
STARTCHAR 02-79-57
ENCODING 28505
SWIDTH 960 0
DWIDTH 14 0
BBX 14 14 0 -2
BITMAP
0100
1110
1110
22A0
0440
1830
648C
0480
0480
0880
0880
1084
2084
407C
ENDCHAR
STARTCHAR 02-79-58
ENCODING 28506
SWIDTH 960 0
DWIDTH 14 0
BBX 14 14 0 -2
BITMAP
0820
0820
0820
0A20
2A20
2CF8
2820
4820
0820
0C20
1220
1220
21FC
4000
ENDCHAR
STARTCHAR 02-79-59
ENCODING 28507
SWIDTH 960 0
DWIDTH 14 0
BBX 14 14 0 -2
BITMAP
0100
0100
3FFC
2008
4100
0110
1110
1110
1320
22C0
0440
0820
1010
600C
ENDCHAR
STARTCHAR 02-79-60
ENCODING 28508
SWIDTH 960 0
DWIDTH 14 0
BBX 14 14 0 -2
BITMAP
0000
1FF8
1100
1100
7FFC
0100
0280
0484
1884
607C
0000
2488
2244
4244
ENDCHAR
STARTCHAR 02-79-61
ENCODING 28509
SWIDTH 960 0
DWIDTH 14 0
BBX 14 14 0 -2
BITMAP
0820
0820
0820
0BFC
2A90
2C90
2890
4950
0960
0C20
1260
1250
2088
4104
ENDCHAR
STARTCHAR 02-79-62
ENCODING 28510
SWIDTH 960 0
DWIDTH 14 0
BBX 14 14 0 -2
BITMAP
0840
0840
0840
0BFC
2A00
2CF0
2890
4890
0890
0C90
1290
1314
2114
420C
ENDCHAR
STARTCHAR 02-79-63
ENCODING 28511
SWIDTH 960 0
DWIDTH 14 0
BBX 14 14 0 -2
BITMAP
0440
0440
7FFC
0440
0440
07C0
0100
0100
1110
1110
22A0
0440
1830
600C
ENDCHAR
STARTCHAR 02-79-64
ENCODING 28512
SWIDTH 960 0
DWIDTH 14 0
BBX 14 14 0 -2
BITMAP
0800
09FC
0840
0A40
2A40
2C80
28F8
4988
0A88
0C88
1288
1288
20F8
4088
ENDCHAR
STARTCHAR 02-79-65
ENCODING 28513
SWIDTH 960 0
DWIDTH 14 0
BBX 14 14 0 -2
BITMAP
0800
09F8
0908
0B08
2BE8
2D28
2928
4928
09E8
0D28
1308
1308
21F8
4108
ENDCHAR
STARTCHAR 02-79-66
ENCODING 28514
SWIDTH 960 0
DWIDTH 14 0
BBX 14 14 0 -2
BITMAP
0800
08F0
0890
0A90
2A90
2CF0
2890
4890
0890
0CF0
1290
1200
23FC
4000
ENDCHAR
STARTCHAR 02-79-67
ENCODING 28515
SWIDTH 960 0
DWIDTH 14 0
BBX 14 14 0 -2
BITMAP
0200
0240
0430
7FE8
0004
0FE0
0820
0820
0FE0
0100
0910
12A0
0C60
701C
ENDCHAR
STARTCHAR 02-79-68
ENCODING 28516
SWIDTH 960 0
DWIDTH 14 0
BBX 14 14 0 -2
BITMAP
0000
0820
0A28
2AA8
2CB0
4930
1448
2288
0000
3FFC
2008
4000
0000
0000
ENDCHAR
STARTCHAR 02-79-69
ENCODING 28517
SWIDTH 960 0
DWIDTH 14 0
BBX 14 14 0 -2
BITMAP
0800
09F8
0908
0B08
2BF8
2D28
2920
4990
0950
0D48
1204
12C0
2020
4010
ENDCHAR
STARTCHAR 02-79-70
ENCODING 28518
SWIDTH 960 0
DWIDTH 14 0
BBX 14 14 0 -2
BITMAP
0888
0848
0850
0BFC
2A20
2C20
28F8
4820
0820
0DFC
1220
1220
2020
4020
ENDCHAR
STARTCHAR 02-79-71
ENCODING 28519
SWIDTH 960 0
DWIDTH 14 0
BBX 14 14 0 -2
BITMAP
0850
0850
0854
0B54
2AD8
2CD0
2850
48D8
0954
0C54
1290
1294
2114
420C
ENDCHAR
STARTCHAR 02-79-72
ENCODING 28520
SWIDTH 960 0
DWIDTH 14 0
BBX 14 14 0 -2
BITMAP
0840
0840
09F8
0A40
2A40
2FFC
2840
4840
09F8
0C40
1240
1240
23FC
4000
ENDCHAR
STARTCHAR 02-79-73
ENCODING 28521
SWIDTH 960 0
DWIDTH 14 0
BBX 14 14 0 -2
BITMAP
0800
0BFC
0800
0AF0
2A90
2C90
28F0
4890
0890
0CF0
1290
1200
23FC
4000
ENDCHAR
STARTCHAR 02-79-74
ENCODING 28522
SWIDTH 960 0
DWIDTH 14 0
BBX 14 14 0 -2
BITMAP
0820
0820
08F8
0A20
2A20
2DFC
2850
48D0
08D8
0D54
1254
1290
2090
4130
ENDCHAR
STARTCHAR 02-79-75
ENCODING 28523
SWIDTH 960 0
DWIDTH 14 0
BBX 14 14 0 -2
BITMAP
0000
1FE0
0220
7FFC
0220
1FE0
0400
0FF0
1410
67F0
0410
2488
2244
4244
ENDCHAR
STARTCHAR 02-79-76
ENCODING 28524
SWIDTH 960 0
DWIDTH 14 0
BBX 14 14 0 -2
BITMAP
0800
08F8
0888
0A88
2AF8
2C00
28F8
4888
08F8
0C88
12F8
1288
2088
4098
ENDCHAR
STARTCHAR 02-79-77
ENCODING 28525
SWIDTH 960 0
DWIDTH 14 0
BBX 14 14 0 -2
BITMAP
0840
08D0
08C8
0B44
2A44
2DF8
2908
49F8
0908
0DF8
1308
1308
2108
4118
ENDCHAR
STARTCHAR 02-79-78
ENCODING 28526
SWIDTH 960 0
DWIDTH 14 0
BBX 14 14 0 -2
BITMAP
0600
38F8
2088
3EF8
2288
3E84
207C
4100
1110
1110
22A0
0440
1830
600C
ENDCHAR
STARTCHAR 02-79-79
ENCODING 28527
SWIDTH 960 0
DWIDTH 14 0
BBX 14 14 0 -2
BITMAP
0840
0850
0888
0BFC
2AA4
2CA4
299C
4AF0
0890
0D90
1260
1260
2190
420C
ENDCHAR
STARTCHAR 02-79-80
ENCODING 28528
SWIDTH 960 0
DWIDTH 14 0
BBX 14 14 0 -2
BITMAP
0820
2AA8
2CB0
4930
1448
2288
3FF0
0010
0210
0210
1FD4
020C
020C
0204
ENDCHAR
STARTCHAR 02-79-81
ENCODING 28529
SWIDTH 960 0
DWIDTH 14 0
BBX 14 14 0 -2
BITMAP
0820
0820
083C
0A20
2AF8
2C88
28F8
4888
08F8
0C20
13FC
1220
2020
4020
ENDCHAR
STARTCHAR 02-79-82
ENCODING 28530
SWIDTH 960 0
DWIDTH 14 0
BBX 14 14 0 -2
BITMAP
0100
1110
1110
22A0
0440
1830
600C
0820
0820
2AA8
2CB0
4930
1448
6284
ENDCHAR
STARTCHAR 02-79-83
ENCODING 28531
SWIDTH 960 0
DWIDTH 14 0
BBX 14 14 0 -2
BITMAP
0890
0890
0BFC
0A90
2A40
2DF8
2948
4948
0BFC
0C40
1260
1290
2108
4204
ENDCHAR
STARTCHAR 02-79-84
ENCODING 28532
SWIDTH 960 0
DWIDTH 14 0
BBX 14 14 0 -2
BITMAP
0840
0840
09FC
0B08
2AF8
2C00
28F0
4890
08F0
0C90
12F0
1200
23FC
4000
ENDCHAR
STARTCHAR 02-79-85
ENCODING 28533
SWIDTH 960 0
DWIDTH 14 0
BBX 14 14 0 -2
BITMAP
0840
0948
0948
0BF8
2A00
2DFC
2840
49F8
0968
0D68
1368
1368
2168
4118
ENDCHAR
STARTCHAR 02-79-86
ENCODING 28534
SWIDTH 960 0
DWIDTH 14 0
BBX 14 14 0 -2
BITMAP
1020
1F20
223C
4448
3EC8
0330
0210
7F90
0228
0244
3E84
2488
2244
4244
ENDCHAR
STARTCHAR 02-79-87
ENCODING 28535
SWIDTH 960 0
DWIDTH 14 0
BBX 14 14 0 -2
BITMAP
0818
09E4
0A44
0B28
2B30
2C00
2978
4948
0948
0D78
1348
1348
2178
4148
ENDCHAR
STARTCHAR 02-79-88
ENCODING 28536
SWIDTH 960 0
DWIDTH 14 0
BBX 14 14 0 -2
BITMAP
0818
09F0
0948
0B24
2A24
2C00
2840
49B8
0908
0D08
13B8
1308
2108
41F8
ENDCHAR
STARTCHAR 02-79-89
ENCODING 28537
SWIDTH 960 0
DWIDTH 14 0
BBX 14 14 0 -2
BITMAP
0800
09F8
0908
0BF8
2B08
2DF8
2948
48D0
09FC
0CA0
12A0
12A4
2124
421C
ENDCHAR
STARTCHAR 02-79-90
ENCODING 28538
SWIDTH 960 0
DWIDTH 14 0
BBX 14 14 0 -2
BITMAP
0800
09FC
0850
0BFC
2B54
2DFC
2800
48F8
0800
0FFC
14B0
1528
2228
4060
ENDCHAR
STARTCHAR 02-79-91
ENCODING 28539
SWIDTH 960 0
DWIDTH 14 0
BBX 14 14 0 -2
BITMAP
0800
0BFC
0954
0AEC
2B54
2C64
28CC
49F8
0908
0DF8
1308
1308
21F8
4108
ENDCHAR
STARTCHAR 02-79-92
ENCODING 28540
SWIDTH 960 0
DWIDTH 14 0
BBX 14 14 0 -2
BITMAP
1220
1138
10C8
1630
35E8
3824
37F8
5120
11F8
1920
15FC
2520
22E0
443C
ENDCHAR
STARTCHAR 02-79-93
ENCODING 28541
SWIDTH 960 0
DWIDTH 14 0
BBX 14 14 0 -2
BITMAP
1000
17F8
1198
16A8
35D8
3AA8
30C8
5120
1250
1DAC
1448
2590
2060
4380
ENDCHAR
STARTCHAR 02-79-94
ENCODING 28542
SWIDTH 960 0
DWIDTH 14 0
BBX 14 14 0 -2
BITMAP
0890
0BFC
0890
0AF0
2BF8
2D48
29F8
4840
09F8
0C40
13FC
1260
2090
430C
ENDCHAR
STARTCHAR 02-80-01
ENCODING 28705
SWIDTH 960 0
DWIDTH 14 0
BBX 14 14 0 -2
BITMAP
0800
09F0
0910
0BF0
2B10
2DF0
2BF8
4AA8
0BF8
0FF8
1290
1260
21B0
460C
ENDCHAR
STARTCHAR 02-80-02
ENCODING 28706
SWIDTH 960 0
DWIDTH 14 0
BBX 14 14 0 -2
BITMAP
0830
7F28
3FFC
2220
3E60
0860
2AA4
591C
0100
0910
0910
12A0
0C60
701C
ENDCHAR
STARTCHAR 02-80-03
ENCODING 28707
SWIDTH 960 0
DWIDTH 14 0
BBX 14 14 0 -2
BITMAP
0890
0890
08A0
0BFC
2B20
2DF8
2920
49F8
0920
0DFC
1200
13A8
2154
4204
ENDCHAR
STARTCHAR 02-80-04
ENCODING 28708
SWIDTH 960 0
DWIDTH 14 0
BBX 14 14 0 -2
BITMAP
1090
1090
7F7C
1190
3AB8
34B8
5354
5194
1310
0910
0910
12A0
0C60
701C
ENDCHAR
STARTCHAR 02-80-05
ENCODING 28709
SWIDTH 960 0
DWIDTH 14 0
BBX 14 14 0 -2
BITMAP
11F0
0910
41F0
2110
01F0
0FFC
1100
13FC
24A4
2158
0910
12A0
0C60
701C
ENDCHAR
STARTCHAR 02-80-06
ENCODING 28710
SWIDTH 960 0
DWIDTH 14 0
BBX 14 14 0 -2
BITMAP
1000
13B8
12A8
17B8
36A8
3BB8
3288
5248
12E8
1B98
17B8
26A8
2268
4218
ENDCHAR
STARTCHAR 02-80-07
ENCODING 28711
SWIDTH 960 0
DWIDTH 14 0
BBX 14 14 0 -2
BITMAP
0440
7FFC
0440
0840
3EF0
7F50
12D0
2B50
7E70
0894
7F0C
2488
2244
4244
ENDCHAR
STARTCHAR 02-80-08
ENCODING 28712
SWIDTH 960 0
DWIDTH 14 0
BBX 14 14 0 -2
BITMAP
1110
1110
13BC
1550
3488
3FBC
34A4
57A4
17A4
1C24
17A4
2438
24A0
43A0
ENDCHAR
STARTCHAR 02-80-09
ENCODING 28713
SWIDTH 960 0
DWIDTH 14 0
BBX 14 14 0 -2
BITMAP
0000
0000
0030
00C0
1F00
0010
0210
2110
1120
0920
0840
0000
0000
0000
ENDCHAR
STARTCHAR 02-80-10
ENCODING 28714
SWIDTH 960 0
DWIDTH 14 0
BBX 14 14 0 -2
BITMAP
0000
0000
0010
00E0
1F40
0A20
0910
1110
1088
2088
0000
0000
0000
0000
ENDCHAR
STARTCHAR 02-80-11
ENCODING 28715
SWIDTH 960 0
DWIDTH 14 0
BBX 14 14 0 -2
BITMAP
0004
7F18
4778
4558
7F58
4558
7D58
6F58
7F58
4D58
7758
4B5C
7F5C
4194
ENDCHAR
STARTCHAR 02-80-12
ENCODING 28716
SWIDTH 960 0
DWIDTH 14 0
BBX 14 14 0 -2
BITMAP
02C0
0C30
3248
0180
0660
781C
1FF0
1110
1110
1FF0
1010
1004
1004
0FFC
ENDCHAR
STARTCHAR 02-80-13
ENCODING 28717
SWIDTH 960 0
DWIDTH 14 0
BBX 14 14 0 -2
BITMAP
02C0
0C30
3248
0180
0660
791C
03C0
0E40
0180
3E70
0190
0F20
01C0
3E00
ENDCHAR
STARTCHAR 02-80-14
ENCODING 28718
SWIDTH 960 0
DWIDTH 14 0
BBX 14 14 0 -2
BITMAP
0040
0040
0440
0240
0240
00C0
00C0
0140
0140
0240
0440
0840
0040
0040
ENDCHAR
STARTCHAR 02-80-15
ENCODING 28719
SWIDTH 960 0
DWIDTH 14 0
BBX 14 14 0 -2
BITMAP
0510
2490
24A0
27FC
3C40
2440
05F8
7C40
1440
17FC
1440
2440
2440
4440
ENDCHAR
STARTCHAR 02-80-16
ENCODING 28720
SWIDTH 960 0
DWIDTH 14 0
BBX 14 14 0 -2
BITMAP
2420
2420
25FC
2488
3E50
21FC
2124
3FFC
2440
2478
2488
2488
2508
4630
ENDCHAR
STARTCHAR 02-80-17
ENCODING 28721
SWIDTH 960 0
DWIDTH 14 0
BBX 14 14 0 -2
BITMAP
2820
29FC
2920
29F8
3D28
21FC
21F8
3920
29F8
29A8
2AF8
2AF8
2CA8
48B8
ENDCHAR
STARTCHAR 02-80-18
ENCODING 28722
SWIDTH 960 0
DWIDTH 14 0
BBX 14 14 0 -2
BITMAP
0800
09F8
2848
2848
3D48
2948
2948
4A48
0C48
7848
0888
0888
0908
0A30
ENDCHAR
STARTCHAR 02-80-19
ENCODING 28723
SWIDTH 960 0
DWIDTH 14 0
BBX 14 14 0 -2
BITMAP
0000
3FF8
1188
1290
0C60
1290
610C
1100
1100
1FF8
2100
7FFC
0100
0100
ENDCHAR
STARTCHAR 02-80-20
ENCODING 28724
SWIDTH 960 0
DWIDTH 14 0
BBX 14 14 0 -2
BITMAP
0890
0888
10FC
17C0
3040
5024
1014
110C
1100
1FF8
2100
7FFC
0100
0100
ENDCHAR
STARTCHAR 02-80-21
ENCODING 28725
SWIDTH 960 0
DWIDTH 14 0
BBX 14 14 0 -2
BITMAP
0820
0820
2820
29FC
3E20
2820
2820
48F8
0E88
7888
0888
0888
08F8
0888
ENDCHAR
STARTCHAR 02-80-22
ENCODING 28726
SWIDTH 960 0
DWIDTH 14 0
BBX 14 14 0 -2
BITMAP
0820
0820
29FC
2908
3EF8
2810
2820
4820
0DFC
7820
0820
0820
0820
0860
ENDCHAR
STARTCHAR 02-80-23
ENCODING 28727
SWIDTH 960 0
DWIDTH 14 0
BBX 14 14 0 -2
BITMAP
0840
0940
2940
29F8
3E40
2840
2BFC
4840
0FF8
7908
0908
0908
09F8
0908
ENDCHAR
STARTCHAR 02-80-24
ENCODING 28728
SWIDTH 960 0
DWIDTH 14 0
BBX 14 14 0 -2
BITMAP
0810
3E10
09FC
7F10
0890
3E50
0E10
7830
1100
1FF8
2100
7FFC
0100
0100
ENDCHAR
STARTCHAR 02-80-25
ENCODING 28729
SWIDTH 960 0
DWIDTH 14 0
BBX 14 14 0 -2
BITMAP
1040
1040
14A0
2290
7FF8
2A04
29F8
3E20
4840
09F0
7F10
0910
09F0
0910
ENDCHAR
STARTCHAR 02-80-26
ENCODING 28730
SWIDTH 960 0
DWIDTH 14 0
BBX 14 14 0 -2
BITMAP
0020
0C20
0240
0180
0180
0680
1840
00C0
0140
0640
1840
0040
0780
0100
ENDCHAR
STARTCHAR 02-80-27
ENCODING 28731
SWIDTH 960 0
DWIDTH 14 0
BBX 14 14 0 -2
BITMAP
0220
0210
0210
7FFC
0200
0220
0420
0640
0A40
0980
1080
2140
4630
180C
ENDCHAR
STARTCHAR 02-80-28
ENCODING 28732
SWIDTH 960 0
DWIDTH 14 0
BBX 14 14 0 -2
BITMAP
0900
4900
3100
1100
31E0
4F20
0920
1920
2920
4920
0A24
0A24
3224
141C
ENDCHAR
STARTCHAR 02-80-29
ENCODING 28733
SWIDTH 960 0
DWIDTH 14 0
BBX 14 14 0 -2
BITMAP
0880
4880
3080
13F0
3090
4A90
0990
1890
2890
4950
0950
0914
3214
140C
ENDCHAR
STARTCHAR 02-80-30
ENCODING 28734
SWIDTH 960 0
DWIDTH 14 0
BBX 14 14 0 -2
BITMAP
0880
48A0
3110
1238
37E4
48A0
08A0
18A0
28A0
4920
0920
0924
3224
141C
ENDCHAR
STARTCHAR 02-80-31
ENCODING 28735
SWIDTH 960 0
DWIDTH 14 0
BBX 14 14 0 -2
BITMAP
0840
484C
3070
17C0
3048
4A48
0A48
1A48
2BF8
4A48
0840
0844
3044
103C
ENDCHAR
STARTCHAR 02-80-32
ENCODING 28736
SWIDTH 960 0
DWIDTH 14 0
BBX 14 14 0 -2
BITMAP
0840
4940
3140
13F8
3240
4C40
0840
1BF8
2840
4840
0840
0840
37FC
1000
ENDCHAR
STARTCHAR 02-80-33
ENCODING 28737
SWIDTH 960 0
DWIDTH 14 0
BBX 14 14 0 -2
BITMAP
0800
4BF8
3088
1088
3088
4908
0930
1A00
29F8
4908
0908
0908
31F8
1108
ENDCHAR
STARTCHAR 02-80-34
ENCODING 28738
SWIDTH 960 0
DWIDTH 14 0
BBX 14 14 0 -2
BITMAP
0840
4840
3040
1040
33F8
4A48
0A48
1A48
2BF8
4A48
0A48
0A48
33F8
1208
ENDCHAR
STARTCHAR 02-80-35
ENCODING 28739
SWIDTH 960 0
DWIDTH 14 0
BBX 14 14 0 -2
BITMAP
0840
4840
30A0
1110
3208
4DF4
0840
1BFC
2840
4950
0948
0A44
3444
10C0
ENDCHAR
STARTCHAR 02-80-36
ENCODING 28740
SWIDTH 960 0
DWIDTH 14 0
BBX 14 14 0 -2
BITMAP
0800
48F0
3000
13FC
3000
49F8
0800
19F8
2800
49F8
0908
0908
31F8
1108
ENDCHAR
STARTCHAR 02-80-37
ENCODING 28741
SWIDTH 960 0
DWIDTH 14 0
BBX 14 14 0 -2
BITMAP
0840
4878
3040
13FC
3248
4A78
0BC8
1A38
2AA0
4AA0
0AA0
0CA4
3524
1A1C
ENDCHAR
STARTCHAR 02-80-38
ENCODING 28742
SWIDTH 960 0
DWIDTH 14 0
BBX 14 14 0 -2
BITMAP
0020
7E28
4224
7E24
43FC
7E20
3C20
2430
3C50
2450
3C88
2488
2504
2E04
ENDCHAR
STARTCHAR 02-80-39
ENCODING 28743
SWIDTH 960 0
DWIDTH 14 0
BBX 14 14 0 -2
BITMAP
1104
5514
37D4
2514
3114
57F4
1114
17D4
3554
3554
5554
1584
1504
610C
ENDCHAR
STARTCHAR 02-80-40
ENCODING 28744
SWIDTH 960 0
DWIDTH 14 0
BBX 14 14 0 -2
BITMAP
0818
4BF0
3248
1244
3404
4BF8
0848
1FFC
2848
4BF8
0848
0840
3040
10C0
ENDCHAR
STARTCHAR 02-80-41
ENCODING 28745
SWIDTH 960 0
DWIDTH 14 0
BBX 14 14 0 -2
BITMAP
0890
4890
33FC
1090
3100
49F8
0A08
1DE8
2928
4928
09E8
0928
3008
1030
ENDCHAR
STARTCHAR 02-80-42
ENCODING 28746
SWIDTH 960 0
DWIDTH 14 0
BBX 14 14 0 -2
BITMAP
0840
4840
37FC
10E0
3150
4A48
0DF4
1910
29F0
4910
09F0
0910
37FC
1000
ENDCHAR
STARTCHAR 02-80-43
ENCODING 28747
SWIDTH 960 0
DWIDTH 14 0
BBX 14 14 0 -2
BITMAP
0800
4BF8
3248
13F8
3248
4BF8
0800
19F0
2910
49F0
0910
09F0
3110
1130
ENDCHAR
STARTCHAR 02-80-44
ENCODING 28748
SWIDTH 960 0
DWIDTH 14 0
BBX 14 14 0 -2
BITMAP
0800
4BF0
30A0
1040
37FC
48C8
0B50
1CC0
2840
4FFC
08E0
0950
364C
1040
ENDCHAR
STARTCHAR 02-80-45
ENCODING 28749
SWIDTH 960 0
DWIDTH 14 0
BBX 14 14 0 -2
BITMAP
1000
57B8
2488
2488
37B8
5488
1400
3778
3448
5428
1730
1410
1428
64C4
ENDCHAR
STARTCHAR 02-80-46
ENCODING 28750
SWIDTH 960 0
DWIDTH 14 0
BBX 14 14 0 -2
BITMAP
0800
4BFC
3208
15F0
3110
49F0
0910
19F0
2840
4FFC
0800
0890
3108
1608
ENDCHAR
STARTCHAR 02-80-47
ENCODING 28751
SWIDTH 960 0
DWIDTH 14 0
BBX 14 14 0 -2
BITMAP
0840
3E40
087C
7FD0
0850
7F30
1E30
2248
4DA4
0110
7FFC
0280
0C60
701C
ENDCHAR
STARTCHAR 02-80-48
ENCODING 28752
SWIDTH 960 0
DWIDTH 14 0
BBX 14 14 0 -2
BITMAP
0830
4BE0
3290
1448
33F0
4A10
0BF8
1A08
2A08
4BFC
0D54
0EAC
3284
1418
ENDCHAR
STARTCHAR 02-80-49
ENCODING 28753
SWIDTH 960 0
DWIDTH 14 0
BBX 14 14 0 -2
BITMAP
0840
4840
30A0
1110
33F8
4C04
0BB8
1AA8
2AA8
4BB8
0910
0998
3264
1444
ENDCHAR
STARTCHAR 02-80-50
ENCODING 28754
SWIDTH 960 0
DWIDTH 14 0
BBX 14 14 0 -2
BITMAP
1200
53BC
2494
2D14
37AC
55C0
15BC
37D0
3590
57FC
1490
1490
1490
6990
ENDCHAR
STARTCHAR 02-80-51
ENCODING 28755
SWIDTH 960 0
DWIDTH 14 0
BBX 14 14 0 -2
BITMAP
0800
49F0
3110
11F0
3000
4BBC
0AA4
1BBC
2840
4FFC
08E0
0950
364C
1040
ENDCHAR
STARTCHAR 02-80-52
ENCODING 28756
SWIDTH 960 0
DWIDTH 14 0
BBX 14 14 0 -2
BITMAP
0800
4FFC
3150
164C
33F8
4AD8
0BF8
1AD8
2B68
4AD8
0BF8
0AD8
3368
1258
ENDCHAR
STARTCHAR 02-80-53
ENCODING 28757
SWIDTH 960 0
DWIDTH 14 0
BBX 14 14 0 -2
BITMAP
0818
4BE0
3040
17FC
33F8
4B58
0AE8
1BF8
2840
4BF8
0840
0FFC
32A8
1454
ENDCHAR
STARTCHAR 02-80-54
ENCODING 28758
SWIDTH 960 0
DWIDTH 14 0
BBX 14 14 0 -2
BITMAP
0840
4BFC
3208
15F8
3150
4A60
09F8
1F08
29F8
49F8
0908
09F8
3090
130C
ENDCHAR
STARTCHAR 02-80-55
ENCODING 28759
SWIDTH 960 0
DWIDTH 14 0
BBX 14 14 0 -2
BITMAP
0820
4BFC
3250
13FC
3250
4A70
0BFC
1AF8
2AA8
4AF8
0AA8
0AF8
34C8
1B04
ENDCHAR
STARTCHAR 02-80-56
ENCODING 28760
SWIDTH 960 0
DWIDTH 14 0
BBX 14 14 0 -2
BITMAP
13B8
52A8
23B8
2000
37FC
57A0
1520
37FC
36E8
57A8
1790
16D0
1FA8
68C4
ENDCHAR
STARTCHAR 02-80-57
ENCODING 28761
SWIDTH 960 0
DWIDTH 14 0
BBX 14 14 0 -2
BITMAP
0820
0820
7F20
08B0
12A8
62A8
24A4
152C
0928
1070
1410
2420
7AC0
0300
ENDCHAR
STARTCHAR 02-80-58
ENCODING 28762
SWIDTH 960 0
DWIDTH 14 0
BBX 14 14 0 -2
BITMAP
0000
3FF8
0100
0120
0110
0110
1FF0
0100
0100
0100
0100
0100
7FFC
0000
ENDCHAR
STARTCHAR 02-80-59
ENCODING 28763
SWIDTH 960 0
DWIDTH 14 0
BBX 14 14 0 -2
BITMAP
0008
0108
7D48
1148
1148
1148
7D48
1148
1148
1148
1D48
6208
0208
0008
ENDCHAR
STARTCHAR 02-80-60
ENCODING 28764
SWIDTH 960 0
DWIDTH 14 0
BBX 14 14 0 -2
BITMAP
0000
01F8
7C08
1008
1008
1008
7DF8
1108
1100
1100
1D00
6104
0104
00FC
ENDCHAR
STARTCHAR 02-80-61
ENCODING 28765
SWIDTH 960 0
DWIDTH 14 0
BBX 14 14 0 -2
BITMAP
0070
0010
7D10
1110
1110
1208
7E48
1044
1040
10A0
1C90
6118
07E4
0004
ENDCHAR
STARTCHAR 02-80-62
ENCODING 28766
SWIDTH 960 0
DWIDTH 14 0
BBX 14 14 0 -2
BITMAP
0040
0040
7C40
13F8
1040
1040
7C40
13FC
1040
10A0
1CA0
6110
0208
0C04
ENDCHAR
STARTCHAR 02-80-63
ENCODING 28767
SWIDTH 960 0
DWIDTH 14 0
BBX 14 14 0 -2
BITMAP
0000
00F8
7C88
1088
1088
10F8
7C88
1088
1088
10F8
1D08
6108
0208
0418
ENDCHAR
STARTCHAR 02-80-64
ENCODING 28768
SWIDTH 960 0
DWIDTH 14 0
BBX 14 14 0 -2
BITMAP
0000
03FC
7C40
1040
1040
1040
7DF8
1040
1040
1040
1C40
6040
03FC
0000
ENDCHAR
STARTCHAR 02-80-65
ENCODING 28769
SWIDTH 960 0
DWIDTH 14 0
BBX 14 14 0 -2
BITMAP
0110
0110
7D10
1110
17FC
1110
7D10
1110
11F0
1110
1D10
6110
01F0
0110
ENDCHAR
STARTCHAR 02-80-66
ENCODING 28770
SWIDTH 960 0
DWIDTH 14 0
BBX 14 14 0 -2
BITMAP
0040
0040
7C40
107C
1040
1040
7C40
11F8
1108
1108
1D08
6108
01F8
0108
ENDCHAR
STARTCHAR 02-80-67
ENCODING 28771
SWIDTH 960 0
DWIDTH 14 0
BBX 14 14 0 -2
BITMAP
0040
0040
7FFC
1040
1048
1388
7C90
1050
1020
1020
1C50
6088
03F4
0004
ENDCHAR
STARTCHAR 02-80-68
ENCODING 28772
SWIDTH 960 0
DWIDTH 14 0
BBX 14 14 0 -2
BITMAP
00A0
00A0
7CA0
10A4
12A4
12E8
7EB0
12A0
12A0
12A0
1EA0
62E4
0324
061C
ENDCHAR
STARTCHAR 02-80-69
ENCODING 28773
SWIDTH 960 0
DWIDTH 14 0
BBX 14 14 0 -2
BITMAP
0000
03F8
7C88
1088
1088
1108
7D30
1200
11F8
1108
1D08
6108
01F8
0108
ENDCHAR
STARTCHAR 02-80-70
ENCODING 28774
SWIDTH 960 0
DWIDTH 14 0
BBX 14 14 0 -2
BITMAP
0040
0040
7C40
13F8
1248
1248
7FF8
1248
1248
13F8
1E48
6040
0040
0040
ENDCHAR
STARTCHAR 02-80-71
ENCODING 28775
SWIDTH 960 0
DWIDTH 14 0
BBX 14 14 0 -2
BITMAP
0040
0080
7F38
12A8
12A8
12A8
7EA8
12A8
12A8
13A8
1CB8
6120
0120
0220
ENDCHAR
STARTCHAR 02-80-72
ENCODING 28776
SWIDTH 960 0
DWIDTH 14 0
BBX 14 14 0 -2
BITMAP
0000
3EF8
0820
3EF8
0820
0820
0FFC
7900
0100
0280
0280
0440
1830
600C
ENDCHAR
STARTCHAR 02-80-73
ENCODING 28777
SWIDTH 960 0
DWIDTH 14 0
BBX 14 14 0 -2
BITMAP
00A0
00A0
7CA8
12A8
11B0
11A0
7CB0
11A8
12A4
10A4
1D20
6124
0224
041C
ENDCHAR
STARTCHAR 02-80-74
ENCODING 28778
SWIDTH 960 0
DWIDTH 14 0
BBX 14 14 0 -2
BITMAP
0050
0048
7C48
13FC
1240
1248
7FE8
12A8
12B0
1290
1C90
66B4
05CC
0804
ENDCHAR
STARTCHAR 02-80-75
ENCODING 28779
SWIDTH 960 0
DWIDTH 14 0
BBX 14 14 0 -2
BITMAP
0040
0040
7DFC
1108
1200
11F8
7C00
13FC
10A0
10A0
1D20
6124
0224
041C
ENDCHAR
STARTCHAR 02-80-76
ENCODING 28780
SWIDTH 960 0
DWIDTH 14 0
BBX 14 14 0 -2
BITMAP
0000
03F0
7C90
13FC
1090
1090
7FF0
1100
1100
11F8
1B08
6508
0108
01F8
ENDCHAR
STARTCHAR 02-80-77
ENCODING 28781
SWIDTH 960 0
DWIDTH 14 0
BBX 14 14 0 -2
BITMAP
0080
0080
7C80
11FC
1100
11FC
7E28
10B0
10A0
10BC
1CA0
60A0
0160
021C
ENDCHAR
STARTCHAR 02-80-78
ENCODING 28782
SWIDTH 960 0
DWIDTH 14 0
BBX 14 14 0 -2
BITMAP
0018
03F0
7E48
1244
1404
13F8
7C48
13FC
1048
13F8
1C48
6040
0040
00C0
ENDCHAR
STARTCHAR 02-80-79
ENCODING 28783
SWIDTH 960 0
DWIDTH 14 0
BBX 14 14 0 -2
BITMAP
0000
03F8
7E48
1248
12E8
1248
7EE8
1248
12E8
12A8
1EA8
64E8
0488
0818
ENDCHAR
STARTCHAR 02-80-80
ENCODING 28784
SWIDTH 960 0
DWIDTH 14 0
BBX 14 14 0 -2
BITMAP
0000
3EF8
0820
3EF8
0820
0820
0FFC
7900
0100
7FFC
0380
0D60
711C
0100
ENDCHAR
STARTCHAR 02-80-81
ENCODING 28785
SWIDTH 960 0
DWIDTH 14 0
BBX 14 14 0 -2
BITMAP
0040
0040
7FFC
1040
13F8
1358
7ED8
12E8
13F8
10E0
1D50
624C
0440
0040
ENDCHAR
STARTCHAR 02-80-82
ENCODING 28786
SWIDTH 960 0
DWIDTH 14 0
BBX 14 14 0 -2
BITMAP
0018
03E0
7C40
11F0
1150
1150
7DF0
1040
13F8
1258
1E78
63D8
0208
0218
ENDCHAR
STARTCHAR 02-80-83
ENCODING 28787
SWIDTH 960 0
DWIDTH 14 0
BBX 14 14 0 -2
BITMAP
0040
0040
7FF8
1040
11F0
10A0
7FFC
1110
13F8
1514
1DF0
6110
01F0
0110
ENDCHAR
STARTCHAR 02-80-84
ENCODING 28788
SWIDTH 960 0
DWIDTH 14 0
BBX 14 14 0 -2
BITMAP
0080
00F0
7D20
13F8
12A8
12A8
7F38
1258
1040
17FC
1C40
60A0
0110
060C
ENDCHAR
STARTCHAR 02-80-85
ENCODING 28789
SWIDTH 960 0
DWIDTH 14 0
BBX 14 14 0 -2
BITMAP
0000
01F0
7D10
11F0
1110
11F0
7C00
13FC
1100
13F8
1CA8
6128
0248
00B0
ENDCHAR
STARTCHAR 02-80-86
ENCODING 28790
SWIDTH 960 0
DWIDTH 14 0
BBX 14 14 0 -2
BITMAP
0040
0080
7DF0
1110
11F0
1110
7DF0
1000
13F8
1040
1DF0
6040
07FC
0000
ENDCHAR
STARTCHAR 02-80-87
ENCODING 28791
SWIDTH 960 0
DWIDTH 14 0
BBX 14 14 0 -2
BITMAP
0108
0134
7DC4
12FC
12F8
1288
7EF8
1288
12F8
1288
1EF8
63FC
0188
0604
ENDCHAR
STARTCHAR 02-80-88
ENCODING 28792
SWIDTH 960 0
DWIDTH 14 0
BBX 14 14 0 -2
BITMAP
0020
0040
7FF8
1368
1298
1368
7E68
1298
13F8
1248
1D28
6324
0314
04F0
ENDCHAR
STARTCHAR 02-80-89
ENCODING 28793
SWIDTH 960 0
DWIDTH 14 0
BBX 14 14 0 -2
BITMAP
0148
0290
7D48
11F8
1148
11F8
7D48
11F8
1040
13FC
1CE0
6150
064C
0040
ENDCHAR
STARTCHAR 02-80-90
ENCODING 28794
SWIDTH 960 0
DWIDTH 14 0
BBX 14 14 0 -2
BITMAP
0220
0220
7FA0
127C
17C8
1248
7EA8
17A8
1230
1390
1E90
64A8
04C8
0984
ENDCHAR
STARTCHAR 02-80-91
ENCODING 28795
SWIDTH 960 0
DWIDTH 14 0
BBX 14 14 0 -2
BITMAP
0020
7F20
1220
3FF8
1220
1F20
6820
15FC
1E20
2160
7E50
0490
0888
1104
ENDCHAR
STARTCHAR 02-80-92
ENCODING 28796
SWIDTH 960 0
DWIDTH 14 0
BBX 14 14 0 -2
BITMAP
01A8
00A8
7EB4
1114
11F8
1208
7FFC
1108
11F8
1110
1C90
60A0
07FC
0000
ENDCHAR
STARTCHAR 02-80-93
ENCODING 28797
SWIDTH 960 0
DWIDTH 14 0
BBX 14 14 0 -2
BITMAP
1000
09F0
49F0
2110
21F0
1FFC
13F8
32A8
2558
7FFC
0100
1FF0
0108
7FFC
ENDCHAR
STARTCHAR 02-80-94
ENCODING 28798
SWIDTH 960 0
DWIDTH 14 0
BBX 14 14 0 -2
BITMAP
0040
0040
7FFC
10A4
1318
13F8
7D14
11F0
1110
11F0
1E48
6244
0444
00C0
ENDCHAR
STARTCHAR 02-81-01
ENCODING 28961
SWIDTH 960 0
DWIDTH 14 0
BBX 14 14 0 -2
BITMAP
0018
03E8
7E48
1150
13FC
10E0
7D50
13F8
1554
11F0
1D50
6150
01F0
0110
ENDCHAR
STARTCHAR 02-81-02
ENCODING 28962
SWIDTH 960 0
DWIDTH 14 0
BBX 14 14 0 -2
BITMAP
0248
0148
7C90
16FC
1190
1090
7FF8
1190
11F8
1190
1DFC
6180
02C0
043C
ENDCHAR
STARTCHAR 02-81-03
ENCODING 28963
SWIDTH 960 0
DWIDTH 14 0
BBX 14 14 0 -2
BITMAP
0320
0320
7FA0
133C
1228
13E8
7CA8
1798
1598
1590
1F98
64A8
00A4
0344
ENDCHAR
STARTCHAR 02-81-04
ENCODING 28964
SWIDTH 960 0
DWIDTH 14 0
BBX 14 14 0 -2
BITMAP
0000
01F0
7D10
11F0
1000
13BC
7EA4
13BC
1040
13FC
1CE0
6150
064C
0040
ENDCHAR
STARTCHAR 02-81-05
ENCODING 28965
SWIDTH 960 0
DWIDTH 14 0
BBX 14 14 0 -2
BITMAP
0248
0150
7FFC
1208
15F0
1110
7DF0
1000
13F8
1248
1FF8
6248
03F8
0208
ENDCHAR
STARTCHAR 02-81-06
ENCODING 28966
SWIDTH 960 0
DWIDTH 14 0
BBX 14 14 0 -2
BITMAP
0040
03F8
7C40
11F0
13FC
11E8
7C40
11F0
13FC
1008
1FFC
62A8
0398
0218
ENDCHAR
STARTCHAR 02-81-07
ENCODING 28967
SWIDTH 960 0
DWIDTH 14 0
BBX 14 14 0 -2
BITMAP
0000
03FC
7D54
12EC
1154
1264
7C40
13FC
1110
12A8
1E64
63FC
0040
0040
ENDCHAR
STARTCHAR 02-81-08
ENCODING 28968
SWIDTH 960 0
DWIDTH 14 0
BBX 14 14 0 -2
BITMAP
1830
13D0
1A70
13D0
1BF0
12D0
3FFC
2008
5FF0
0100
1FF0
0120
0110
7FFC
ENDCHAR
STARTCHAR 02-81-09
ENCODING 28969
SWIDTH 960 0
DWIDTH 14 0
BBX 14 14 0 -2
BITMAP
0040
07FC
7FB8
12A8
13B8
10A0
7FFC
13F8
10A0
17FC
1948
6730
01D0
070C
ENDCHAR
STARTCHAR 02-81-10
ENCODING 28970
SWIDTH 960 0
DWIDTH 14 0
BBX 14 14 0 -2
BITMAP
00A0
03FC
7CA0
13B8
12A8
13B8
7C90
11FC
1320
11F8
1DF8
6120
01FC
0100
ENDCHAR
STARTCHAR 02-81-11
ENCODING 28971
SWIDTH 960 0
DWIDTH 14 0
BBX 14 14 0 -2
BITMAP
0120
06A0
3AA0
2AF8
2B20
2A20
2BFC
2A60
2A50
2A88
2F08
2D08
32C0
403C
ENDCHAR
STARTCHAR 02-81-12
ENCODING 28972
SWIDTH 960 0
DWIDTH 14 0
BBX 14 14 0 -2
BITMAP
0000
3FFC
2240
2240
3278
2A48
2468
2658
2A58
2948
314C
205C
3F64
2184
ENDCHAR
STARTCHAR 02-81-13
ENCODING 28973
SWIDTH 960 0
DWIDTH 14 0
BBX 14 14 0 -2
BITMAP
03C0
0820
1010
3FF8
4224
0420
18C0
7FFC
0400
07E0
0520
08A4
0FA4
701C
ENDCHAR
STARTCHAR 02-81-14
ENCODING 28974
SWIDTH 960 0
DWIDTH 14 0
BBX 14 14 0 -2
BITMAP
0000
7FF8
1080
10F0
1EF0
1280
1BFC
1680
16A0
1290
13E8
160C
1A04
61FC
ENDCHAR
STARTCHAR 02-81-15
ENCODING 28975
SWIDTH 960 0
DWIDTH 14 0
BBX 14 14 0 -2
BITMAP
0000
3EFC
2040
3C40
2078
3C48
2068
7F58
1058
1848
2448
2A5C
726C
0184
ENDCHAR
STARTCHAR 02-81-16
ENCODING 28976
SWIDTH 960 0
DWIDTH 14 0
BBX 14 14 0 -2
BITMAP
0020
7E40
10F8
10F8
1E88
12F8
1A20
17E4
1678
12B0
1328
1664
1A04
61FC
ENDCHAR
STARTCHAR 02-81-17
ENCODING 28977
SWIDTH 960 0
DWIDTH 14 0
BBX 14 14 0 -2
BITMAP
0040
0140
7940
4940
4BFC
4A40
7C40
4840
4BF8
4840
7840
4840
07FC
0000
ENDCHAR
STARTCHAR 02-81-18
ENCODING 28978
SWIDTH 960 0
DWIDTH 14 0
BBX 14 14 0 -2
BITMAP
0020
7FA0
10A0
10A0
32FC
4B20
1D20
2CF8
4C20
1A20
2BFC
4A00
0980
307C
ENDCHAR
STARTCHAR 02-81-19
ENCODING 28979
SWIDTH 960 0
DWIDTH 14 0
BBX 14 14 0 -2
BITMAP
0100
0100
0200
1FF0
1110
1110
1FF0
1110
1110
1FF0
1110
1110
2110
4030
ENDCHAR
STARTCHAR 02-81-20
ENCODING 28980
SWIDTH 960 0
DWIDTH 14 0
BBX 14 14 0 -2
BITMAP
0040
0040
7C40
5440
5440
5440
7C40
54C0
54A0
54A0
7D10
4510
0208
0404
ENDCHAR
STARTCHAR 02-81-21
ENCODING 28981
SWIDTH 960 0
DWIDTH 14 0
BBX 14 14 0 -2
BITMAP
0000
03F8
7C08
5408
5508
5510
7C90
54A0
5460
5440
7CA0
4510
0208
0404
ENDCHAR
STARTCHAR 02-81-22
ENCODING 28982
SWIDTH 960 0
DWIDTH 14 0
BBX 14 14 0 -2
BITMAP
0008
0108
7D48
5548
5548
5548
7D48
5548
5548
5548
7D48
4508
0208
0008
ENDCHAR
STARTCHAR 02-81-23
ENCODING 28983
SWIDTH 960 0
DWIDTH 14 0
BBX 14 14 0 -2
BITMAP
0888
0888
1110
2220
1110
0888
0000
1FF0
1110
1FF0
1110
1110
1FF0
1010
ENDCHAR
STARTCHAR 02-81-24
ENCODING 28984
SWIDTH 960 0
DWIDTH 14 0
BBX 14 14 0 -2
BITMAP
0000
1FF0
1110
1FF0
1110
1110
1FF0
0000
7FFC
0440
0440
0840
1040
2040
ENDCHAR
STARTCHAR 02-81-25
ENCODING 28985
SWIDTH 960 0
DWIDTH 14 0
BBX 14 14 0 -2
BITMAP
0000
01FC
7D00
5500
55F8
5588
7D88
5550
5550
5520
7D20
4650
0288
0504
ENDCHAR
STARTCHAR 02-81-26
ENCODING 28986
SWIDTH 960 0
DWIDTH 14 0
BBX 14 14 0 -2
BITMAP
0040
0050
7C48
5448
57FC
5440
7C40
5460
54A0
54A0
7D10
4510
0208
0404
ENDCHAR
STARTCHAR 02-81-27
ENCODING 28987
SWIDTH 960 0
DWIDTH 14 0
BBX 14 14 0 -2
BITMAP
0000
3FF8
0000
0FE0
0820
0820
0FE0
0000
1FF0
1110
1FF0
1110
1FF0
1010
ENDCHAR
STARTCHAR 02-81-28
ENCODING 28988
SWIDTH 960 0
DWIDTH 14 0
BBX 14 14 0 -2
BITMAP
0820
0820
0820
7F20
0020
3E20
2A20
2A60
3E70
2A50
2A90
2A88
3F08
2204
ENDCHAR
STARTCHAR 02-81-29
ENCODING 28989
SWIDTH 960 0
DWIDTH 14 0
BBX 14 14 0 -2
BITMAP
0100
0280
0440
1FF0
610C
3FF8
0920
3310
1FF8
1110
1FF0
1110
1FF0
1010
ENDCHAR
STARTCHAR 02-81-30
ENCODING 28990
SWIDTH 960 0
DWIDTH 14 0
BBX 14 14 0 -2
BITMAP
0100
0280
0440
1FF0
600C
3FF8
0920
3318
1FF0
1110
1FF0
1110
1FF0
1010
ENDCHAR
STARTCHAR 02-81-31
ENCODING 28991
SWIDTH 960 0
DWIDTH 14 0
BBX 14 14 0 -2
BITMAP
0000
7FFC
0280
3EF8
2288
3EF8
0480
0880
1FF0
1110
1FF0
1110
1FF0
1010
ENDCHAR
STARTCHAR 02-81-32
ENCODING 28992
SWIDTH 960 0
DWIDTH 14 0
BBX 14 14 0 -2
BITMAP
0000
7FFC
1FF0
1110
1FF0
1110
1FF0
7FFC
1FF0
1110
1FF0
1110
1FF0
7FFC
ENDCHAR
STARTCHAR 02-81-33
ENCODING 28993
SWIDTH 960 0
DWIDTH 14 0
BBX 14 14 0 -2
BITMAP
0008
01F0
7C40
57FC
5440
55F8
7D48
55F8
5548
55F8
7C40
45F8
0040
03FC
ENDCHAR
STARTCHAR 02-81-34
ENCODING 28994
SWIDTH 960 0
DWIDTH 14 0
BBX 14 14 0 -2
BITMAP
0000
0FE0
0920
0FE0
0920
0FE0
0820
3EF8
2AA8
2AA8
3EF8
2AA8
3EF8
2288
ENDCHAR
STARTCHAR 02-81-35
ENCODING 28995
SWIDTH 960 0
DWIDTH 14 0
BBX 14 14 0 -2
BITMAP
0000
03F8
7D98
56A8
55D8
56A8
7CC8
5520
5650
55AC
7C48
4590
0060
0380
ENDCHAR
STARTCHAR 02-81-36
ENCODING 28996
SWIDTH 960 0
DWIDTH 14 0
BBX 14 14 0 -2
BITMAP
0000
1FF0
0040
0180
0900
0900
09F0
0900
0900
0900
0930
09C0
0E00
1800
ENDCHAR
STARTCHAR 02-81-37
ENCODING 28997
SWIDTH 960 0
DWIDTH 14 0
BBX 14 14 0 -2
BITMAP
0100
3FF8
0100
1FF0
0110
7FFC
0110
1FF0
0100
09F0
0900
1D00
1300
20F8
ENDCHAR
STARTCHAR 02-81-38
ENCODING 28998
SWIDTH 960 0
DWIDTH 14 0
BBX 14 14 0 -2
BITMAP
0080
0080
0FFC
4800
2880
2880
0880
1FF8
2880
4880
1080
1080
3FFC
4000
ENDCHAR
STARTCHAR 02-81-39
ENCODING 28999
SWIDTH 960 0
DWIDTH 14 0
BBX 14 14 0 -2
BITMAP
0080
0080
0FFC
4800
2880
2888
0A88
1A90
2CA0
4940
1140
1220
2410
580C
ENDCHAR
STARTCHAR 02-81-40
ENCODING 29000
SWIDTH 960 0
DWIDTH 14 0
BBX 14 14 0 -2
BITMAP
0080
0080
0FFC
4800
2888
2888
08D0
1FE0
29A0
4990
1290
1488
2884
4180
ENDCHAR
STARTCHAR 02-81-41
ENCODING 29001
SWIDTH 960 0
DWIDTH 14 0
BBX 14 14 0 -2
BITMAP
0080
0080
0FFC
4900
2880
2FF8
0880
1880
2BF0
4880
1080
1080
3FFC
4000
ENDCHAR
STARTCHAR 02-81-42
ENCODING 29002
SWIDTH 960 0
DWIDTH 14 0
BBX 14 14 0 -2
BITMAP
0080
0080
0FFC
4818
2BE0
2A40
0A40
1BFC
2A20
4A20
1390
1C14
27EC
4004
ENDCHAR
STARTCHAR 02-81-43
ENCODING 29003
SWIDTH 960 0
DWIDTH 14 0
BBX 14 14 0 -2
BITMAP
0080
0080
0FFC
4920
2FF8
2928
0FF8
1D20
2FFC
4D24
1124
1238
2220
4420
ENDCHAR
STARTCHAR 02-81-44
ENCODING 29004
SWIDTH 960 0
DWIDTH 14 0
BBX 14 14 0 -2
BITMAP
0080
0080
0FFC
4900
2900
2BF8
0A08
1DE8
2928
49E8
1128
1008
2008
4030
ENDCHAR
STARTCHAR 02-81-45
ENCODING 29005
SWIDTH 960 0
DWIDTH 14 0
BBX 14 14 0 -2
BITMAP
0080
0080
0FFC
4800
2BF8
2A08
0BF8
1A08
2A80
4A98
12E0
1484
2484
487C
ENDCHAR
STARTCHAR 02-81-46
ENCODING 29006
SWIDTH 960 0
DWIDTH 14 0
BBX 14 14 0 -2
BITMAP
0080
0080
0FFC
4880
2880
2FFC
0900
1BF0
2E10
4BF0
1210
13F0
2210
4230
ENDCHAR
STARTCHAR 02-81-47
ENCODING 29007
SWIDTH 960 0
DWIDTH 14 0
BBX 14 14 0 -2
BITMAP
0080
0080
0FFC
4800
2FF8
2940
0A30
1FC8
2880
4FF8
1080
1080
3FFC
4000
ENDCHAR
STARTCHAR 02-81-48
ENCODING 29008
SWIDTH 960 0
DWIDTH 14 0
BBX 14 14 0 -2
BITMAP
0080
0080
4FFC
2A20
2FFC
0A20
1A48
2A90
4A24
0BC8
1510
1564
2904
50FC
ENDCHAR
STARTCHAR 02-81-49
ENCODING 29009
SWIDTH 960 0
DWIDTH 14 0
BBX 14 14 0 -2
BITMAP
0080
0080
0FFC
48D0
2948
2A48
0BF8
1A08
2BF8
4A08
13F8
1208
2208
4218
ENDCHAR
STARTCHAR 02-81-50
ENCODING 29010
SWIDTH 960 0
DWIDTH 14 0
BBX 14 14 0 -2
BITMAP
0080
0080
0FFC
48A0
2910
2FF8
0948
1A44
2D3C
4BE0
1520
10C0
2330
4C0C
ENDCHAR
STARTCHAR 02-81-51
ENCODING 29011
SWIDTH 960 0
DWIDTH 14 0
BBX 14 14 0 -2
BITMAP
0080
0080
0FFC
4C20
2A20
2AB0
0CA8
1AA4
2B2C
4828
1270
1410
2460
4980
ENDCHAR
STARTCHAR 02-81-52
ENCODING 29012
SWIDTH 960 0
DWIDTH 14 0
BBX 14 14 0 -2
BITMAP
0080
0080
0FFC
4800
2BF0
2BF0
0A10
1BF0
2FFC
4BF8
12A8
1528
2248
40B0
ENDCHAR
STARTCHAR 02-81-53
ENCODING 29013
SWIDTH 960 0
DWIDTH 14 0
BBX 14 14 0 -2
BITMAP
0080
0080
0FFC
4800
2BF8
2A00
0BF0
1BF0
2A00
4FFC
1290
1260
2330
4C0C
ENDCHAR
STARTCHAR 02-81-54
ENCODING 29014
SWIDTH 960 0
DWIDTH 14 0
BBX 14 14 0 -2
BITMAP
0080
0080
0FFC
4920
2920
2F3C
0920
1920
2F3C
4920
1F3C
1220
2220
4420
ENDCHAR
STARTCHAR 02-81-55
ENCODING 29015
SWIDTH 960 0
DWIDTH 14 0
BBX 14 14 0 -2
BITMAP
0080
0FFC
0800
4BF0
2A90
2BF0
0A90
1BF0
2800
4FFC
1120
1120
2220
4420
ENDCHAR
STARTCHAR 02-81-56
ENCODING 29016
SWIDTH 960 0
DWIDTH 14 0
BBX 14 14 0 -2
BITMAP
0080
0080
0FFC
4800
2FF8
2900
0EA8
19E8
2EF0
4ED0
1350
1248
2C44
4180
ENDCHAR
STARTCHAR 02-81-57
ENCODING 29017
SWIDTH 960 0
DWIDTH 14 0
BBX 14 14 0 -2
BITMAP
0080
0FFC
0C90
4AA0
2FF8
29C0
09A0
1A90
2C88
4FFC
1220
1720
20E0
4F18
ENDCHAR
STARTCHAR 02-81-58
ENCODING 29018
SWIDTH 960 0
DWIDTH 14 0
BBX 14 14 0 -2
BITMAP
0080
0FFC
0830
4BC0
2FFC
2880
0BF0
1A90
2BF0
4A90
13F0
17F8
2080
4FFC
ENDCHAR
STARTCHAR 02-81-59
ENCODING 29019
SWIDTH 960 0
DWIDTH 14 0
BBX 14 14 0 -2
BITMAP
0080
0080
0FFC
4890
2FF0
28A0
0FFC
1910
2BF8
4D10
11F0
1110
21F0
4110
ENDCHAR
STARTCHAR 02-81-60
ENCODING 29020
SWIDTH 960 0
DWIDTH 14 0
BBX 14 14 0 -2
BITMAP
0080
0080
0FFC
4880
2BF0
2A10
0BF0
1A10
2BF0
4FF8
1080
13F0
2080
4FFC
ENDCHAR
STARTCHAR 02-81-61
ENCODING 29021
SWIDTH 960 0
DWIDTH 14 0
BBX 14 14 0 -2
BITMAP
0080
0FFC
0800
4BF0
2A10
2BF0
0A10
1BF0
2900
4BF8
1C88
1548
2648
47D8
ENDCHAR
STARTCHAR 02-81-62
ENCODING 29022
SWIDTH 960 0
DWIDTH 14 0
BBX 14 14 0 -2
BITMAP
0080
0080
0FFC
4900
29E0
2A40
0FF8
1AA8
2AB8
4B08
17FC
1120
2210
4C0C
ENDCHAR
STARTCHAR 02-81-63
ENCODING 29023
SWIDTH 960 0
DWIDTH 14 0
BBX 14 14 0 -2
BITMAP
0080
0080
0FFC
4B00
2EF8
2B28
0E28
1B48
2E88
4AB0
1148
1554
2514
48F0
ENDCHAR
STARTCHAR 02-81-64
ENCODING 29024
SWIDTH 960 0
DWIDTH 14 0
BBX 14 14 0 -2
BITMAP
0080
0080
0FFC
4880
2BF0
2A10
0BF0
1BF0
2A10
4BF0
1188
1554
2514
48F0
ENDCHAR
STARTCHAR 02-81-65
ENCODING 29025
SWIDTH 960 0
DWIDTH 14 0
BBX 14 14 0 -2
BITMAP
0080
0FFC
0800
4FF0
2FFC
2910
0FF0
1BF8
2D08
49F8
17F8
1488
2488
44B0
ENDCHAR
STARTCHAR 02-81-66
ENCODING 29026
SWIDTH 960 0
DWIDTH 14 0
BBX 14 14 0 -2
BITMAP
0080
0080
0FFC
4910
2BF8
2840
09F0
1840
2FFC
4900
13F8
1440
2BFC
4000
ENDCHAR
STARTCHAR 02-81-67
ENCODING 29027
SWIDTH 960 0
DWIDTH 14 0
BBX 14 14 0 -2
BITMAP
0080
0FFC
0A00
4BF8
2DF8
2C00
0DF0
1D10
2DF0
4D10
15F0
17FC
2210
440C
ENDCHAR
STARTCHAR 02-81-68
ENCODING 29028
SWIDTH 960 0
DWIDTH 14 0
BBX 14 14 0 -2
BITMAP
0080
0080
0FFC
4920
2FFC
2920
0BF0
1A10
2BF0
4BF0
1080
17FC
2320
4C18
ENDCHAR
STARTCHAR 02-81-69
ENCODING 29029
SWIDTH 960 0
DWIDTH 14 0
BBX 14 14 0 -2
BITMAP
0080
0FFC
0800
4FF8
2998
2EE8
0998
1EE8
2B70
4CDC
1360
1190
2060
4780
ENDCHAR
STARTCHAR 02-81-70
ENCODING 29030
SWIDTH 960 0
DWIDTH 14 0
BBX 14 14 0 -2
BITMAP
0080
0FFC
0800
4BFC
2A00
2AF0
0A90
1AF0
2BF8
4B68
13F8
1200
23FC
4200
ENDCHAR
STARTCHAR 02-81-71
ENCODING 29031
SWIDTH 960 0
DWIDTH 14 0
BBX 14 14 0 -2
BITMAP
0080
0080
0FFC
4BF0
2A90
2BF0
0FFC
1BF0
2A10
4BF0
13F0
1210
23F0
4418
ENDCHAR
STARTCHAR 02-81-72
ENCODING 29032
SWIDTH 960 0
DWIDTH 14 0
BBX 14 14 0 -2
BITMAP
0080
0FFC
0A40
4A7C
2CF8
2948
0A78
1A48
2E78
4A20
1278
1390
2270
438C
ENDCHAR
STARTCHAR 02-81-73
ENCODING 29033
SWIDTH 960 0
DWIDTH 14 0
BBX 14 14 0 -2
BITMAP
0080
0FFC
0800
4A20
2FB0
2A48
0F94
1EA0
2FC8
4E90
17E4
1208
2F90
4260
ENDCHAR
STARTCHAR 02-81-74
ENCODING 29034
SWIDTH 960 0
DWIDTH 14 0
BBX 14 14 0 -2
BITMAP
0080
0080
0FFC
4B70
2B50
2B70
0BF0
1A90
2BF0
4A90
13F0
1FFC
2080
4080
ENDCHAR
STARTCHAR 02-81-75
ENCODING 29035
SWIDTH 960 0
DWIDTH 14 0
BBX 14 14 0 -2
BITMAP
0080
0FFC
0880
4FFC
2950
2950
0E7C
1AD0
2978
4AD0
17F8
1150
227C
4440
ENDCHAR
STARTCHAR 02-81-76
ENCODING 29036
SWIDTH 960 0
DWIDTH 14 0
BBX 14 14 0 -2
BITMAP
0080
0FFC
0800
4F7C
2A10
2FFC
0A44
1F7C
2AC4
487C
1544
157C
25A8
4944
ENDCHAR
STARTCHAR 02-81-77
ENCODING 29037
SWIDTH 960 0
DWIDTH 14 0
BBX 14 14 0 -2
BITMAP
0080
0FFC
0818
4FE8
2DA4
2EF8
0FFC
1D78
2DFC
4D78
1648
15A4
258C
4678
ENDCHAR
STARTCHAR 02-81-78
ENCODING 29038
SWIDTH 960 0
DWIDTH 14 0
BBX 14 14 0 -2
BITMAP
0000
7FFC
0820
1040
3EF8
2288
2288
2288
3EF8
2288
2288
2288
3EF8
2288
ENDCHAR
STARTCHAR 02-81-79
ENCODING 29039
SWIDTH 960 0
DWIDTH 14 0
BBX 14 14 0 -2
BITMAP
1040
13F8
2000
79F0
4910
49F0
7800
4BF8
4A08
4AE8
7AA8
4AE8
0208
0218
ENDCHAR
STARTCHAR 02-81-80
ENCODING 29040
SWIDTH 960 0
DWIDTH 14 0
BBX 14 14 0 -2
BITMAP
1040
1080
23F8
7A08
4BF8
4A08
7BF8
4840
4B58
4840
7B58
4FFC
0040
0040
ENDCHAR
STARTCHAR 02-81-81
ENCODING 29041
SWIDTH 960 0
DWIDTH 14 0
BBX 14 14 0 -2
BITMAP
1040
1248
2248
7BF8
4A98
48A0
79FC
4920
4BF8
4D20
79F8
4920
01FC
0100
ENDCHAR
STARTCHAR 02-81-82
ENCODING 29042
SWIDTH 960 0
DWIDTH 14 0
BBX 14 14 0 -2
BITMAP
1030
13C8
2290
7960
4BFC
4A48
7DA8
4A94
4CF0
49F8
7A90
4860
0090
030C
ENDCHAR
STARTCHAR 02-81-83
ENCODING 29043
SWIDTH 960 0
DWIDTH 14 0
BBX 14 14 0 -2
BITMAP
0200
0FE0
0820
0FE0
0FE0
1040
3EF8
2288
3EF8
3EF8
0100
1FF0
0100
7FFC
ENDCHAR
STARTCHAR 02-81-84
ENCODING 29044
SWIDTH 960 0
DWIDTH 14 0
BBX 14 14 0 -2
BITMAP
0800
09FC
3F20
2A20
2C20
2820
3FFC
3220
2A20
2420
2420
2A20
3220
4020
ENDCHAR
STARTCHAR 02-81-85
ENCODING 29045
SWIDTH 960 0
DWIDTH 14 0
BBX 14 14 0 -2
BITMAP
0200
0200
7FFC
0200
07E0
0420
0A40
1180
6E78
1FF0
1290
1290
7FFC
0000
ENDCHAR
STARTCHAR 02-81-86
ENCODING 29046
SWIDTH 960 0
DWIDTH 14 0
BBX 14 14 0 -2
BITMAP
0070
1F80
0100
7FFC
0380
0540
1930
610C
1FF0
1290
1290
1290
7FFC
0000
ENDCHAR
STARTCHAR 02-81-87
ENCODING 29047
SWIDTH 960 0
DWIDTH 14 0
BBX 14 14 0 -2
BITMAP
0000
1FF0
1110
1110
1390
1450
1850
1FF0
0000
1FF0
1290
1290
7FFC
0000
ENDCHAR
STARTCHAR 02-81-88
ENCODING 29048
SWIDTH 960 0
DWIDTH 14 0
BBX 14 14 0 -2
BITMAP
1000
17FC
2840
49F8
15F8
25F8
4908
11F8
2188
4604
1FF0
1290
7FFC
0000
ENDCHAR
STARTCHAR 02-81-89
ENCODING 29049
SWIDTH 960 0
DWIDTH 14 0
BBX 14 14 0 -2
BITMAP
0080
7EF8
5120
7FFC
4420
7C20
50F8
5088
7CF8
0088
1FF0
1290
7FFC
0000
ENDCHAR
STARTCHAR 02-81-90
ENCODING 29050
SWIDTH 960 0
DWIDTH 14 0
BBX 14 14 0 -2
BITMAP
0040
0040
7840
4FFC
48E0
78E0
4950
4950
7A48
4A48
4C44
7840
4840
0040
ENDCHAR
STARTCHAR 02-81-91
ENCODING 29051
SWIDTH 960 0
DWIDTH 14 0
BBX 14 14 0 -2
BITMAP
0100
0100
7900
4BF8
4A08
7DE8
4928
4928
7928
49E8
4928
7808
4808
0030
ENDCHAR
STARTCHAR 02-81-92
ENCODING 29052
SWIDTH 960 0
DWIDTH 14 0
BBX 14 14 0 -2
BITMAP
1100
1FF0
2100
3FF8
0100
7FFC
0000
1FF0
1010
1FF0
1FF0
1010
1FF0
1010
ENDCHAR
STARTCHAR 02-81-93
ENCODING 29053
SWIDTH 960 0
DWIDTH 14 0
BBX 14 14 0 -2
BITMAP
0040
0040
7BF8
4840
4840
7FFC
4840
4840
7BF8
4840
4840
7840
47FC
0000
ENDCHAR
STARTCHAR 02-81-94
ENCODING 29054
SWIDTH 960 0
DWIDTH 14 0
BBX 14 14 0 -2
BITMAP
0040
0078
7888
4B50
4820
7840
4BA0
483C
7844
48A8
4B18
7810
4860
0380
ENDCHAR
STARTCHAR 02-82-01
ENCODING 29217
SWIDTH 960 0
DWIDTH 14 0
BBX 14 14 0 -2
BITMAP
0000
02F8
7A88
4A88
4AF8
7A88
4A88
4AF8
7AA8
4920
4920
7924
4A24
041C
ENDCHAR
STARTCHAR 02-82-02
ENCODING 29218
SWIDTH 960 0
DWIDTH 14 0
BBX 14 14 0 -2
BITMAP
0040
0040
7840
4FFC
4950
7950
4950
4AE8
7C44
48A0
48A0
7910
4A08
0404
ENDCHAR
STARTCHAR 02-82-03
ENCODING 29219
SWIDTH 960 0
DWIDTH 14 0
BBX 14 14 0 -2
BITMAP
0040
0040
78A0
4910
4BF8
7C44
4BF8
4A48
7BF8
4A48
48A0
7890
4908
0604
ENDCHAR
STARTCHAR 02-82-04
ENCODING 29220
SWIDTH 960 0
DWIDTH 14 0
BBX 14 14 0 -2
BITMAP
0040
0040
787C
4840
4BF8
7A08
4BF8
4A08
7BF8
4840
4FFC
7840
4840
0040
ENDCHAR
STARTCHAR 02-82-05
ENCODING 29221
SWIDTH 960 0
DWIDTH 14 0
BBX 14 14 0 -2
BITMAP
0000
1FF0
1290
1FF0
0000
3FF8
0FE0
0820
0FF0
0610
1D20
64C0
0730
0C0C
ENDCHAR
STARTCHAR 02-82-06
ENCODING 29222
SWIDTH 960 0
DWIDTH 14 0
BBX 14 14 0 -2
BITMAP
0040
0150
7948
4BF8
48A0
7FFC
4910
4BF8
7D14
4910
4960
7908
4908
00F8
ENDCHAR
STARTCHAR 02-82-07
ENCODING 29223
SWIDTH 960 0
DWIDTH 14 0
BBX 14 14 0 -2
BITMAP
0000
3FF8
2448
3FF8
0100
1FF0
0100
7FFC
0440
3FF8
0100
7FFC
0100
0100
ENDCHAR
STARTCHAR 02-82-08
ENCODING 29224
SWIDTH 960 0
DWIDTH 14 0
BBX 14 14 0 -2
BITMAP
0120
0120
7FF8
4920
4FFC
7880
4BF8
4A88
7BA8
4BA8
4BE8
7B28
4A08
0218
ENDCHAR
STARTCHAR 02-82-09
ENCODING 29225
SWIDTH 960 0
DWIDTH 14 0
BBX 14 14 0 -2
BITMAP
0000
01F0
7910
49F0
4910
79F0
4940
49FC
7A40
4DF8
4840
7840
4BFC
0000
ENDCHAR
STARTCHAR 02-82-10
ENCODING 29226
SWIDTH 960 0
DWIDTH 14 0
BBX 14 14 0 -2
BITMAP
0000
01F0
7910
49F0
4910
79F0
4800
4FFC
7840
4A78
4A40
7B40
44C0
083C
ENDCHAR
STARTCHAR 02-82-11
ENCODING 29227
SWIDTH 960 0
DWIDTH 14 0
BBX 14 14 0 -2
BITMAP
01D0
0054
7AA4
49A8
4910
7A08
49F4
4840
7840
4BF8
48A0
7890
4908
0608
ENDCHAR
STARTCHAR 02-82-12
ENCODING 29228
SWIDTH 960 0
DWIDTH 14 0
BBX 14 14 0 -2
BITMAP
0110
0110
7FFC
4910
4840
78A0
4910
4EEC
7800
49F0
4910
7910
49F0
0110
ENDCHAR
STARTCHAR 02-82-13
ENCODING 29229
SWIDTH 960 0
DWIDTH 14 0
BBX 14 14 0 -2
BITMAP
0040
0078
78C8
4930
4EA0
78C0
4F00
49F8
7A40
4FFC
4A48
7A48
4BF8
0208
ENDCHAR
STARTCHAR 02-82-14
ENCODING 29230
SWIDTH 960 0
DWIDTH 14 0
BBX 14 14 0 -2
BITMAP
0040
0040
7BFC
4A08
4FFC
7840
49F8
4948
79F8
4948
49F8
7890
4108
0604
ENDCHAR
STARTCHAR 02-82-15
ENCODING 29231
SWIDTH 960 0
DWIDTH 14 0
BBX 14 14 0 -2
BITMAP
0000
07FC
78A0
4BF8
4AA8
7BF8
4800
4BF8
7800
4FFC
4950
7A48
4448
00C0
ENDCHAR
STARTCHAR 02-82-16
ENCODING 29232
SWIDTH 960 0
DWIDTH 14 0
BBX 14 14 0 -2
BITMAP
0440
7FFC
0440
1FF0
1290
1FF0
3FFC
2008
4FE0
0FE0
0FE0
0820
0FE0
0820
ENDCHAR
STARTCHAR 02-82-17
ENCODING 29233
SWIDTH 960 0
DWIDTH 14 0
BBX 14 14 0 -2
BITMAP
0000
0778
7548
5778
5548
7778
5408
55E8
7488
55E8
5488
75E8
5408
0418
ENDCHAR
STARTCHAR 02-82-18
ENCODING 29234
SWIDTH 960 0
DWIDTH 14 0
BBX 14 14 0 -2
BITMAP
0000
03F8
7A08
4BF8
4A78
7BC0
4AF0
4AD0
7AF0
4BF8
4BA8
7DF8
4508
0918
ENDCHAR
STARTCHAR 02-82-19
ENCODING 29235
SWIDTH 960 0
DWIDTH 14 0
BBX 14 14 0 -2
BITMAP
0000
1FE0
0480
7FFC
0510
1920
6300
3FF8
2288
24F8
2FC8
3448
27C8
2018
ENDCHAR
STARTCHAR 02-82-20
ENCODING 29236
SWIDTH 960 0
DWIDTH 14 0
BBX 14 14 0 -2
BITMAP
0020
3EB0
12A8
0D28
04F8
7F88
0D88
0EF8
1488
1488
24F8
4488
0488
0C98
ENDCHAR
STARTCHAR 02-82-21
ENCODING 29237
SWIDTH 960 0
DWIDTH 14 0
BBX 14 14 0 -2
BITMAP
0100
7D00
0500
05F8
3E40
2440
2040
3FFC
2440
04A0
04A0
0510
0908
3204
ENDCHAR
STARTCHAR 02-82-22
ENCODING 29238
SWIDTH 960 0
DWIDTH 14 0
BBX 14 14 0 -2
BITMAP
0200
07E0
18C0
6100
1FFC
1200
13F0
1480
1880
1FFC
10C0
2120
2610
580C
ENDCHAR
STARTCHAR 02-82-23
ENCODING 29239
SWIDTH 960 0
DWIDTH 14 0
BBX 14 14 0 -2
BITMAP
1020
1040
10F8
1EC8
28A8
28A8
4888
7FFC
08A8
0CA8
12A8
1328
2108
4218
ENDCHAR
STARTCHAR 02-82-24
ENCODING 29240
SWIDTH 960 0
DWIDTH 14 0
BBX 14 14 0 -2
BITMAP
1040
1040
1150
1F50
2950
2958
4AE4
7C44
0840
09F8
1440
1440
27FC
4000
ENDCHAR
STARTCHAR 02-82-25
ENCODING 29241
SWIDTH 960 0
DWIDTH 14 0
BBX 14 14 0 -2
BITMAP
1000
11F8
1108
1FF8
2908
29F8
4908
7FF8
09A8
0CA0
12A0
1324
2124
421C
ENDCHAR
STARTCHAR 02-82-26
ENCODING 29242
SWIDTH 960 0
DWIDTH 14 0
BBX 14 14 0 -2
BITMAP
11F0
1010
1108
1FFC
2B58
2AE8
4BF8
7C00
08F0
0C90
12F0
1290
20F0
4090
ENDCHAR
STARTCHAR 02-82-27
ENCODING 29243
SWIDTH 960 0
DWIDTH 14 0
BBX 14 14 0 -2
BITMAP
0000
7DFC
1020
1020
1020
3C20
2420
6420
2420
2420
3C20
2420
2020
0060
ENDCHAR
STARTCHAR 02-82-28
ENCODING 29244
SWIDTH 960 0
DWIDTH 14 0
BBX 14 14 0 -2
BITMAP
0080
7E80
1080
11FC
1100
3DF8
2610
6420
2440
2480
3C80
2504
2104
00FC
ENDCHAR
STARTCHAR 02-82-29
ENCODING 29245
SWIDTH 960 0
DWIDTH 14 0
BBX 14 14 0 -2
BITMAP
0000
7EF8
1088
1088
1088
3CF8
24A8
64A0
24A0
24A0
3D10
2510
2208
0404
ENDCHAR
STARTCHAR 02-82-30
ENCODING 29246
SWIDTH 960 0
DWIDTH 14 0
BBX 14 14 0 -2
BITMAP
0040
7E40
1048
1068
17E8
3CF0
24D0
64D0
2550
2548
3E48
2444
2040
00C0
ENDCHAR
STARTCHAR 02-82-31
ENCODING 29247
SWIDTH 960 0
DWIDTH 14 0
BBX 14 14 0 -2
BITMAP
0040
7E40
1040
13F8
1040
3C40
2440
67FC
2440
24A0
3CA0
2510
2208
0404
ENDCHAR
STARTCHAR 02-82-32
ENCODING 29248
SWIDTH 960 0
DWIDTH 14 0
BBX 14 14 0 -2
BITMAP
0100
01F8
3F00
03F8
3D00
03F8
3D00
0100
7FFC
0200
07F0
1C10
67F0
0410
ENDCHAR
STARTCHAR 02-82-33
ENCODING 29249
SWIDTH 960 0
DWIDTH 14 0
BBX 14 14 0 -2
BITMAP
0080
7E80
1080
1080
11FC
3D48
2650
6440
2440
2440
3CA0
2520
2210
040C
ENDCHAR
ENDFONT
